<svg width="21" height="21" viewBox="0 0 21 21" fill="none" xmlns="http://www.w3.org/2000/svg">
<g clip-path="url(#clip0_64_352)">
<path d="M20.2873 6.38878L11.2873 14.3888C11.1048 14.5491 10.8702 14.6375 10.6273 14.6375C10.3843 14.6375 10.1497 14.5491 9.96725 14.3888L0.967251 6.38878C0.781418 6.21029 0.671657 5.96695 0.660853 5.70951C0.650049 5.45206 0.739037 5.20039 0.90926 5.00695C1.07948 4.81351 1.31781 4.69325 1.57453 4.67123C1.83126 4.64922 2.08658 4.72715 2.28725 4.88878L10.6273 12.2988L18.9673 4.88878C19.0646 4.79527 19.1799 4.72244 19.3062 4.67467C19.4324 4.62691 19.5671 4.6052 19.7019 4.61086C19.8368 4.61652 19.9691 4.64943 20.0909 4.70761C20.2128 4.76578 20.3215 4.84802 20.4107 4.94936C20.4999 5.0507 20.5676 5.16904 20.6098 5.29726C20.6521 5.42549 20.6679 5.56093 20.6563 5.69543C20.6448 5.82993 20.6062 5.9607 20.5427 6.07986C20.4793 6.19902 20.3924 6.30411 20.2873 6.38878Z" fill="#9F7AEA"/>
</g>
<defs>
<clipPath id="clip0_64_352">
<rect width="20" height="20" fill="white" transform="translate(0.659973 0.109985)"/>
</clipPath>
</defs>
</svg>
