<svg width="24" height="18" viewBox="0 0 24 18" fill="none" xmlns="http://www.w3.org/2000/svg">
<path d="M9.13049 14.8076H6.52179V15.9615H9.13049V14.8076Z" fill="#9F7AEA"/>
<path d="M17.4783 14.8076H14.8696V15.9615H17.4783V14.8076Z" fill="#9F7AEA"/>
<path d="M9.40468 6.23971C10.0906 6.58833 10.5 7.15529 10.5 7.75625C10.5 8.01233 10.7826 8.22064 11.1299 8.22064C11.3569 8.22064 11.6041 8.22064 11.7348 8.22064V5.0961H11.4783C11.3342 5.0961 11.2174 5.00998 11.2174 4.90379C11.2174 4.7976 11.3342 4.71148 11.4783 4.71148H11.7348V4.27398C11.7348 4.01029 11.4438 3.79571 11.086 3.79571C10.7283 3.79571 10.4372 4.01025 10.4372 4.27398C10.4372 4.38017 10.3204 4.46629 10.1763 4.46629C10.0323 4.46629 9.91546 4.38017 9.91546 4.27398C9.91546 3.79817 10.4405 3.4111 11.086 3.4111C11.453 3.4111 11.7809 3.53633 11.9957 3.73175C12.2104 3.53633 12.5383 3.4111 12.9053 3.4111C13.5507 3.4111 14.0759 3.79817 14.0759 4.27398C14.0759 4.38017 13.9591 4.46629 13.815 4.46629C13.6709 4.46629 13.5541 4.38017 13.5541 4.27398C13.5541 4.01029 13.2631 3.79571 12.9053 3.79571C12.5476 3.79571 12.2566 4.01025 12.2566 4.27398V4.71148H12.5218C12.6659 4.71148 12.7826 4.7976 12.7826 4.90379C12.7826 5.00998 12.6659 5.0961 12.5218 5.0961H12.2566V8.22064C12.3878 8.22064 12.6353 8.22064 12.8627 8.22064C13.2093 8.22064 13.4913 8.01271 13.4913 7.75717C13.4913 7.15002 13.8899 6.58821 14.5575 6.25437C15.8147 5.62571 16.5652 4.58287 16.5652 3.46467C16.5652 1.59425 14.4838 0.0700597 11.9304 0.0964058C9.42539 0.122137 7.40485 1.64625 7.42619 3.49394C7.43892 4.58991 8.17849 5.61637 9.40468 6.23971Z" fill="#9F7AEA"/>
<path d="M20.8695 2.88462C21.5888 2.88462 22.1739 2.45328 22.1739 1.92309C22.1739 1.39289 21.5888 0.961548 20.8695 0.961548C20.1503 0.961548 19.5652 1.39289 19.5652 1.92309C19.5652 2.45328 20.1503 2.88462 20.8695 2.88462Z" fill="#9F7AEA"/>
<path d="M12.7171 9.42299C13.0229 9.42299 13.2717 9.23957 13.2717 9.01411C13.2717 8.78865 13.0229 8.60522 12.7171 8.60522H11.2742C10.9684 8.60522 10.7195 8.78865 10.7195 9.01411C10.7195 9.23957 10.9684 9.42299 11.2742 9.42299H12.7171Z" fill="#9F7AEA"/>
<path d="M3.65218 2.88468C4.08371 2.88468 4.43479 2.62587 4.43479 2.30776C4.43479 1.98964 4.08371 1.73083 3.65218 1.73083C3.22065 1.73083 2.86957 1.98964 2.86957 2.30776C2.86957 2.62587 3.22065 2.88468 3.65218 2.88468Z" fill="#9F7AEA"/>
<path d="M16.9492 10.3255C16.9492 10.2193 16.8325 10.1332 16.6884 10.1332C16.5443 10.1332 16.4275 10.2193 16.4275 10.3255C16.4275 12.0495 14.5934 13.4632 12.2881 13.5631V12.3546C13.691 12.2574 14.7925 11.3846 14.7925 10.3255C14.7925 10.2193 14.6757 10.1332 14.5316 10.1332C14.3875 10.1332 14.2707 10.2193 14.2707 10.3255C14.2707 11.2374 13.2643 11.9794 12.0273 11.9794C10.7921 11.9794 9.78722 11.2374 9.78722 10.3255C9.78722 10.2193 9.67041 10.1332 9.52636 10.1332C9.3823 10.1332 9.26549 10.2193 9.26549 10.3255C9.26549 11.3846 10.3655 12.2573 11.7664 12.3546V13.5631C9.46109 13.4632 7.62696 12.0496 7.62696 10.3255C7.62696 10.2193 7.51015 10.1332 7.36609 10.1332C7.22204 10.1332 7.10522 10.2193 7.10522 10.3255C7.10522 12.2617 9.17319 13.8485 11.7664 13.9488V15.5769H10.9565C10.8125 15.5769 10.6957 15.663 10.6957 15.7693C10.6957 15.8755 10.8125 15.9616 10.9565 15.9616H13.0435C13.1876 15.9616 13.3044 15.8755 13.3044 15.7693C13.3044 15.663 13.1876 15.5769 13.0435 15.5769H12.2881V13.9488C14.8814 13.8485 16.9492 12.2617 16.9492 10.3255Z" fill="#9F7AEA"/>
<path d="M5.73915 1.15387C6.0273 1.15387 6.26089 0.981676 6.26089 0.769259C6.26089 0.556842 6.0273 0.384644 5.73915 0.384644C5.451 0.384644 5.21741 0.556842 5.21741 0.769259C5.21741 0.981676 5.451 1.15387 5.73915 1.15387Z" fill="#9F7AEA"/>
<path d="M17.7391 0.769231C18.0273 0.769231 18.2609 0.597033 18.2609 0.384615C18.2609 0.172198 18.0273 0 17.7391 0C17.451 0 17.2174 0.172198 17.2174 0.384615C17.2174 0.597033 17.451 0.769231 17.7391 0.769231Z" fill="#9F7AEA"/>
<path d="M18.7826 4.61542C19.0708 4.61542 19.3043 4.44322 19.3043 4.23081C19.3043 4.01839 19.0708 3.84619 18.7826 3.84619C18.4945 3.84619 18.2609 4.01839 18.2609 4.23081C18.2609 4.44322 18.4945 4.61542 18.7826 4.61542Z" fill="#9F7AEA"/>
<path d="M5.73915 5.76923C6.0273 5.76923 6.26089 5.59703 6.26089 5.38462C6.26089 5.1722 6.0273 5 5.73915 5C5.451 5 5.21741 5.1722 5.21741 5.38462C5.21741 5.59703 5.451 5.76923 5.73915 5.76923Z" fill="#9F7AEA"/>
<path d="M19.826 6.53854V6.7645C20.1295 6.84396 20.3478 7.05715 20.3478 7.30777C20.3478 7.55838 20.1295 7.77157 19.826 7.85104V14.1387C20.8872 13.4918 22.4178 13.4922 23.4782 14.1387V6.53854C23.4782 5.79627 22.659 5.19238 21.6521 5.19238C20.6452 5.19238 19.826 5.79627 19.826 6.53854Z" fill="#9F7AEA"/>
<path d="M4.17396 14.1387V7.85104C3.87052 7.77157 3.65222 7.55838 3.65222 7.30777C3.65222 7.05715 3.87052 6.84396 4.17396 6.7645V6.53854C4.17396 5.79627 3.35478 5.19238 2.34788 5.19238C1.34097 5.19238 0.52179 5.79627 0.52179 6.53854V14.1387C1.58275 13.4919 3.11353 13.4922 4.17396 14.1387Z" fill="#9F7AEA"/>
<path d="M6.26087 9.03842H8.86957C9.01362 9.03842 9.13043 8.95235 9.13043 8.84612C9.13043 8.73989 9.01362 8.65381 8.86957 8.65381H6.26087C6.11682 8.65381 6 8.73989 6 8.84612C6 8.95235 6.11682 9.03842 6.26087 9.03842Z" fill="#9F7AEA"/>
<path d="M18 8.84612C18 8.73989 17.8832 8.65381 17.7391 8.65381H15.1304C14.9863 8.65381 14.8696 8.73989 14.8696 8.84612C14.8696 8.95235 14.9863 9.03842 15.1304 9.03842H17.7391C17.8832 9.03842 18 8.95235 18 8.84612Z" fill="#9F7AEA"/>
<path d="M21.6522 14.0385C20.3575 14.0385 19.3043 14.8148 19.3043 15.7692C19.3043 15.8755 19.4211 15.9615 19.5652 15.9615C19.7093 15.9615 19.8261 15.8755 19.8261 15.7692C19.8261 15.027 20.6453 14.4231 21.6522 14.4231C22.6591 14.4231 23.4783 15.027 23.4783 15.7692C23.4783 16.5115 22.6591 17.1154 21.6522 17.1154C21.5861 17.1154 2.49856 17.1155 2.35002 17.1155C1.33763 17.1155 0.521739 16.5095 0.521739 15.7692C0.521739 15.027 1.34092 14.4231 2.34783 14.4231C3.35473 14.4231 4.17391 15.027 4.17391 15.7692C4.17391 15.8755 4.29073 15.9615 4.43478 15.9615C4.57883 15.9615 4.69565 15.8755 4.69565 15.7692C4.69565 14.8148 3.64242 14.0385 2.34783 14.0385C1.05323 14.0385 0 14.8148 0 15.7692C0 16.7196 1.04619 17.5 2.35216 17.5H21.6522C22.9468 17.5 24 16.7236 24 15.7692C24 14.8148 22.9468 14.0385 21.6522 14.0385Z" fill="#9F7AEA"/>
<path d="M8.60873 7.30766C8.60873 7.20147 8.49192 7.11536 8.34786 7.11536H4.43482C4.29077 7.11536 4.17395 7.20147 4.17395 7.30766C4.17395 7.41386 4.29077 7.49997 4.43482 7.49997H8.34786C8.49192 7.49997 8.60873 7.41386 8.60873 7.30766Z" fill="#9F7AEA"/>
<path d="M15.3913 7.30766C15.3913 7.41386 15.5081 7.49997 15.6522 7.49997H19.5652C19.7093 7.49997 19.8261 7.41386 19.8261 7.30766C19.8261 7.20147 19.7093 7.11536 19.5652 7.11536H15.6522C15.5081 7.11536 15.3913 7.20147 15.3913 7.30766Z" fill="#9F7AEA"/>
</svg>
