<svg xmlns="http://www.w3.org/2000/svg" xmlns:xlink="http://www.w3.org/1999/xlink" version="1.1" x="0px" y="0px" viewBox="0 0 512 640" style="enable-background:new 0 0 512 512;" xml:space="preserve"><g><g><g><rect x="151" y="413.5" width="50" height="30"/><rect x="311" y="413.5" width="50" height="30"/><path d="M206.256,190.734c13.146,9.064,20.994,23.805,20.994,39.43c0,6.658,5.416,12.074,12.073,12.074c4.351,0,9.088,0,11.594,0     V161H246c-2.761,0-5-2.239-5-5s2.239-5,5-5h4.917v-11.375c0-6.856-5.578-12.435-12.435-12.435     c-6.857,0-12.436,5.578-12.436,12.435c0,2.761-2.239,5-5,5c-2.761,0-5-2.239-5-5c0-12.371,10.064-22.435,22.435-22.435     c7.034,0,13.319,3.256,17.436,8.337c4.116-5.081,10.401-8.337,17.435-8.337c12.37,0,22.435,10.064,22.435,22.435     c0,2.761-2.238,5-5,5c-2.762,0-5-2.239-5-5c0-6.856-5.578-12.435-12.435-12.435c-6.857,0-12.435,5.578-12.435,12.435V151H266     c2.762,0,5,2.239,5,5s-2.238,5-5,5h-5.083v81.238c2.515,0,7.259,0,11.617,0c6.644,0,12.049-5.406,12.049-12.05     c0-15.786,7.64-30.393,20.436-39.073c24.095-16.345,38.48-43.459,38.48-72.532c0-48.631-39.893-88.26-88.834-87.575     c-48.012,0.669-86.739,40.296-86.33,88.336C168.579,147.839,182.754,174.527,206.256,190.734z"/><path d="M426,103.5c13.785,0,25-11.215,25-25s-11.215-25-25-25c-13.785,0-25,11.215-25,25S412.215,103.5,426,103.5z"/><path d="M269.744,273.5c5.862,0,10.631-4.769,10.631-10.631s-4.769-10.631-10.631-10.631h-27.655     c-5.862,0-10.631,4.769-10.631,10.631s4.769,10.631,10.631,10.631H269.744z"/><path d="M96,103.5c8.271,0,15-6.729,15-15s-6.729-15-15-15s-15,6.729-15,15S87.729,103.5,96,103.5z"/><path d="M350.86,296.962c0-2.762-2.238-5-5-5c-2.762,0-5,2.238-5,5c0,44.825-35.154,81.58-79.338,84.178v-31.42     c26.888-2.528,48-25.22,48-52.758c0-2.762-2.238-5-5-5c-2.762,0-5,2.238-5,5c0,23.711-19.29,43.001-43,43.001     c-23.674,0-42.934-19.29-42.934-43.001c0-2.762-2.239-5-5-5c-2.761,0-5,2.238-5,5c0,27.536,21.083,50.226,47.934,52.758v31.42     c-44.185-2.598-79.339-39.352-79.339-84.178c0-2.762-2.239-5-5-5s-5,2.238-5,5c0,50.341,39.636,91.598,89.339,94.206V433.5H236     c-2.761,0-5,2.238-5,5s2.239,5,5,5h40c2.762,0,5-2.238,5-5s-2.238-5-5-5h-14.478v-42.332     C311.226,388.56,350.86,347.303,350.86,296.962z"/><circle cx="136" cy="48.5" r="10"/><circle cx="366" cy="38.5" r="10"/><circle cx="386" cy="138.5" r="10"/><circle cx="136" cy="168.5" r="10"/><path d="M406,198.5v5.875c5.816,2.066,10,7.609,10,14.125s-4.184,12.059-10,14.125v163.48c20.338-16.819,49.675-16.809,70,0     V198.5c0-19.299-15.701-35-35-35S406,179.201,406,198.5z"/><path d="M106,396.105v-163.48c-5.816-2.066-10-7.609-10-14.125s4.184-12.059,10-14.125V198.5c0-19.299-15.701-35-35-35     s-35,15.701-35,35v197.605C56.335,379.287,85.675,379.296,106,396.105z"/><path d="M146,263.5h50c2.761,0,5-2.238,5-5c0-2.762-2.239-5-5-5h-50c-2.761,0-5,2.238-5,5C141,261.262,143.239,263.5,146,263.5z"/><path d="M371,258.5c0-2.762-2.238-5-5-5h-50c-2.762,0-5,2.238-5,5c0,2.762,2.238,5,5,5h50C368.762,263.5,371,261.262,371,258.5z"/><path d="M441,393.5c-24.814,0-45,20.186-45,45c0,2.762,2.238,5,5,5c2.762,0,5-2.238,5-5c0-19.299,15.701-35,35-35     s35,15.701,35,35s-15.701,35-35,35c-1.266,0-367.111,0.004-369.958,0.004C51.638,473.504,36,457.746,36,438.5     c0-19.299,15.701-35,35-35s35,15.701,35,35c0,2.762,2.239,5,5,5s5-2.238,5-5c0-24.814-20.187-45-45-45s-45,20.186-45,45     c0,24.71,20.052,45,45.083,45H441c24.813,0,45-20.186,45-45S465.813,393.5,441,393.5z"/><path d="M191,218.5c0-2.761-2.239-5-5-5h-75c-2.761,0-5,2.239-5,5s2.239,5,5,5h75C188.761,223.5,191,221.261,191,218.5z"/><path d="M321,218.5c0,2.761,2.238,5,5,5h75c2.762,0,5-2.239,5-5s-2.238-5-5-5h-75C323.238,213.5,321,215.739,321,218.5z"/></g></g></g><text x="0" y="527" fill="#000000" font-size="5px" font-weight="bold" font-family="'Helvetica Neue', Helvetica, Arial-Unicode, Arial, Sans-serif">Created by Flatart</text><text x="0" y="532" fill="#000000" font-size="5px" font-weight="bold" font-family="'Helvetica Neue', Helvetica, Arial-Unicode, Arial, Sans-serif">from the Noun Project</text></svg>