<svg width="42" height="39" viewBox="0 0 42 39" fill="none" xmlns="http://www.w3.org/2000/svg">
<path d="M34.594 0H14.2661C10.6408 0 7.69481 2.75595 7.69481 6.14742V7.19847H6.57129C2.94598 7.19847 0 9.95442 0 13.3459V32.3626C0 35.754 2.94598 38.51 6.57129 38.51H26.8992C30.5245 38.51 33.4705 35.754 33.4705 32.3626V31.3115H34.594C38.2193 31.3115 41.1653 28.5556 41.1653 25.1641V6.14742C41.1653 2.75595 38.2193 0 34.594 0ZM30.8576 32.3626C30.8576 34.4036 29.0809 36.0657 26.8992 36.0657H6.57129C4.38957 36.0657 2.61284 34.4036 2.61284 32.3626V13.3459C2.61284 11.3049 4.38957 9.64278 6.57129 9.64278H26.8992C29.0809 9.64278 30.8576 11.3049 30.8576 13.3459V32.3626ZM38.5524 25.1641C38.5524 27.2051 36.7757 28.8672 34.594 28.8672H33.4705V13.3459C33.4705 9.95442 30.5245 7.19847 26.8992 7.19847H10.3077V6.14742C10.3077 4.10643 12.0844 2.4443 14.2661 2.4443H34.594C36.7757 2.4443 38.5524 4.10643 38.5524 6.14742V25.1641Z" fill="#FFC700"/>
<path d="M22.4378 21.632H18.0417V17.5195C18.0417 16.8473 17.4538 16.2973 16.7353 16.2973C16.0167 16.2973 15.4288 16.8473 15.4288 17.5195V21.632H11.0327C10.3142 21.632 9.72632 22.182 9.72632 22.8541C9.72632 23.5263 10.3142 24.0763 11.0327 24.0763H15.4288V28.1888C15.4288 28.861 16.0167 29.411 16.7353 29.411C17.4538 29.411 18.0417 28.861 18.0417 28.1888V24.0763H22.4378C23.1563 24.0763 23.7442 23.5263 23.7442 22.8541C23.7442 22.182 23.1563 21.632 22.4378 21.632Z" fill="#FFC700"/>
</svg>
