<svg width="1524" height="275" viewBox="0 0 1524 275" fill="none" xmlns="http://www.w3.org/2000/svg">
<g clip-path="url(#clip0_0_1)">
<path d="M-17 126.12C61.9767 126.12 126 62.0963 126 -16.8804C126 -95.8571 61.9767 -159.88 -17 -159.88C-95.9767 -159.88 -160 -95.8571 -160 -16.8804C-160 62.0963 -95.9767 126.12 -17 126.12Z" fill="#9F7AEA" fill-opacity="0.1"/>
</g>
<g clip-path="url(#clip1_0_1)">
<path d="M134 119.31C117.431 119.31 104 105.878 104 89.3096C104 72.7411 117.431 59.3096 134 59.3096C150.569 59.3096 164 72.7411 164 89.3096C164 105.878 150.569 119.31 134 119.31Z" fill="#9F7AEA" fill-opacity="0.4"/>
</g>
<g clip-path="url(#clip2_0_1)">
<path d="M310 524.12C392.843 524.12 460 456.962 460 374.12C460 291.277 392.843 224.12 310 224.12C227.157 224.12 160 291.277 160 374.12C160 456.962 227.157 524.12 310 524.12Z" fill="#9F7AEA" fill-opacity="0.2"/>
</g>
<g clip-path="url(#clip3_0_1)">
<path d="M403.705 252.806C403.705 251.783 402.876 250.953 401.853 250.953C400.829 250.953 400 251.783 400 252.806C400 253.829 400.829 254.659 401.853 254.659C402.876 254.659 403.705 253.829 403.705 252.806Z" fill="white"/>
<path d="M403.705 243.913C403.705 242.89 402.876 242.06 401.853 242.06C400.829 242.06 400 242.89 400 243.913C400 244.936 400.829 245.766 401.853 245.766C402.876 245.766 403.705 244.936 403.705 243.913Z" fill="white"/>
<path d="M403.705 235.02C403.705 233.997 402.876 233.167 401.853 233.167C400.829 233.167 400 233.997 400 235.02C400 236.043 400.829 236.873 401.853 236.873C402.876 236.873 403.705 236.043 403.705 235.02Z" fill="white"/>
<path d="M412.599 252.806C412.599 251.783 411.769 250.953 410.746 250.953C409.723 250.953 408.893 251.783 408.893 252.806C408.893 253.829 409.723 254.659 410.746 254.659C411.769 254.659 412.599 253.829 412.599 252.806Z" fill="white"/>
<path d="M412.599 243.913C412.599 242.89 411.769 242.06 410.746 242.06C409.723 242.06 408.893 242.89 408.893 243.913C408.893 244.936 409.723 245.766 410.746 245.766C411.769 245.766 412.599 244.936 412.599 243.913Z" fill="white"/>
<path d="M412.599 235.02C412.599 233.997 411.769 233.167 410.746 233.167C409.723 233.167 408.893 233.997 408.893 235.02C408.893 236.043 409.723 236.873 410.746 236.873C411.769 236.873 412.599 236.043 412.599 235.02Z" fill="white"/>
<path d="M421.492 252.806C421.492 251.783 420.662 250.953 419.639 250.953C418.616 250.953 417.786 251.783 417.786 252.806C417.786 253.829 418.616 254.659 419.639 254.659C420.662 254.659 421.492 253.829 421.492 252.806Z" fill="white"/>
<path d="M421.492 243.913C421.492 242.89 420.662 242.06 419.639 242.06C418.616 242.06 417.786 242.89 417.786 243.913C417.786 244.936 418.616 245.766 419.639 245.766C420.662 245.766 421.492 244.936 421.492 243.913Z" fill="white"/>
<path d="M421.492 235.02C421.492 233.997 420.662 233.167 419.639 233.167C418.616 233.167 417.786 233.997 417.786 235.02C417.786 236.043 418.616 236.873 419.639 236.873C420.662 236.873 421.492 236.043 421.492 235.02Z" fill="white"/>
<path d="M430.385 252.806C430.385 251.783 429.555 250.953 428.532 250.953C427.509 250.953 426.679 251.783 426.679 252.806C426.679 253.829 427.509 254.659 428.532 254.659C429.555 254.659 430.385 253.829 430.385 252.806Z" fill="white"/>
<path d="M430.385 243.913C430.385 242.89 429.555 242.06 428.532 242.06C427.509 242.06 426.679 242.89 426.679 243.913C426.679 244.936 427.509 245.766 428.532 245.766C429.555 245.766 430.385 244.936 430.385 243.913Z" fill="white"/>
<path d="M430.384 235.02C430.384 233.997 429.555 233.167 428.532 233.167C427.508 233.167 426.679 233.997 426.679 235.02C426.679 236.043 427.508 236.873 428.532 236.873C429.555 236.873 430.384 236.043 430.384 235.02Z" fill="white"/>
<path d="M439.278 252.806C439.278 251.783 438.448 250.953 437.425 250.953C436.402 250.953 435.572 251.783 435.572 252.806C435.572 253.829 436.402 254.659 437.425 254.659C438.448 254.659 439.278 253.829 439.278 252.806Z" fill="white"/>
<path d="M439.278 243.913C439.278 242.89 438.448 242.06 437.425 242.06C436.402 242.06 435.572 242.89 435.572 243.913C435.572 244.936 436.402 245.766 437.425 245.766C438.448 245.766 439.278 244.936 439.278 243.913Z" fill="white"/>
<path d="M439.278 235.02C439.278 233.997 438.448 233.167 437.425 233.167C436.402 233.167 435.572 233.997 435.572 235.02C435.572 236.043 436.402 236.873 437.425 236.873C438.448 236.873 439.278 236.043 439.278 235.02Z" fill="white"/>
</g>
<g clip-path="url(#clip4_0_1)">
<path d="M1391.5 121.12C1464.68 121.12 1524 61.7974 1524 -11.3804C1524 -84.5581 1464.68 -143.88 1391.5 -143.88C1318.32 -143.88 1259 -84.5581 1259 -11.3804C1259 61.7974 1318.32 121.12 1391.5 121.12Z" fill="#9F7AEA" fill-opacity="0.3"/>
</g>
<g clip-path="url(#clip5_0_1)">
<path d="M1502.73 226.769C1500.72 226.769 1499.1 228.394 1499.1 230.397C1499.1 232.401 1500.72 234.025 1502.73 234.025C1504.73 234.025 1506.36 232.401 1506.36 230.397C1506.36 228.394 1504.73 226.769 1502.73 226.769Z" fill="white" fill-opacity="0.17"/>
<path d="M1485.32 226.769C1483.31 226.769 1481.69 228.394 1481.69 230.397C1481.69 232.401 1483.31 234.025 1485.32 234.025C1487.32 234.025 1488.94 232.401 1488.94 230.397C1488.94 228.394 1487.32 226.769 1485.32 226.769Z" fill="white" fill-opacity="0.17"/>
<path d="M1467.9 226.769C1465.9 226.769 1464.28 228.394 1464.28 230.397C1464.28 232.401 1465.9 234.025 1467.9 234.025C1469.91 234.025 1471.53 232.401 1471.53 230.397C1471.53 228.394 1469.91 226.769 1467.9 226.769Z" fill="white" fill-opacity="0.17"/>
<path d="M1502.73 209.357C1500.72 209.357 1499.1 210.981 1499.1 212.985C1499.1 214.988 1500.72 216.612 1502.73 216.612C1504.73 216.612 1506.36 214.988 1506.36 212.985C1506.36 210.981 1504.73 209.357 1502.73 209.357Z" fill="white" fill-opacity="0.17"/>
<path d="M1485.32 209.357C1483.31 209.357 1481.69 210.981 1481.69 212.985C1481.69 214.988 1483.31 216.612 1485.32 216.612C1487.32 216.612 1488.94 214.988 1488.94 212.985C1488.94 210.981 1487.32 209.357 1485.32 209.357Z" fill="white" fill-opacity="0.17"/>
<path d="M1467.9 209.357C1465.9 209.357 1464.28 210.981 1464.28 212.985C1464.28 214.988 1465.9 216.612 1467.9 216.612C1469.91 216.612 1471.53 214.988 1471.53 212.985C1471.53 210.981 1469.91 209.357 1467.9 209.357Z" fill="white" fill-opacity="0.17"/>
<path d="M1502.73 191.945C1500.72 191.945 1499.1 193.569 1499.1 195.572C1499.1 197.576 1500.72 199.2 1502.73 199.2C1504.73 199.2 1506.36 197.576 1506.36 195.572C1506.36 193.569 1504.73 191.945 1502.73 191.945Z" fill="white" fill-opacity="0.17"/>
<path d="M1485.32 191.945C1483.31 191.945 1481.69 193.569 1481.69 195.572C1481.69 197.576 1483.31 199.2 1485.32 199.2C1487.32 199.2 1488.94 197.576 1488.94 195.572C1488.94 193.569 1487.32 191.945 1485.32 191.945Z" fill="white" fill-opacity="0.17"/>
<path d="M1467.9 191.945C1465.9 191.945 1464.28 193.569 1464.28 195.572C1464.28 197.576 1465.9 199.2 1467.9 199.2C1469.91 199.2 1471.53 197.576 1471.53 195.572C1471.53 193.569 1469.91 191.945 1467.9 191.945Z" fill="white" fill-opacity="0.17"/>
<path d="M1502.73 174.532C1500.72 174.532 1499.1 176.156 1499.1 178.159C1499.1 180.163 1500.72 181.787 1502.73 181.787C1504.73 181.787 1506.36 180.163 1506.36 178.159C1506.36 176.156 1504.73 174.532 1502.73 174.532Z" fill="white" fill-opacity="0.17"/>
<path d="M1485.32 174.532C1483.31 174.532 1481.69 176.156 1481.69 178.159C1481.69 180.163 1483.31 181.787 1485.32 181.787C1487.32 181.787 1488.94 180.163 1488.94 178.159C1488.94 176.156 1487.32 174.532 1485.32 174.532Z" fill="white" fill-opacity="0.17"/>
<path d="M1467.9 174.532C1465.9 174.532 1464.28 176.156 1464.28 178.159C1464.28 180.163 1465.9 181.787 1467.9 181.787C1469.91 181.787 1471.53 180.163 1471.53 178.159C1471.53 176.156 1469.91 174.532 1467.9 174.532Z" fill="white" fill-opacity="0.17"/>
<path d="M1502.73 157.12C1500.72 157.12 1499.1 158.744 1499.1 160.747C1499.1 162.751 1500.72 164.375 1502.73 164.375C1504.73 164.375 1506.36 162.751 1506.36 160.747C1506.36 158.744 1504.73 157.12 1502.73 157.12Z" fill="white" fill-opacity="0.17"/>
<path d="M1485.32 157.12C1483.31 157.12 1481.69 158.744 1481.69 160.747C1481.69 162.751 1483.31 164.375 1485.32 164.375C1487.32 164.375 1488.94 162.751 1488.94 160.747C1488.94 158.744 1487.32 157.12 1485.32 157.12Z" fill="white" fill-opacity="0.17"/>
<path d="M1467.9 157.12C1465.9 157.12 1464.28 158.744 1464.28 160.747C1464.28 162.751 1465.9 164.375 1467.9 164.375C1469.91 164.375 1471.53 162.751 1471.53 160.747C1471.53 158.744 1469.91 157.12 1467.9 157.12Z" fill="white" fill-opacity="0.17"/>
</g>
<defs>
<clipPath id="clip0_0_1">
<rect width="286" height="286" fill="white" transform="translate(-160 -159.88)"/>
</clipPath>
<clipPath id="clip1_0_1">
<rect width="60" height="60" fill="white" transform="translate(104 59.3096)"/>
</clipPath>
<clipPath id="clip2_0_1">
<rect width="300" height="300" fill="white" transform="translate(160 224.12)"/>
</clipPath>
<clipPath id="clip3_0_1">
<rect width="40" height="40" fill="white" transform="translate(400 224.12)"/>
</clipPath>
<clipPath id="clip4_0_1">
<rect width="265" height="265" fill="white" transform="translate(1259 -143.88)"/>
</clipPath>
<clipPath id="clip5_0_1">
<rect width="77" height="77" fill="white" transform="translate(1447 157.12)"/>
</clipPath>
</defs>
</svg>
