<svg width="25" height="24" viewBox="0 0 25 24" fill="none" xmlns="http://www.w3.org/2000/svg">
<path d="M20.0211 20V13M12.0211 20V10M4.02112 20L4.02112 16M13.4278 5.0275L18.5962 6.96567M10.8199 5.40092L5.22135 9.59983M21.0818 6.43934C21.6676 7.02513 21.6676 7.97487 21.0818 8.56066C20.496 9.14645 19.5462 9.14645 18.9605 8.56066C18.3747 7.97487 18.3747 7.02513 18.9605 6.43934C19.5462 5.85355 20.496 5.85355 21.0818 6.43934ZM5.08178 9.43934C5.66756 10.0251 5.66756 10.9749 5.08178 11.5607C4.49599 12.1464 3.54624 12.1464 2.96046 11.5607C2.37467 10.9749 2.37467 10.0251 2.96046 9.43934C3.54624 8.85355 4.49599 8.85355 5.08178 9.43934ZM13.0818 3.43934C13.6676 4.02513 13.6676 4.97487 13.0818 5.56066C12.496 6.14645 11.5462 6.14645 10.9605 5.56066C10.3747 4.97487 10.3747 4.02513 10.9605 3.43934C11.5462 2.85355 12.496 2.85355 13.0818 3.43934Z" stroke="white" stroke-width="2" stroke-linecap="round" stroke-linejoin="round"/>
</svg>
