<svg width="28" height="23" viewBox="0 0 28 23" fill="none" xmlns="http://www.w3.org/2000/svg">
<g clip-path="url(#clip0_836_91)">
<path d="M26.8425 7.02942V5.07941C26.8425 4.50153 26.2925 4.03296 25.6141 4.03296H1.39791C0.719529 4.03296 0.169472 4.50127 0.169472 5.07916V7.02917H26.8425V7.02942Z" fill="white"/>
<path d="M0.169472 10.2645V17.8948C0.169472 18.4727 0.719529 18.9413 1.39791 18.9413H25.6144C26.2928 18.9413 26.8428 18.4727 26.8428 17.8948V10.2645H0.169472ZM5.85498 15.3409H3.32993C3.00274 15.3409 2.7372 15.1147 2.7372 14.836C2.7372 14.5573 3.00274 14.3311 3.32993 14.3311H5.85498C6.18217 14.3311 6.44771 14.5573 6.44771 14.836C6.44771 15.1147 6.18247 15.3409 5.85498 15.3409ZM10.0041 13.4399H3.32993C3.00274 13.4399 2.7372 13.2137 2.7372 12.935C2.7372 12.6563 3.00274 12.4301 3.32993 12.4301H10.0041C10.3313 12.4301 10.5969 12.6563 10.5969 12.935C10.5969 13.2137 10.3316 13.4399 10.0041 13.4399ZM24.2096 15.9448C24.2096 16.0844 24.0771 16.1973 23.9132 16.1973H17.0876C16.9237 16.1973 16.7912 16.0844 16.7912 15.9448V12.7098C16.7912 12.5702 16.9237 12.4573 17.0876 12.4573H23.9132C24.0771 12.4573 24.2096 12.5702 24.2096 12.7098V15.9448Z" fill="white"/>
</g>
<defs>
<clipPath id="clip0_836_91">
<rect width="27" height="23" fill="white" transform="translate(0.0211182)"/>
</clipPath>
</defs>
</svg>
