<svg width="82" height="81" viewBox="0 0 82 81" fill="none" xmlns="http://www.w3.org/2000/svg">
<rect x="0.160156" width="81" height="81" rx="20" fill="#3BB2F4"/>
<g clip-path="url(#clip0_62_175)">
<path d="M38.7904 38.1858C37.7571 39.1945 37.7571 40.8292 38.7904 41.8372C39.8228 42.8458 41.4984 42.8458 42.5308 41.8372C43.564 40.8286 43.564 39.1937 42.5308 38.1858C41.4976 37.178 39.8228 37.178 38.7904 38.1858ZM40.6602 20C29.338 20 20.1602 28.9594 20.1602 40.0119C20.1602 51.0645 29.338 60.0238 40.6602 60.0238C51.9823 60.0238 61.1602 51.0645 61.1602 40.0119C61.1602 28.9594 51.9823 20 40.6602 20ZM51.0871 31.9466L45.6339 43.5947C45.37 44.158 44.9073 44.6096 44.3303 44.8671L32.399 50.1906C31.0227 50.8045 29.6042 49.42 30.2333 48.0764L35.6872 36.4283C35.951 35.865 36.4138 35.4133 36.9908 35.1558L48.9221 29.8325C50.2984 29.2192 51.716 30.6031 51.0871 31.9466Z" fill="white"/>
</g>
<defs>
<clipPath id="clip0_62_175">
<rect width="41" height="41" fill="white" transform="translate(20.1602 20)"/>
</clipPath>
</defs>
</svg>
