<svg width="24" height="24" viewBox="0 0 24 24" fill="none" xmlns="http://www.w3.org/2000/svg">
<path d="M12 22C17.523 22 22 17.523 22 12C22 6.477 17.523 2 12 2C6.477 2 2 6.477 2 12C2 17.523 6.477 22 12 22ZM12 20.947C9.62711 20.947 7.3514 20.0044 5.67352 18.3265C3.99563 16.6486 3.053 14.3729 3.053 12C3.053 9.62711 3.99563 7.3514 5.67352 5.67352C7.3514 3.99563 9.62711 3.053 12 3.053C14.3729 3.053 16.6486 3.99563 18.3265 5.67352C20.0044 7.3514 20.947 9.62711 20.947 12C20.947 14.3729 20.0044 16.6486 18.3265 18.3265C16.6486 20.0044 14.3729 20.947 12 20.947Z" fill="#FF6C6C"/>
<path d="M14.5 8V7.5C14.5 7.36739 14.4473 7.24021 14.3536 7.14645C14.2598 7.05268 14.1326 7 14 7H10C9.86739 7 9.74021 7.05268 9.64645 7.14645C9.55268 7.24021 9.5 7.36739 9.5 7.5V8H14.5ZM7.5 9H6.5C6.36739 9 6.24021 8.94732 6.14645 8.85355C6.05268 8.75979 6 8.63261 6 8.5C6 8.36739 6.05268 8.24021 6.14645 8.14645C6.24021 8.05268 6.36739 8 6.5 8H8.5V7.5C8.5 7.10218 8.65804 6.72064 8.93934 6.43934C9.22064 6.15804 9.60218 6 10 6H14C14.3978 6 14.7794 6.15804 15.0607 6.43934C15.342 6.72064 15.5 7.10218 15.5 7.5V8H17.5C17.6326 8 17.7598 8.05268 17.8536 8.14645C17.9473 8.24021 18 8.36739 18 8.5C18 8.63261 17.9473 8.75979 17.8536 8.85355C17.7598 8.94732 17.6326 9 17.5 9H16.5V16.5C16.5 16.8978 16.342 17.2794 16.0607 17.5607C15.7794 17.842 15.3978 18 15 18H9C8.60218 18 8.22064 17.842 7.93934 17.5607C7.65804 17.2794 7.5 16.8978 7.5 16.5V9ZM8.5 9V16.5C8.5 16.6326 8.55268 16.7598 8.64645 16.8536C8.74021 16.9473 8.86739 17 9 17H15C15.1326 17 15.2598 16.9473 15.3536 16.8536C15.4473 16.7598 15.5 16.6326 15.5 16.5V9H8.5ZM10.5 10.5C10.6326 10.5 10.7598 10.5527 10.8536 10.6464C10.9473 10.7402 11 10.8674 11 11V15C11 15.1326 10.9473 15.2598 10.8536 15.3536C10.7598 15.4473 10.6326 15.5 10.5 15.5C10.3674 15.5 10.2402 15.4473 10.1464 15.3536C10.0527 15.2598 10 15.1326 10 15V11C10 10.8674 10.0527 10.7402 10.1464 10.6464C10.2402 10.5527 10.3674 10.5 10.5 10.5ZM13.5 10.5C13.6326 10.5 13.7598 10.5527 13.8536 10.6464C13.9473 10.7402 14 10.8674 14 11V15C14 15.1326 13.9473 15.2598 13.8536 15.3536C13.7598 15.4473 13.6326 15.5 13.5 15.5C13.3674 15.5 13.2402 15.4473 13.1464 15.3536C13.0527 15.2598 13 15.1326 13 15V11C13 10.8674 13.0527 10.7402 13.1464 10.6464C13.2402 10.5527 13.3674 10.5 13.5 10.5Z" fill="#FF6C6C"/>
</svg>
