<svg width="374" height="415" viewBox="0 0 374 415" fill="none" xmlns="http://www.w3.org/2000/svg">
<rect width="374" height="415" rx="20" fill="#1D1D41"/>
<path d="M60.5682 285.364V297H59.2273V285.364H60.5682ZM63.0241 297V288.273H64.3651V297H63.0241ZM63.706 286.818C63.4446 286.818 63.2192 286.729 63.0298 286.551C62.8442 286.373 62.7514 286.159 62.7514 285.909C62.7514 285.659 62.8442 285.445 63.0298 285.267C63.2192 285.089 63.4446 285 63.706 285C63.9673 285 64.1908 285.089 64.3764 285.267C64.5658 285.445 64.6605 285.659 64.6605 285.909C64.6605 286.159 64.5658 286.373 64.3764 286.551C64.1908 286.729 63.9673 286.818 63.706 286.818ZM68.071 293.818L68.0483 292.159H68.321L72.1392 288.273H73.7983L69.7301 292.386H69.6165L68.071 293.818ZM66.821 297V285.364H68.1619V297H66.821ZM72.3665 297L68.9574 292.682L69.9119 291.75L74.071 297H72.3665ZM78.8239 297.182C77.983 297.182 77.2576 296.996 76.6477 296.625C76.0417 296.25 75.5739 295.727 75.2443 295.057C74.9186 294.383 74.7557 293.598 74.7557 292.705C74.7557 291.811 74.9186 291.023 75.2443 290.341C75.5739 289.655 76.0322 289.121 76.6193 288.739C77.2102 288.352 77.8996 288.159 78.6875 288.159C79.142 288.159 79.5909 288.235 80.0341 288.386C80.4773 288.538 80.8807 288.784 81.2443 289.125C81.608 289.462 81.8977 289.909 82.1136 290.466C82.3295 291.023 82.4375 291.708 82.4375 292.523V293.091H75.7102V291.932H81.0739C81.0739 291.439 80.9754 291 80.7784 290.614C80.5852 290.227 80.3087 289.922 79.9489 289.699C79.5928 289.475 79.1723 289.364 78.6875 289.364C78.1534 289.364 77.6913 289.496 77.3011 289.761C76.9148 290.023 76.6174 290.364 76.4091 290.784C76.2008 291.205 76.0966 291.655 76.0966 292.136V292.909C76.0966 293.568 76.2102 294.127 76.4375 294.585C76.6686 295.04 76.9886 295.386 77.3977 295.625C77.8068 295.86 78.2822 295.977 78.8239 295.977C79.1761 295.977 79.4943 295.928 79.7784 295.83C80.0663 295.727 80.3144 295.576 80.5227 295.375C80.7311 295.17 80.892 294.917 81.0057 294.614L82.3011 294.977C82.1648 295.417 81.9356 295.803 81.6136 296.136C81.2917 296.466 80.8939 296.723 80.4205 296.909C79.947 297.091 79.4148 297.182 78.8239 297.182ZM90.6591 290.227L89.4545 290.568C89.3788 290.367 89.267 290.172 89.1193 289.983C88.9754 289.79 88.7784 289.631 88.5284 289.506C88.2784 289.381 87.9583 289.318 87.5682 289.318C87.0341 289.318 86.589 289.441 86.233 289.688C85.8807 289.93 85.7045 290.239 85.7045 290.614C85.7045 290.947 85.8258 291.21 86.0682 291.403C86.3106 291.597 86.6894 291.758 87.2045 291.886L88.5 292.205C89.2803 292.394 89.8617 292.684 90.2443 293.074C90.6269 293.46 90.8182 293.958 90.8182 294.568C90.8182 295.068 90.6742 295.515 90.3864 295.909C90.1023 296.303 89.7045 296.614 89.1932 296.841C88.6818 297.068 88.0871 297.182 87.4091 297.182C86.5189 297.182 85.7822 296.989 85.1989 296.602C84.6155 296.216 84.2462 295.652 84.0909 294.909L85.3636 294.591C85.4848 295.061 85.714 295.413 86.0511 295.648C86.392 295.883 86.8371 296 87.3864 296C88.0114 296 88.5076 295.867 88.875 295.602C89.2462 295.333 89.4318 295.011 89.4318 294.636C89.4318 294.333 89.3258 294.08 89.1136 293.875C88.9015 293.667 88.5758 293.511 88.1364 293.409L86.6818 293.068C85.8826 292.879 85.2955 292.585 84.9205 292.188C84.5492 291.786 84.3636 291.284 84.3636 290.682C84.3636 290.189 84.5019 289.754 84.7784 289.375C85.0587 288.996 85.4394 288.699 85.9205 288.483C86.4053 288.267 86.9545 288.159 87.5682 288.159C88.4318 288.159 89.1098 288.348 89.6023 288.727C90.0985 289.106 90.4508 289.606 90.6591 290.227Z" fill="white"/>
<rect x="277.5" y="19.5" width="74" height="26" rx="9.5" stroke="#8C89B4" stroke-opacity="0.5"/>
<path d="M290.932 38L287.812 30.692V38H286.972V29.384H288.136L291.328 36.896L294.544 29.384H295.696V38H294.868V30.692L291.724 38H290.932ZM300.108 38.12C299.676 38.12 299.276 38.04 298.908 37.88C298.54 37.72 298.22 37.492 297.948 37.196C297.684 36.9 297.476 36.552 297.324 36.152C297.18 35.752 297.108 35.312 297.108 34.832C297.108 34.36 297.18 33.924 297.324 33.524C297.476 33.124 297.684 32.78 297.948 32.492C298.22 32.196 298.54 31.968 298.908 31.808C299.276 31.648 299.676 31.568 300.108 31.568C300.548 31.568 300.952 31.648 301.32 31.808C301.688 31.968 302.004 32.196 302.268 32.492C302.54 32.78 302.748 33.124 302.892 33.524C303.044 33.924 303.12 34.36 303.12 34.832C303.12 35.312 303.044 35.752 302.892 36.152C302.748 36.552 302.54 36.9 302.268 37.196C302.004 37.492 301.688 37.72 301.32 37.88C300.952 38.04 300.548 38.12 300.108 38.12ZM300.108 37.4C300.524 37.4 300.892 37.296 301.212 37.088C301.54 36.872 301.796 36.572 301.98 36.188C302.172 35.804 302.268 35.352 302.268 34.832C302.268 34.312 302.172 33.864 301.98 33.488C301.796 33.112 301.54 32.82 301.212 32.612C300.892 32.404 300.524 32.3 300.108 32.3C299.7 32.3 299.332 32.404 299.004 32.612C298.684 32.82 298.428 33.112 298.236 33.488C298.052 33.864 297.96 34.312 297.96 34.832C297.96 35.352 298.052 35.804 298.236 36.188C298.428 36.572 298.684 36.872 299.004 37.088C299.332 37.296 299.7 37.4 300.108 37.4ZM305.318 34.316V38H304.478V31.676H305.258V32.864C305.466 32.48 305.75 32.168 306.11 31.928C306.478 31.68 306.89 31.556 307.346 31.556C308.002 31.556 308.526 31.76 308.918 32.168C309.318 32.576 309.518 33.152 309.518 33.896V38H308.678V34.184C308.678 33.576 308.542 33.108 308.27 32.78C308.006 32.452 307.614 32.288 307.094 32.288C306.766 32.288 306.466 32.376 306.194 32.552C305.922 32.72 305.706 32.956 305.546 33.26C305.394 33.564 305.318 33.916 305.318 34.316ZM314.527 37.196V37.94C314.367 38.012 314.215 38.06 314.071 38.084C313.927 38.108 313.775 38.12 313.615 38.12C313.271 38.12 312.959 38.056 312.679 37.928C312.399 37.8 312.175 37.596 312.007 37.316C311.847 37.036 311.767 36.668 311.767 36.212V32.384H310.279V31.676H311.767V29.804H312.607V31.676H314.587V32.384H312.607V36.032C312.607 36.528 312.715 36.872 312.931 37.064C313.155 37.256 313.439 37.352 313.783 37.352C313.919 37.352 314.043 37.34 314.155 37.316C314.275 37.292 314.399 37.252 314.527 37.196ZM316.697 34.316V38H315.857V29.384H316.697V32.84C316.889 32.464 317.161 32.156 317.513 31.916C317.865 31.676 318.269 31.556 318.725 31.556C319.381 31.556 319.905 31.76 320.297 32.168C320.697 32.576 320.897 33.152 320.897 33.896V38H320.057V34.184C320.057 33.576 319.921 33.108 319.649 32.78C319.385 32.452 318.993 32.288 318.473 32.288C318.145 32.288 317.845 32.376 317.573 32.552C317.301 32.72 317.085 32.956 316.925 33.26C316.773 33.564 316.697 33.916 316.697 34.316Z" fill="#AEABD8"/>
<path d="M336 31L340.333 35L344 31" stroke="#AEABD8"/>
<path d="M319 248.5C324.523 248.5 329.037 244.016 328.641 238.508C326.183 204.366 311.195 172.096 286.238 147.737C258.857 121.013 221.722 106 183 106C144.278 106 107.143 121.013 79.7624 147.737C54.8052 172.096 39.8166 204.366 37.3591 238.508C36.9626 244.016 41.4772 248.5 47 248.5L76.2317 248.5C81.7545 248.5 86.1756 244.009 86.7732 238.519C89.1005 217.139 98.8536 197.059 114.574 181.715C132.722 164.002 157.335 154.051 183 154.051C208.665 154.051 233.278 164.002 251.426 181.715C267.146 197.059 276.9 217.139 279.227 238.519C279.824 244.009 284.245 248.5 289.768 248.5H319Z" fill="#3A3A5A"/>
<path d="M225.249 121.778C226.898 116.452 223.878 110.772 218.436 109.561C199.625 105.378 180.116 104.867 161.041 108.098C138.626 111.894 117.43 120.75 99.1432 133.96C80.8568 147.169 65.9862 164.367 55.7178 184.182C46.9939 201.016 41.7968 219.342 40.39 238.091C39.9767 243.599 44.4786 248.096 50.002 248.112L79.6419 248.196C85.1641 248.212 89.5976 243.735 90.2142 238.248C91.4718 227.055 94.7818 216.146 100.014 206.05C106.791 192.973 116.605 181.622 128.675 172.903C140.744 164.185 154.733 158.34 169.527 155.834C181.068 153.88 192.849 154 204.296 156.161C209.671 157.175 215.184 154.274 216.802 149.049L225.249 121.778Z" fill="#6359E9"/>
<path d="M310.685 203.325C315.949 201.462 318.7 195.632 316.383 190.551C305.925 167.62 289.417 147.732 268.468 132.968C247.415 118.132 222.74 109.078 197.011 106.658C191.517 106.141 186.917 110.522 186.76 116.037L185.953 144.477C185.796 150.003 190.165 154.555 195.648 155.264C211.398 157.299 226.444 163.112 239.409 172.249C252.364 181.379 262.746 193.479 269.681 207.417C272.114 212.308 277.724 214.986 282.874 213.164L310.685 203.325Z" fill="#64CFF6"/>
<path d="M36.512 34.592H44.528L45.248 36.728H35.624L36.512 34.592ZM45.728 41L40.472 26.648L35.144 41H32.48L39.08 23.768H41.984L48.536 41H45.728ZM55.0085 41.264C53.8405 41.264 52.8085 40.984 51.9125 40.424C51.0325 39.864 50.3365 39.088 49.8245 38.096C49.3285 37.088 49.0805 35.936 49.0805 34.64C49.0805 33.36 49.3365 32.224 49.8485 31.232C50.3605 30.24 51.0645 29.464 51.9605 28.904C52.8565 28.328 53.8725 28.04 55.0085 28.04C56.0645 28.04 57.0005 28.264 57.8165 28.712C58.6485 29.144 59.3285 29.768 59.8565 30.584C60.4005 31.384 60.7445 32.336 60.8885 33.44H58.3445C58.2165 32.416 57.8565 31.616 57.2645 31.04C56.6725 30.464 55.9285 30.176 55.0325 30.176C54.3285 30.176 53.7205 30.368 53.2085 30.752C52.6965 31.12 52.2965 31.632 52.0085 32.288C51.7205 32.944 51.5765 33.728 51.5765 34.64C51.5765 35.536 51.7205 36.32 52.0085 36.992C52.2965 37.664 52.6965 38.184 53.2085 38.552C53.7205 38.92 54.3285 39.104 55.0325 39.104C55.9445 39.104 56.6885 38.816 57.2645 38.24C57.8565 37.664 58.2245 36.864 58.3685 35.84H60.8885C60.7605 36.96 60.4325 37.928 59.9045 38.744C59.3765 39.544 58.6965 40.168 57.8645 40.616C57.0325 41.048 56.0805 41.264 55.0085 41.264ZM70.5044 38.648V40.784C70.1364 40.96 69.7764 41.08 69.4244 41.144C69.0884 41.208 68.7284 41.24 68.3444 41.24C67.5604 41.24 66.8644 41.096 66.2564 40.808C65.6644 40.52 65.2004 40.072 64.8644 39.464C64.5284 38.856 64.3604 38.088 64.3604 37.16V30.344H61.5524V28.28H64.3604V24.512H66.7844V28.28H70.6244V30.344H66.7844V36.608C66.7844 37.488 66.9764 38.104 67.3604 38.456C67.7604 38.808 68.2804 38.984 68.9204 38.984C69.2084 38.984 69.4804 38.96 69.7364 38.912C70.0084 38.848 70.2644 38.76 70.5044 38.648ZM75.3618 41H72.9378V28.28H75.3618V41ZM75.8898 25.328C75.8898 25.776 75.7218 26.16 75.3858 26.48C75.0658 26.784 74.6498 26.936 74.1378 26.936C73.6098 26.936 73.1778 26.784 72.8418 26.48C72.5218 26.16 72.3618 25.776 72.3618 25.328C72.3618 24.848 72.5218 24.464 72.8418 24.176C73.1778 23.872 73.6098 23.72 74.1378 23.72C74.6498 23.72 75.0658 23.872 75.3858 24.176C75.7218 24.464 75.8898 24.848 75.8898 25.328ZM89.2869 28.28L84.5109 41H81.8709L77.0949 28.28H79.7109L83.2389 38.216L86.8149 28.28H89.2869ZM93.4321 41H91.0081V28.28H93.4321V41ZM93.9601 25.328C93.9601 25.776 93.7921 26.16 93.4561 26.48C93.1361 26.784 92.7201 26.936 92.2081 26.936C91.6801 26.936 91.2481 26.784 90.9121 26.48C90.5921 26.16 90.4321 25.776 90.4321 25.328C90.4321 24.848 90.5921 24.464 90.9121 24.176C91.2481 23.872 91.6801 23.72 92.2081 23.72C92.7201 23.72 93.1361 23.872 93.4561 24.176C93.7921 24.464 93.9601 24.848 93.9601 25.328ZM103.973 38.648V40.784C103.605 40.96 103.245 41.08 102.893 41.144C102.557 41.208 102.197 41.24 101.813 41.24C101.029 41.24 100.333 41.096 99.7252 40.808C99.1332 40.52 98.6692 40.072 98.3332 39.464C97.9972 38.856 97.8292 38.088 97.8292 37.16V30.344H95.0212V28.28H97.8292V24.512H100.253V28.28H104.093V30.344H100.253V36.608C100.253 37.488 100.445 38.104 100.829 38.456C101.229 38.808 101.749 38.984 102.389 38.984C102.677 38.984 102.949 38.96 103.205 38.912C103.477 38.848 103.733 38.76 103.973 38.648ZM116.967 28.28L110.607 45.632H107.967L109.791 40.832L104.775 28.28H107.391L111.087 37.976L114.519 28.28H116.967Z" fill="white"/>
<path d="M172.216 204.2L166.432 218H162.016L167.632 205.472H160.432V201.776H172.216V204.2ZM179.292 218.24C178.076 218.24 176.972 218.008 175.98 217.544C175.004 217.08 174.228 216.448 173.652 215.648C173.076 214.832 172.764 213.904 172.716 212.864H176.868C176.98 213.424 177.244 213.848 177.66 214.136C178.092 214.408 178.628 214.544 179.268 214.544C179.844 214.544 180.284 214.44 180.588 214.232C180.908 214.024 181.124 213.768 181.236 213.464C181.364 213.16 181.428 212.864 181.428 212.576C181.428 212.272 181.356 211.968 181.212 211.664C181.084 211.36 180.852 211.104 180.516 210.896C180.18 210.672 179.708 210.56 179.1 210.56C178.524 210.56 178.028 210.68 177.612 210.92C177.196 211.16 176.9 211.536 176.724 212.048L173.292 210.896L174.732 201.776H184.716V205.472H177.732L177.396 207.56C177.764 207.384 178.156 207.256 178.572 207.176C178.988 207.08 179.404 207.032 179.82 207.032C181.196 207.032 182.316 207.304 183.18 207.848C184.044 208.392 184.676 209.096 185.076 209.96C185.492 210.808 185.7 211.688 185.7 212.6C185.7 213.256 185.572 213.92 185.316 214.592C185.06 215.248 184.668 215.856 184.14 216.416C183.612 216.96 182.948 217.4 182.148 217.736C181.348 218.072 180.396 218.24 179.292 218.24ZM192.107 211.712C191.083 211.712 190.155 211.488 189.323 211.04C188.507 210.576 187.859 209.96 187.379 209.192C186.899 208.424 186.659 207.584 186.659 206.672C186.659 205.744 186.899 204.904 187.379 204.152C187.859 203.384 188.507 202.776 189.323 202.328C190.155 201.864 191.083 201.632 192.107 201.632C193.131 201.632 194.051 201.864 194.867 202.328C195.699 202.776 196.355 203.384 196.835 204.152C197.315 204.904 197.555 205.744 197.555 206.672C197.555 207.584 197.315 208.424 196.835 209.192C196.355 209.96 195.699 210.576 194.867 211.04C194.051 211.488 193.131 211.712 192.107 211.712ZM192.107 208.808C192.491 208.808 192.843 208.736 193.163 208.592C193.483 208.432 193.739 208.192 193.931 207.872C194.123 207.552 194.219 207.152 194.219 206.672C194.219 206.176 194.123 205.776 193.931 205.472C193.739 205.152 193.483 204.92 193.163 204.776C192.843 204.616 192.491 204.536 192.107 204.536C191.739 204.536 191.387 204.616 191.051 204.776C190.731 204.92 190.467 205.152 190.259 205.472C190.067 205.776 189.971 206.176 189.971 206.672C189.971 207.152 190.067 207.552 190.259 207.872C190.467 208.192 190.731 208.432 191.051 208.592C191.387 208.736 191.739 208.808 192.107 208.808ZM196.571 218H193.331L202.595 201.776H205.835L196.571 218ZM207.563 218.216C206.539 218.216 205.611 217.992 204.779 217.544C203.963 217.08 203.315 216.464 202.835 215.696C202.355 214.928 202.115 214.088 202.115 213.176C202.115 212.248 202.355 211.408 202.835 210.656C203.315 209.888 203.963 209.28 204.779 208.832C205.611 208.368 206.539 208.136 207.563 208.136C208.587 208.136 209.507 208.368 210.323 208.832C211.155 209.28 211.811 209.888 212.291 210.656C212.771 211.408 213.011 212.248 213.011 213.176C213.011 214.088 212.771 214.928 212.291 215.696C211.811 216.464 211.155 217.08 210.323 217.544C209.507 217.992 208.587 218.216 207.563 218.216ZM207.563 215.312C207.947 215.312 208.299 215.24 208.619 215.096C208.939 214.936 209.195 214.696 209.387 214.376C209.579 214.056 209.675 213.656 209.675 213.176C209.675 212.68 209.579 212.28 209.387 211.976C209.195 211.656 208.939 211.424 208.619 211.28C208.299 211.12 207.947 211.04 207.563 211.04C207.195 211.04 206.843 211.12 206.507 211.28C206.187 211.424 205.923 211.656 205.715 211.976C205.523 212.28 205.427 212.68 205.427 213.176C205.427 213.656 205.523 214.056 205.715 214.376C205.923 214.696 206.187 214.936 206.507 215.096C206.843 215.24 207.195 215.312 207.563 215.312Z" fill="white"/>
<circle cx="44" cy="291" r="6" fill="#661EFF"/>
<circle cx="264" cy="291" r="6" fill="#64CFF6"/>
<path d="M61.968 322.18C61.176 322.18 60.462 322.024 59.826 321.712C59.19 321.388 58.68 320.95 58.296 320.398C57.924 319.834 57.72 319.192 57.684 318.472H59.502C59.574 319.12 59.832 319.63 60.276 320.002C60.72 320.362 61.284 320.542 61.968 320.542C62.52 320.542 62.982 320.44 63.354 320.236C63.726 320.02 64.002 319.732 64.182 319.372C64.374 319 64.47 318.58 64.47 318.112C64.47 317.692 64.368 317.302 64.164 316.942C63.972 316.582 63.69 316.294 63.318 316.078C62.946 315.862 62.49 315.754 61.95 315.754C61.41 315.754 60.936 315.868 60.528 316.096C60.132 316.312 59.808 316.642 59.556 317.086L58.08 316.618L59.16 309.832H65.658V311.452H60.474L59.934 314.962C60.282 314.698 60.648 314.5 61.032 314.368C61.416 314.236 61.812 314.17 62.22 314.17C63.12 314.17 63.876 314.356 64.488 314.728C65.1 315.088 65.562 315.568 65.874 316.168C66.198 316.768 66.36 317.416 66.36 318.112C66.36 318.652 66.264 319.168 66.072 319.66C65.88 320.152 65.592 320.59 65.208 320.974C64.836 321.346 64.38 321.64 63.84 321.856C63.3 322.072 62.676 322.18 61.968 322.18ZM71.9524 322.18C71.1604 322.18 70.4464 322.024 69.8104 321.712C69.1744 321.388 68.6644 320.95 68.2804 320.398C67.9084 319.834 67.7044 319.192 67.6684 318.472H69.4864C69.5584 319.12 69.8164 319.63 70.2604 320.002C70.7044 320.362 71.2684 320.542 71.9524 320.542C72.5044 320.542 72.9664 320.44 73.3384 320.236C73.7104 320.02 73.9864 319.732 74.1664 319.372C74.3584 319 74.4544 318.58 74.4544 318.112C74.4544 317.692 74.3524 317.302 74.1484 316.942C73.9564 316.582 73.6744 316.294 73.3024 316.078C72.9304 315.862 72.4744 315.754 71.9344 315.754C71.3944 315.754 70.9204 315.868 70.5124 316.096C70.1164 316.312 69.7924 316.642 69.5404 317.086L68.0644 316.618L69.1444 309.832H75.6424V311.452H70.4584L69.9184 314.962C70.2664 314.698 70.6324 314.5 71.0164 314.368C71.4004 314.236 71.7964 314.17 72.2044 314.17C73.1044 314.17 73.8604 314.356 74.4724 314.728C75.0844 315.088 75.5464 315.568 75.8584 316.168C76.1824 316.768 76.3444 317.416 76.3444 318.112C76.3444 318.652 76.2484 319.168 76.0564 319.66C75.8644 320.152 75.5764 320.59 75.1924 320.974C74.8204 321.346 74.3644 321.64 73.8244 321.856C73.2844 322.072 72.6604 322.18 71.9524 322.18ZM81.2888 317.284C80.5568 317.284 79.9028 317.116 79.3268 316.78C78.7628 316.444 78.3188 315.988 77.9948 315.412C77.6708 314.836 77.5088 314.2 77.5088 313.504C77.5088 312.808 77.6708 312.178 77.9948 311.614C78.3188 311.038 78.7628 310.582 79.3268 310.246C79.9028 309.898 80.5568 309.724 81.2888 309.724C82.0328 309.724 82.6868 309.898 83.2508 310.246C83.8268 310.582 84.2768 311.038 84.6008 311.614C84.9248 312.178 85.0868 312.808 85.0868 313.504C85.0868 314.2 84.9248 314.836 84.6008 315.412C84.2768 315.988 83.8268 316.444 83.2508 316.78C82.6868 317.116 82.0328 317.284 81.2888 317.284ZM81.2888 315.97C81.7088 315.97 82.0868 315.874 82.4228 315.682C82.7588 315.49 83.0288 315.214 83.2328 314.854C83.4488 314.482 83.5568 314.032 83.5568 313.504C83.5568 312.964 83.4488 312.514 83.2328 312.154C83.0288 311.782 82.7588 311.506 82.4228 311.326C82.0868 311.134 81.7088 311.038 81.2888 311.038C80.8928 311.038 80.5208 311.134 80.1728 311.326C79.8248 311.506 79.5488 311.782 79.3447 312.154C79.1408 312.514 79.0388 312.964 79.0388 313.504C79.0388 314.032 79.1408 314.482 79.3447 314.854C79.5488 315.214 79.8248 315.49 80.1728 315.682C80.5208 315.874 80.8928 315.97 81.2888 315.97ZM83.8808 322H82.3868L89.2628 309.832H90.7568L83.8808 322ZM92.0528 322.144C91.3208 322.144 90.6668 321.976 90.0908 321.64C89.5268 321.304 89.0828 320.848 88.7588 320.272C88.4348 319.696 88.2728 319.06 88.2728 318.364C88.2728 317.668 88.4348 317.038 88.7588 316.474C89.0828 315.898 89.5268 315.442 90.0908 315.106C90.6668 314.758 91.3208 314.584 92.0528 314.584C92.7848 314.584 93.4328 314.758 93.9968 315.106C94.5728 315.442 95.0228 315.898 95.3468 316.474C95.6708 317.038 95.8328 317.668 95.8328 318.364C95.8328 319.06 95.6708 319.696 95.3468 320.272C95.0228 320.848 94.5728 321.304 93.9968 321.64C93.4328 321.976 92.7848 322.144 92.0528 322.144ZM92.0528 320.83C92.4608 320.83 92.8328 320.74 93.1688 320.56C93.5168 320.368 93.7928 320.086 93.9968 319.714C94.2008 319.342 94.3028 318.892 94.3028 318.364C94.3028 317.824 94.2008 317.374 93.9968 317.014C93.7928 316.654 93.5168 316.384 93.1688 316.204C92.8328 316.012 92.4608 315.916 92.0528 315.916C91.6448 315.916 91.2668 316.012 90.9188 316.204C90.5828 316.384 90.3068 316.654 90.0908 317.014C89.8868 317.374 89.7848 317.824 89.7848 318.364C89.7848 318.892 89.8868 319.342 90.0908 319.714C90.3068 320.086 90.5828 320.368 90.9188 320.56C91.2668 320.74 91.6448 320.83 92.0528 320.83Z" fill="white"/>
<path d="M289.802 320.38V322H281.936V320.956L285.734 316.852C286.214 316.324 286.598 315.868 286.886 315.484C287.186 315.088 287.402 314.722 287.534 314.386C287.666 314.05 287.732 313.702 287.732 313.342C287.732 312.934 287.642 312.574 287.462 312.262C287.294 311.95 287.054 311.71 286.742 311.542C286.43 311.374 286.064 311.29 285.644 311.29C285.188 311.29 284.792 311.38 284.456 311.56C284.132 311.74 283.874 311.998 283.682 312.334C283.49 312.67 283.394 313.066 283.394 313.522H281.612C281.612 312.766 281.786 312.1 282.134 311.524C282.494 310.936 282.98 310.48 283.592 310.156C284.204 309.82 284.912 309.652 285.716 309.652C286.472 309.652 287.144 309.802 287.732 310.102C288.332 310.402 288.8 310.816 289.136 311.344C289.472 311.86 289.64 312.454 289.64 313.126C289.64 313.582 289.568 314.02 289.424 314.44C289.28 314.848 289.028 315.298 288.668 315.79C288.308 316.282 287.792 316.888 287.12 317.608L284.672 320.38H289.802ZM291.48 315.934C291.48 313.918 291.864 312.37 292.632 311.29C293.412 310.198 294.522 309.652 295.962 309.652C297.402 309.652 298.512 310.198 299.292 311.29C300.072 312.37 300.462 313.918 300.462 315.934C300.462 317.95 300.072 319.498 299.292 320.578C298.524 321.646 297.414 322.18 295.962 322.18C294.51 322.18 293.4 321.646 292.632 320.578C291.864 319.498 291.48 317.95 291.48 315.934ZM293.352 315.934C293.352 317.434 293.574 318.58 294.018 319.372C294.462 320.152 295.11 320.542 295.962 320.542C296.814 320.542 297.462 320.152 297.906 319.372C298.362 318.592 298.59 317.446 298.59 315.934C298.59 314.41 298.362 313.258 297.906 312.478C297.462 311.686 296.814 311.29 295.962 311.29C295.122 311.29 294.474 311.686 294.018 312.478C293.574 313.258 293.352 314.41 293.352 315.934ZM305.658 317.284C304.926 317.284 304.272 317.116 303.696 316.78C303.132 316.444 302.688 315.988 302.364 315.412C302.04 314.836 301.878 314.2 301.878 313.504C301.878 312.808 302.04 312.178 302.364 311.614C302.688 311.038 303.132 310.582 303.696 310.246C304.272 309.898 304.926 309.724 305.658 309.724C306.402 309.724 307.056 309.898 307.62 310.246C308.196 310.582 308.646 311.038 308.97 311.614C309.294 312.178 309.456 312.808 309.456 313.504C309.456 314.2 309.294 314.836 308.97 315.412C308.646 315.988 308.196 316.444 307.62 316.78C307.056 317.116 306.402 317.284 305.658 317.284ZM305.658 315.97C306.078 315.97 306.456 315.874 306.792 315.682C307.128 315.49 307.398 315.214 307.602 314.854C307.818 314.482 307.926 314.032 307.926 313.504C307.926 312.964 307.818 312.514 307.602 312.154C307.398 311.782 307.128 311.506 306.792 311.326C306.456 311.134 306.078 311.038 305.658 311.038C305.262 311.038 304.89 311.134 304.542 311.326C304.194 311.506 303.918 311.782 303.714 312.154C303.51 312.514 303.408 312.964 303.408 313.504C303.408 314.032 303.51 314.482 303.714 314.854C303.918 315.214 304.194 315.49 304.542 315.682C304.89 315.874 305.262 315.97 305.658 315.97ZM308.25 322H306.756L313.632 309.832H315.126L308.25 322ZM316.422 322.144C315.69 322.144 315.036 321.976 314.46 321.64C313.896 321.304 313.452 320.848 313.128 320.272C312.804 319.696 312.642 319.06 312.642 318.364C312.642 317.668 312.804 317.038 313.128 316.474C313.452 315.898 313.896 315.442 314.46 315.106C315.036 314.758 315.69 314.584 316.422 314.584C317.154 314.584 317.802 314.758 318.366 315.106C318.942 315.442 319.392 315.898 319.716 316.474C320.04 317.038 320.202 317.668 320.202 318.364C320.202 319.06 320.04 319.696 319.716 320.272C319.392 320.848 318.942 321.304 318.366 321.64C317.802 321.976 317.154 322.144 316.422 322.144ZM316.422 320.83C316.83 320.83 317.202 320.74 317.538 320.56C317.886 320.368 318.162 320.086 318.366 319.714C318.57 319.342 318.672 318.892 318.672 318.364C318.672 317.824 318.57 317.374 318.366 317.014C318.162 316.654 317.886 316.384 317.538 316.204C317.202 316.012 316.83 315.916 316.422 315.916C316.014 315.916 315.636 316.012 315.288 316.204C314.952 316.384 314.676 316.654 314.46 317.014C314.256 317.374 314.154 317.824 314.154 318.364C314.154 318.892 314.256 319.342 314.46 319.714C314.676 320.086 314.952 320.368 315.288 320.56C315.636 320.74 316.014 320.83 316.422 320.83Z" fill="white"/>
<path d="M285.523 297.182C284.795 297.182 284.153 296.998 283.597 296.631C283.04 296.259 282.604 295.737 282.29 295.062C281.975 294.384 281.818 293.583 281.818 292.659C281.818 291.742 281.975 290.947 282.29 290.273C282.604 289.598 283.042 289.078 283.602 288.71C284.163 288.343 284.811 288.159 285.545 288.159C286.114 288.159 286.563 288.254 286.892 288.443C287.225 288.629 287.479 288.841 287.653 289.08C287.831 289.314 287.97 289.508 288.068 289.659H288.182V285.364H289.523V297H288.227V295.659H288.068C287.97 295.818 287.83 296.019 287.648 296.261C287.466 296.5 287.206 296.714 286.869 296.903C286.532 297.089 286.083 297.182 285.523 297.182ZM285.705 295.977C286.242 295.977 286.697 295.837 287.068 295.557C287.439 295.273 287.722 294.881 287.915 294.381C288.108 293.877 288.205 293.295 288.205 292.636C288.205 291.985 288.11 291.415 287.92 290.926C287.731 290.434 287.451 290.051 287.08 289.778C286.708 289.502 286.25 289.364 285.705 289.364C285.136 289.364 284.663 289.509 284.284 289.801C283.909 290.089 283.627 290.481 283.438 290.977C283.252 291.47 283.159 292.023 283.159 292.636C283.159 293.258 283.254 293.822 283.443 294.33C283.636 294.833 283.92 295.235 284.295 295.534C284.674 295.83 285.144 295.977 285.705 295.977ZM292.165 297V288.273H293.506V297H292.165ZM292.847 286.818C292.585 286.818 292.36 286.729 292.17 286.551C291.985 286.373 291.892 286.159 291.892 285.909C291.892 285.659 291.985 285.445 292.17 285.267C292.36 285.089 292.585 285 292.847 285C293.108 285 293.331 285.089 293.517 285.267C293.706 285.445 293.801 285.659 293.801 285.909C293.801 286.159 293.706 286.373 293.517 286.551C293.331 286.729 293.108 286.818 292.847 286.818ZM302.143 290.227L300.939 290.568C300.863 290.367 300.751 290.172 300.604 289.983C300.46 289.79 300.263 289.631 300.013 289.506C299.763 289.381 299.443 289.318 299.053 289.318C298.518 289.318 298.073 289.441 297.717 289.688C297.365 289.93 297.189 290.239 297.189 290.614C297.189 290.947 297.31 291.21 297.553 291.403C297.795 291.597 298.174 291.758 298.689 291.886L299.984 292.205C300.765 292.394 301.346 292.684 301.729 293.074C302.111 293.46 302.303 293.958 302.303 294.568C302.303 295.068 302.159 295.515 301.871 295.909C301.587 296.303 301.189 296.614 300.678 296.841C300.166 297.068 299.571 297.182 298.893 297.182C298.003 297.182 297.267 296.989 296.683 296.602C296.1 296.216 295.731 295.652 295.575 294.909L296.848 294.591C296.969 295.061 297.198 295.413 297.536 295.648C297.876 295.883 298.321 296 298.871 296C299.496 296 299.992 295.867 300.359 295.602C300.731 295.333 300.916 295.011 300.916 294.636C300.916 294.333 300.81 294.08 300.598 293.875C300.386 293.667 300.06 293.511 299.621 293.409L298.166 293.068C297.367 292.879 296.78 292.585 296.405 292.188C296.034 291.786 295.848 291.284 295.848 290.682C295.848 290.189 295.986 289.754 296.263 289.375C296.543 288.996 296.924 288.699 297.405 288.483C297.89 288.267 298.439 288.159 299.053 288.159C299.916 288.159 300.594 288.348 301.087 288.727C301.583 289.106 301.935 289.606 302.143 290.227ZM305.662 285.364V297H304.321V285.364H305.662ZM308.118 297V288.273H309.459V297H308.118ZM308.8 286.818C308.538 286.818 308.313 286.729 308.124 286.551C307.938 286.373 307.845 286.159 307.845 285.909C307.845 285.659 307.938 285.445 308.124 285.267C308.313 285.089 308.538 285 308.8 285C309.061 285 309.285 285.089 309.47 285.267C309.66 285.445 309.754 285.659 309.754 285.909C309.754 286.159 309.66 286.373 309.47 286.551C309.285 286.729 309.061 286.818 308.8 286.818ZM313.165 293.818L313.142 292.159H313.415L317.233 288.273H318.892L314.824 292.386H314.71L313.165 293.818ZM311.915 297V285.364H313.256V297H311.915ZM317.46 297L314.051 292.682L315.006 291.75L319.165 297H317.46ZM323.918 297.182C323.077 297.182 322.351 296.996 321.741 296.625C321.135 296.25 320.668 295.727 320.338 295.057C320.012 294.383 319.849 293.598 319.849 292.705C319.849 291.811 320.012 291.023 320.338 290.341C320.668 289.655 321.126 289.121 321.713 288.739C322.304 288.352 322.993 288.159 323.781 288.159C324.236 288.159 324.685 288.235 325.128 288.386C325.571 288.538 325.974 288.784 326.338 289.125C326.702 289.462 326.991 289.909 327.207 290.466C327.423 291.023 327.531 291.708 327.531 292.523V293.091H320.804V291.932H326.168C326.168 291.439 326.069 291 325.872 290.614C325.679 290.227 325.402 289.922 325.043 289.699C324.687 289.475 324.266 289.364 323.781 289.364C323.247 289.364 322.785 289.496 322.395 289.761C322.009 290.023 321.711 290.364 321.503 290.784C321.295 291.205 321.19 291.655 321.19 292.136V292.909C321.19 293.568 321.304 294.127 321.531 294.585C321.762 295.04 322.082 295.386 322.491 295.625C322.901 295.86 323.376 295.977 323.918 295.977C324.27 295.977 324.588 295.928 324.872 295.83C325.16 295.727 325.408 295.576 325.616 295.375C325.825 295.17 325.986 294.917 326.099 294.614L327.395 294.977C327.259 295.417 327.029 295.803 326.707 296.136C326.385 296.466 325.988 296.723 325.514 296.909C325.041 297.091 324.509 297.182 323.918 297.182ZM335.753 290.227L334.548 290.568C334.473 290.367 334.361 290.172 334.213 289.983C334.069 289.79 333.872 289.631 333.622 289.506C333.372 289.381 333.052 289.318 332.662 289.318C332.128 289.318 331.683 289.441 331.327 289.688C330.974 289.93 330.798 290.239 330.798 290.614C330.798 290.947 330.92 291.21 331.162 291.403C331.404 291.597 331.783 291.758 332.298 291.886L333.594 292.205C334.374 292.394 334.955 292.684 335.338 293.074C335.721 293.46 335.912 293.958 335.912 294.568C335.912 295.068 335.768 295.515 335.48 295.909C335.196 296.303 334.798 296.614 334.287 296.841C333.776 297.068 333.181 297.182 332.503 297.182C331.613 297.182 330.876 296.989 330.293 296.602C329.709 296.216 329.34 295.652 329.185 294.909L330.457 294.591C330.579 295.061 330.808 295.413 331.145 295.648C331.486 295.883 331.931 296 332.48 296C333.105 296 333.601 295.867 333.969 295.602C334.34 295.333 334.526 295.011 334.526 294.636C334.526 294.333 334.42 294.08 334.207 293.875C333.995 293.667 333.67 293.511 333.23 293.409L331.776 293.068C330.976 292.879 330.389 292.585 330.014 292.188C329.643 291.786 329.457 291.284 329.457 290.682C329.457 290.189 329.596 289.754 329.872 289.375C330.152 288.996 330.533 288.699 331.014 288.483C331.499 288.267 332.048 288.159 332.662 288.159C333.526 288.159 334.204 288.348 334.696 288.727C335.192 289.106 335.545 289.606 335.753 290.227Z" fill="white"/>
</svg>
