<svg width="508" height="53" viewBox="0 0 508 53" fill="none" xmlns="http://www.w3.org/2000/svg">
<g clip-path="url(#clip0_47_530)">
<g clip-path="url(#clip1_47_530)">
<mask id="mask0_47_530" style="mask-type:luminance" maskUnits="userSpaceOnUse" x="0" y="-1" width="50" height="48">
<path d="M50 -0.209839H0V46.9712H50V-0.209839Z" fill="white"/>
</mask>
<g mask="url(#mask0_47_530)">
<path d="M30.4758 7.32057L9.47957 22.2038C8.66847 22.7788 8.66807 23.9852 9.47957 24.5604L30.4758 39.4436C31.4284 40.119 32.7554 39.4374 32.7554 38.2653V8.49892C32.7554 7.32978 31.4314 6.64298 30.4758 7.32057Z" fill="white"/>
<path d="M36.9493 20.6806L45.6967 14.7619C46.0346 14.5332 46.035 14.0531 45.6972 13.824L36.9554 7.89694C36.5588 7.62798 36.006 7.89897 36.0058 8.36544L36.0001 20.2112C35.9999 20.6765 36.5512 20.9501 36.9493 20.6806Z" fill="white"/>
<path d="M36.9494 38.6806L45.6967 32.7619C46.0346 32.5332 46.035 32.0531 45.6972 31.824L36.9555 25.8969C36.5589 25.628 36.0061 25.899 36.0059 26.3654L36.0002 38.2112C36 38.6765 36.5513 38.9501 36.9494 38.6806Z" fill="white"/>
<path d="M48.072 29.721L39.3099 23.8287C38.9714 23.601 38.9696 23.1209 39.3066 22.8908L48.0274 16.9374C48.423 16.6673 48.9764 16.9366 48.978 17.4031L49.0194 29.2488C49.021 29.714 48.4707 29.9893 48.072 29.721Z" fill="#FF8412"/>
</g>
</g>
<path d="M55.4 29.7002V15.4002H67.38C68.86 15.4002 70.0067 15.7735 70.82 16.5202C71.6467 17.2669 72.06 18.4002 72.06 19.9202C72.06 21.4402 71.6467 22.5735 70.82 23.3202C70.0067 24.0669 68.86 24.4402 67.38 24.4402H58.6V29.7002H55.4ZM67 18.0002H58.6V21.8202L67 21.8402C67.5867 21.8402 68.0333 21.6935 68.34 21.4002C68.66 21.1069 68.82 20.6135 68.82 19.9202C68.82 19.2135 68.66 18.7202 68.34 18.4402C68.0333 18.1469 67.5867 18.0002 67 18.0002ZM79.0323 29.8002C77.2457 29.8002 75.8523 29.3602 74.8523 28.4802C73.8523 27.5869 73.3523 26.2802 73.3523 24.5602C73.3523 22.8269 73.8523 21.5202 74.8523 20.6402C75.8523 19.7469 77.2457 19.3002 79.0323 19.3002H84.0323C85.2057 19.3002 86.099 19.5802 86.7123 20.1402C87.339 20.6869 87.6523 21.4735 87.6523 22.5002C87.6523 24.5935 86.4457 25.6402 84.0323 25.6402H76.4723C76.7523 26.8802 77.6057 27.5002 79.0323 27.5002H87.1323V29.8002H79.0323ZM79.0323 21.6002C77.659 21.6002 76.8123 22.1802 76.4923 23.3402H83.8923C84.159 23.3402 84.3657 23.2602 84.5123 23.1002C84.6723 22.9402 84.7523 22.7202 84.7523 22.4402C84.7523 21.8802 84.4657 21.6002 83.8923 21.6002H79.0323ZM94.7355 29.8002C92.9488 29.8002 91.5555 29.3602 90.5555 28.4802C89.5555 27.5869 89.0555 26.2802 89.0555 24.5602C89.0555 22.8269 89.5555 21.5202 90.5555 20.6402C91.5555 19.7469 92.9488 19.3002 94.7355 19.3002H98.4355C100.222 19.3002 101.615 19.7469 102.615 20.6402C103.615 21.5202 104.115 22.8269 104.115 24.5602C104.115 26.2802 103.615 27.5869 102.615 28.4802C101.615 29.3602 100.222 29.8002 98.4355 29.8002H94.7355ZM94.7355 27.5002H98.4355C99.3021 27.5002 99.9621 27.2602 100.415 26.7802C100.882 26.3002 101.115 25.5602 101.115 24.5602C101.115 23.5469 100.882 22.8002 100.415 22.3202C99.9621 21.8402 99.3021 21.6002 98.4355 21.6002H94.7355C93.8688 21.6002 93.2021 21.8402 92.7355 22.3202C92.2821 22.8002 92.0555 23.5469 92.0555 24.5602C92.0555 25.5602 92.2821 26.3002 92.7355 26.7802C93.2021 27.2602 93.8688 27.5002 94.7355 27.5002ZM105.92 34.2002V19.4002H113.32C115.107 19.4002 116.5 19.8402 117.5 20.7202C118.5 21.6002 119 22.8735 119 24.5402C119 26.2202 118.5 27.5002 117.5 28.3802C116.5 29.2602 115.107 29.7002 113.32 29.7002H108.82V34.2002H105.92ZM113.32 21.7002H108.82V27.4002H113.32C114.187 27.4002 114.847 27.1669 115.3 26.7002C115.767 26.2202 116 25.5002 116 24.5402C116 23.5935 115.767 22.8869 115.3 22.4202C114.847 21.9402 114.187 21.7002 113.32 21.7002ZM120.803 29.7002V15.4002H123.703V29.7002H120.803ZM131.181 29.8002C129.394 29.8002 128.001 29.3602 127.001 28.4802C126.001 27.5869 125.501 26.2802 125.501 24.5602C125.501 22.8269 126.001 21.5202 127.001 20.6402C128.001 19.7469 129.394 19.3002 131.181 19.3002H136.181C137.354 19.3002 138.247 19.5802 138.861 20.1402C139.487 20.6869 139.801 21.4735 139.801 22.5002C139.801 24.5935 138.594 25.6402 136.181 25.6402H128.621C128.901 26.8802 129.754 27.5002 131.181 27.5002H139.281V29.8002H131.181ZM131.181 21.6002C129.807 21.6002 128.961 22.1802 128.641 23.3402H136.041C136.307 23.3402 136.514 23.2602 136.661 23.1002C136.821 22.9402 136.901 22.7202 136.901 22.4402C136.901 21.8802 136.614 21.6002 136.041 21.6002H131.181ZM188.611 22.6402V15.4002H206.211V22.6402H202.971V18.0002H198.611V29.7002H195.411V18.0002H191.851V22.6402H188.611ZM210.945 29.7002C209.865 29.7002 209.039 29.4269 208.465 28.8802C207.892 28.3335 207.605 27.5535 207.605 26.5402C207.605 25.5402 207.892 24.7669 208.465 24.2202C209.039 23.6735 209.865 23.4002 210.945 23.4002H218.625V22.9202C218.625 22.1069 218.225 21.7002 217.425 21.7002H208.945V19.4002H218.185C219.399 19.4002 220.259 19.6802 220.765 20.2402C221.272 20.7869 221.525 21.5602 221.525 22.5602V29.7002H210.945ZM211.465 27.4002H218.625V25.7002H211.465C211.212 25.7002 211.012 25.7802 210.865 25.9402C210.732 26.0869 210.665 26.2869 210.665 26.5402C210.665 26.7935 210.732 27.0002 210.865 27.1602C211.012 27.3202 211.212 27.4002 211.465 27.4002ZM223.393 29.8002V27.5002H233.193C233.753 27.5002 234.033 27.1869 234.033 26.5602C234.033 25.9469 233.753 25.6402 233.193 25.6402H226.853C225.666 25.6402 224.766 25.3735 224.153 24.8402C223.539 24.2935 223.233 23.5135 223.233 22.5002C223.233 21.4735 223.539 20.6869 224.153 20.1402C224.779 19.5802 225.679 19.3002 226.853 19.3002H235.973V21.6002H226.993C226.419 21.6002 226.133 21.8802 226.133 22.4402C226.133 22.7202 226.213 22.9402 226.373 23.1002C226.533 23.2602 226.739 23.3402 226.993 23.3402H233.713C234.753 23.3402 235.546 23.6135 236.093 24.1602C236.653 24.6935 236.933 25.4735 236.933 26.5002C236.933 27.5402 236.653 28.3535 236.093 28.9402C235.533 29.5135 234.739 29.8002 233.713 29.8002H223.393ZM238.635 29.7002V15.4002H241.535V19.4002H248.455C249.628 19.4002 250.522 19.6802 251.135 20.2402C251.762 20.7869 252.075 21.5735 252.075 22.6002C252.075 24.2802 251.275 25.2802 249.675 25.6002L252.115 29.7002H248.855L246.495 25.7202H241.535V29.7002H238.635ZM248.315 21.6802H241.535V23.4402H248.315C248.582 23.4402 248.788 23.3602 248.935 23.2002C249.095 23.0402 249.175 22.8202 249.175 22.5402C249.175 21.9669 248.888 21.6802 248.315 21.6802Z" fill="white"/>
<path d="M141.904 29.7002V15.4002H153.884C155.364 15.4002 156.511 15.7735 157.324 16.5202C158.151 17.2669 158.564 18.4002 158.564 19.9202C158.564 21.4402 158.151 22.5735 157.324 23.3202C156.511 24.0669 155.364 24.4402 153.884 24.4402H145.104V29.7002H141.904ZM153.504 18.0002H145.104V21.8202L153.504 21.8402C154.091 21.8402 154.537 21.6935 154.844 21.4002C155.164 21.1069 155.324 20.6135 155.324 19.9202C155.324 19.2135 155.164 18.7202 154.844 18.4402C154.537 18.1469 154.091 18.0002 153.504 18.0002ZM165.536 29.8002C163.75 29.8002 162.356 29.3602 161.356 28.4802C160.356 27.5869 159.856 26.2802 159.856 24.5602C159.856 22.8269 160.356 21.5202 161.356 20.6402C162.356 19.7469 163.75 19.3002 165.536 19.3002H170.536C171.71 19.3002 172.603 19.5802 173.216 20.1402C173.843 20.6869 174.156 21.4735 174.156 22.5002C174.156 24.5935 172.95 25.6402 170.536 25.6402H162.976C163.256 26.8802 164.11 27.5002 165.536 27.5002H173.636V29.8002H165.536ZM165.536 21.6002C164.163 21.6002 163.316 22.1802 162.996 23.3402H170.396C170.663 23.3402 170.87 23.2602 171.016 23.1002C171.176 22.9402 171.256 22.7202 171.256 22.4402C171.256 21.8802 170.97 21.6002 170.396 21.6002H165.536ZM175.959 29.7002V19.4002H183.839C184.999 19.4002 185.853 19.6935 186.399 20.2802C186.946 20.8535 187.219 21.6135 187.219 22.5602V24.7002H184.279V22.9202C184.279 22.1202 183.879 21.7202 183.079 21.7202H178.899V29.7002H175.959Z" fill="#FF8412"/>
</g>
<defs>
<clipPath id="clip0_47_530">
<rect width="255" height="47" fill="white" transform="translate(0 0.700195)"/>
</clipPath>
<clipPath id="clip1_47_530">
<rect width="120" height="47.19" fill="white" transform="translate(0 0.700195)"/>
</clipPath>
</defs>
</svg>
