<svg width="19" height="19" viewBox="0 0 19 19" fill="none" xmlns="http://www.w3.org/2000/svg">
<g clip-path="url(#clip0_808_4701)">
<path d="M16.5 8C16.5 7.86739 16.5527 7.74021 16.6464 7.64644C16.7402 7.55268 16.8674 7.5 17 7.5C17.1326 7.5 17.2598 7.55268 17.3536 7.64644C17.4473 7.74021 17.5 7.86739 17.5 8V17C17.5 17.3978 17.342 17.7794 17.0607 18.0607C16.7794 18.342 16.3978 18.5 16 18.5H2C1.60218 18.5 1.22064 18.342 0.93934 18.0607C0.658035 17.7794 0.5 17.3978 0.5 17V3C0.5 2.60217 0.658035 2.22064 0.93934 1.93934C1.22064 1.65803 1.60218 1.5 2 1.5H11C11.1326 1.5 11.2598 1.55268 11.3536 1.64644C11.4473 1.74021 11.5 1.86739 11.5 2C11.5 2.13261 11.4473 2.25978 11.3536 2.35355C11.2598 2.44732 11.1326 2.5 11 2.5H2C1.86739 2.5 1.74021 2.55268 1.64645 2.64644C1.55268 2.74021 1.5 2.86739 1.5 3V17C1.5 17.1326 1.55268 17.2598 1.64645 17.3535C1.74021 17.4473 1.86739 17.5 2 17.5H16C16.1326 17.5 16.2598 17.4473 16.3536 17.3535C16.4473 17.2598 16.5 17.1326 16.5 17V8ZM16.13 1.631L7.148 10.613L6.598 12.577L8.562 12.027L17.544 3.045L16.13 1.631ZM16.837 0.923997L18.251 2.338C18.4385 2.52552 18.5438 2.77983 18.5438 3.045C18.5438 3.31016 18.4385 3.56447 18.251 3.752L9.27 12.734C9.14871 12.8554 8.99822 12.9436 8.833 12.99L6.869 13.54C6.69807 13.588 6.51744 13.5896 6.34569 13.5446C6.17393 13.4997 6.01724 13.4098 5.8917 13.2843C5.76616 13.1588 5.67631 13.0021 5.63137 12.8303C5.58643 12.6586 5.58803 12.4779 5.636 12.307L6.186 10.343C6.23242 10.1778 6.32058 10.0273 6.442 9.906L15.423 0.923997C15.6105 0.736526 15.8648 0.63121 16.13 0.63121C16.3952 0.63121 16.6495 0.736526 16.837 0.923997Z" fill="#00D56F"/>
</g>
<defs>
<clipPath id="clip0_808_4701">
<rect width="19" height="19" fill="white"/>
</clipPath>
</defs>
</svg>
