<svg width="25" height="24" viewBox="0 0 25 24" fill="none" xmlns="http://www.w3.org/2000/svg">
<path d="M9.11112 9C9.34622 8.33167 9.81027 7.76811 10.4211 7.40913C11.0319 7.05016 11.75 6.91894 12.4483 7.03871C13.1466 7.15849 13.7799 7.52152 14.2362 8.06353C14.6925 8.60553 14.9422 9.29152 14.9411 10C14.9411 12 11.9411 13 11.9411 13M12.0211 17H12.0311M22.0211 12C22.0211 17.5228 17.544 22 12.0211 22C6.49827 22 2.02112 17.5228 2.02112 12C2.02112 6.47715 6.49827 2 12.0211 2C17.544 2 22.0211 6.47715 22.0211 12Z" stroke="white" stroke-width="2" stroke-linecap="round" stroke-linejoin="round"/>
</svg>
