<svg width="21" height="21" viewBox="0 0 21 21" fill="none" xmlns="http://www.w3.org/2000/svg">
<g clip-path="url(#clip0_47_455)">
<path d="M20.5 10.4196C20.5 15.9425 16.0229 20.4196 10.5 20.4196C4.97714 20.4196 0.5 15.9425 0.5 10.4196C0.5 4.89677 4.97714 0.419632 10.5 0.419632C16.0229 0.419632 20.5 4.89677 20.5 10.4196ZM9.34331 15.7145L16.7627 8.29519C17.0146 8.04326 17.0146 7.63475 16.7627 7.38282L15.8503 6.47044C15.5983 6.21846 15.1898 6.21846 14.9379 6.47044L8.8871 12.5211L6.06214 9.6962C5.8102 9.44427 5.40169 9.44427 5.14972 9.6962L4.23734 10.6086C3.9854 10.8605 3.9854 11.269 4.23734 11.5209L8.43089 15.7145C8.68286 15.9665 9.09133 15.9665 9.34331 15.7145Z" fill="#9F7AEA"/>
</g>
<defs>
<clipPath id="clip0_47_455">
<rect width="20" height="20" fill="white" transform="translate(0.5 0.419632)"/>
</clipPath>
</defs>
</svg>
