<svg width="55" height="56" viewBox="0 0 55 56" fill="none" xmlns="http://www.w3.org/2000/svg">
<g clip-path="url(#clip0_47_560)">
<path d="M27.502 23.335C24.9481 23.335 22.8881 25.3954 22.8881 27.95C22.8881 30.5044 24.9481 32.5649 27.502 32.5649C30.0559 32.5649 32.1159 30.5044 32.1159 27.95C32.1159 25.3954 30.0559 23.335 27.502 23.335ZM27.502 30.9503C25.8516 30.9503 24.5023 29.6048 24.5023 27.95C24.5023 26.2951 25.8476 24.9496 27.502 24.9496C29.1565 24.9496 30.5017 26.2951 30.5017 27.95C30.5017 29.6048 29.1524 30.9503 27.502 30.9503ZM33.3809 23.1462C33.3809 23.7447 32.899 24.2226 32.3046 24.2226C31.7063 24.2226 31.2285 23.7406 31.2285 23.1462C31.2285 22.5518 31.7104 22.0698 32.3046 22.0698C32.899 22.0698 33.3809 22.5518 33.3809 23.1462ZM36.4367 24.2387C36.3685 22.7968 36.0392 21.5195 34.9831 20.4672C33.931 19.4149 32.654 19.0855 31.2124 19.0132C29.7267 18.9289 25.2733 18.9289 23.7876 19.0132C22.35 19.0815 21.073 19.4108 20.0169 20.4632C18.9608 21.5155 18.6355 22.7928 18.5632 24.2347C18.4789 25.7208 18.4789 30.1751 18.5632 31.6612C18.6315 33.1032 18.9608 34.3804 20.0169 35.4327C21.073 36.485 22.346 36.8144 23.7876 36.8867C25.2733 36.971 29.7267 36.971 31.2124 36.8867C32.654 36.8184 33.931 36.4891 34.9831 35.4327C36.0351 34.3804 36.3645 33.1032 36.4367 31.6612C36.5211 30.1751 36.5211 25.7248 36.4367 24.2387ZM34.5173 33.2557C34.2041 34.043 33.5977 34.6495 32.8067 34.9668C31.622 35.4367 28.8111 35.3282 27.502 35.3282C26.1929 35.3282 23.378 35.4327 22.1974 34.9668C21.4103 34.6535 20.804 34.047 20.4867 33.2557C20.0169 32.0709 20.1253 29.2594 20.1253 27.95C20.1253 26.6406 20.0209 23.825 20.4867 22.6441C20.7999 21.8569 21.4063 21.2504 22.1974 20.9331C23.382 20.4632 26.1929 20.5716 27.502 20.5716C28.8111 20.5716 31.626 20.4672 32.8067 20.9331C33.5937 21.2464 34.2001 21.8529 34.5173 22.6441C34.9871 23.829 34.8786 26.6406 34.8786 27.95C34.8786 29.2594 34.9871 32.0749 34.5173 33.2557Z" fill="#72737C"/>
</g>
<defs>
<clipPath id="clip0_47_560">
<rect width="18" height="18" fill="white" transform="translate(18.5 18.95)"/>
</clipPath>
</defs>
</svg>
