<svg width="21" height="21" viewBox="0 0 21 21" fill="none" xmlns="http://www.w3.org/2000/svg">
<g clip-path="url(#clip0_47_452)">
<path d="M20.5 10.9196C20.5 16.4425 16.0229 20.9196 10.5 20.9196C4.97714 20.9196 0.5 16.4425 0.5 10.9196C0.5 5.39677 4.97714 0.919632 10.5 0.919632C16.0229 0.919632 20.5 5.39677 20.5 10.9196ZM9.34331 16.2145L16.7627 8.79519C17.0146 8.54326 17.0146 8.13475 16.7627 7.88282L15.8503 6.97044C15.5983 6.71846 15.1898 6.71846 14.9379 6.97044L8.8871 13.0211L6.06214 10.1962C5.8102 9.94427 5.40169 9.94427 5.14972 10.1962L4.23734 11.1086C3.9854 11.3605 3.9854 11.769 4.23734 12.0209L8.43089 16.2145C8.68286 16.4665 9.09133 16.4665 9.34331 16.2145Z" fill="#9F7AEA"/>
</g>
<defs>
<clipPath id="clip0_47_452">
<rect width="20" height="20" fill="white" transform="translate(0.5 0.919632)"/>
</clipPath>
</defs>
</svg>
