<svg width="55" height="56" viewBox="0 0 55 56" fill="none" xmlns="http://www.w3.org/2000/svg">
<g clip-path="url(#clip0_47_554)">
<path d="M36.1239 23.6777C35.9169 22.8795 35.307 22.2509 34.5325 22.0376C33.1288 21.6499 27.5 21.6499 27.5 21.6499C27.5 21.6499 21.8713 21.6499 20.4675 22.0376C19.6931 22.2509 19.0831 22.8795 18.8761 23.6777C18.5 25.1245 18.5 28.143 18.5 28.143C18.5 28.143 18.5 31.1616 18.8761 32.6083C19.0831 33.4065 19.6931 34.0089 20.4675 34.2223C21.8713 34.6099 27.5 34.6099 27.5 34.6099C27.5 34.6099 33.1287 34.6099 34.5325 34.2223C35.307 34.0089 35.9169 33.4065 36.1239 32.6083C36.5 31.1616 36.5 28.143 36.5 28.143C36.5 28.143 36.5 25.1245 36.1239 23.6777ZM25.6591 30.8836V25.4024L30.3636 28.143L25.6591 30.8836Z" fill="#72737C"/>
</g>
<defs>
<clipPath id="clip0_47_554">
<rect width="18" height="18" fill="white" transform="translate(18.5 18.95)"/>
</clipPath>
</defs>
</svg>
