<svg width="55" height="56" viewBox="0 0 55 56" fill="none" xmlns="http://www.w3.org/2000/svg">
<g clip-path="url(#clip0_47_551)">
<path d="M34.6498 23.8246C34.6612 23.999 34.6612 24.1735 34.6612 24.3479C34.6612 29.6682 30.9493 35.7983 24.165 35.7983C22.0749 35.7983 20.1333 35.1379 18.5 33.9917C18.797 34.029 19.0825 34.0415 19.3909 34.0415C21.1155 34.0415 22.7031 33.4061 23.9708 32.3221C22.349 32.2847 20.9899 31.126 20.5216 29.5311C20.75 29.5684 20.9784 29.5934 21.2183 29.5934C21.5495 29.5934 21.8807 29.5435 22.1891 29.4564C20.4987 29.0825 19.2309 27.4628 19.2309 25.5067V25.4568C19.722 25.7559 20.2932 25.9428 20.8984 25.9676C19.9048 25.245 19.2538 24.0115 19.2538 22.616C19.2538 21.8684 19.4365 21.1831 19.7563 20.5851C21.5723 23.0272 24.302 24.622 27.3629 24.7964C27.3058 24.4974 27.2716 24.186 27.2716 23.8745C27.2716 21.6566 28.9162 19.85 30.9607 19.85C32.0229 19.85 32.9823 20.3359 33.6561 21.1209C34.4898 20.9464 35.2893 20.61 35.9974 20.149C35.7233 21.0835 35.1408 21.8685 34.3756 22.3668C35.118 22.2796 35.8376 22.0553 36.5 21.7439C35.9975 22.5412 35.3693 23.2514 34.6498 23.8246Z" fill="#72737C"/>
</g>
<defs>
<clipPath id="clip0_47_551">
<rect width="18" height="18" fill="white" transform="translate(18.5 18.95)"/>
</clipPath>
</defs>
</svg>
