<svg width="55" height="56" viewBox="0 0 55 56" fill="none" xmlns="http://www.w3.org/2000/svg">
<g clip-path="url(#clip0_47_557)">
<path d="M35.2143 18.95H19.7817C19.0746 18.95 18.5 19.5083 18.5 20.1936V34.9563C18.5 35.6416 19.0746 36.2 19.7817 36.2H35.2143C35.9214 36.2 36.5 35.6416 36.5 34.9563V20.1936C36.5 19.5083 35.9214 18.95 35.2143 18.95ZM23.9402 33.7357H21.2723V25.5034H23.9442V33.7357H23.9402ZM22.6062 24.3791C21.7504 24.3791 21.0594 23.7129 21.0594 22.8967C21.0594 22.0804 21.7504 21.4142 22.6062 21.4142C23.458 21.4142 24.1531 22.0804 24.1531 22.8967C24.1531 23.7168 23.4621 24.3791 22.6062 24.3791ZM33.9406 33.7357H31.2728V29.7312C31.2728 28.7763 31.2526 27.548 29.8866 27.548C28.4964 27.548 28.2834 28.5876 28.2834 29.6619V33.7357H25.6156V25.5034H28.175V26.6277H28.2112C28.5688 25.9809 29.4406 25.2993 30.7384 25.2993C33.4384 25.2993 33.9406 27.0051 33.9406 29.2229V33.7357Z" fill="#72737C"/>
</g>
<defs>
<clipPath id="clip0_47_557">
<rect width="18" height="18" fill="white" transform="translate(18.5 18.95)"/>
</clipPath>
</defs>
</svg>
