<svg width="23" height="20" viewBox="0 0 23 20" fill="none" xmlns="http://www.w3.org/2000/svg">
<path d="M8.53943 2.32485C9.51236 1.89249 13.4876 1.89249 14.4606 2.32485V4H16V1.56747C16 0.527335 14.486 0 11.5 0C8.51404 0 7 0.527335 7 1.56747V4H8.53943V2.32485Z" fill="#9F7AEA"/>
<path d="M22.012 4L11.4991 4.00158L0.988033 4C0.725751 4.00023 0.474318 4.08927 0.289031 4.24754C0.103744 4.40581 -0.000221312 4.62035 3.53736e-07 4.84397V12.3127L0.904287 12.9314V18H10.9539C10.9636 17.9283 10.9817 17.8576 11.0079 17.789C11.1215 17.4834 11.3724 17.2286 11.7057 17.0803C12.039 16.9319 12.4277 16.9021 12.7867 16.9974C12.6508 16.8038 12.5094 16.6008 12.3643 16.3914H2.79476V13.3185C3.67301 13.4438 4.7243 13.5406 5.86305 13.6152C7.56371 13.7231 9.26562 13.7818 10.9688 13.7913C11.0028 13.6369 11.0729 13.49 11.1749 13.3591C11.2768 13.2283 11.4086 13.1163 11.5623 13.0298C11.7087 12.9396 11.875 12.8756 12.0513 12.8418C12.2275 12.808 12.4099 12.805 12.5875 12.833C12.7651 12.8611 12.9342 12.9195 13.0845 13.0049C13.2348 13.0902 13.3633 13.2007 13.4621 13.3296C13.5793 13.4756 13.6928 13.6199 13.8045 13.7643C14.9153 13.7357 16.0261 13.686 17.137 13.6152C18.2757 13.5406 19.327 13.4438 20.2052 13.3185V16.3914H20.0155C20.2536 16.8054 20.5513 17.3321 20.9216 18H22.0957V12.9315L23 12.3127V4.84397C23.0002 4.62035 22.8963 4.40582 22.711 4.24755C22.5257 4.08928 22.2743 4.00023 22.012 4Z" fill="#9F7AEA"/>
<path d="M18.8929 13.7555C18.8048 13.6684 18.692 13.6018 18.565 13.562C18.4381 13.5222 18.3013 13.5106 18.1677 13.5283C18.034 13.5459 17.9078 13.5923 17.8012 13.6629C17.6945 13.7335 17.6108 13.8261 17.5581 13.9318C17.4705 13.8748 17.3698 13.8339 17.2625 13.8117C17.1551 13.7895 17.0436 13.7865 16.9348 13.803C16.8261 13.8194 16.7226 13.8549 16.6309 13.9072C16.5392 13.9595 16.4614 14.0274 16.4024 14.1067L16.33 14.1062C15.9035 13.5245 14.9698 13.9554 15.0902 14.4926C14.5905 13.751 14.0517 13.0244 13.4672 12.2987C12.8764 11.5643 11.5636 12.3258 12.1533 13.0594C13.0599 14.4748 14.6644 16.6801 14.6644 16.6801L13.2112 16.0851C13.1022 16.0405 12.9832 16.0163 12.8623 16.0141C12.7413 16.0119 12.6212 16.0318 12.5101 16.0725C12.399 16.1131 12.2995 16.1735 12.2183 16.2497C12.1371 16.3258 12.0762 16.4159 12.0396 16.5137C11.9854 16.6586 11.9869 16.8143 12.0438 16.9584C12.1008 17.1025 12.2102 17.2275 12.3564 17.3153C13.291 17.8771 15.2886 19.0823 16.2754 19.7122C16.5357 19.8784 16.8472 19.9772 17.1721 19.9965C17.4971 20.0158 17.8217 19.9549 18.1068 19.8212L20.1278 18.8736C20.5032 18.6976 20.7856 18.4071 20.9178 18.0608C21.05 17.7146 21.022 17.3386 20.8395 17.0093C20.158 15.7791 19.1631 14.0227 18.8929 13.7555Z" fill="#9F7AEA"/>
</svg>
