<svg width="374" height="384" viewBox="0 0 374 384" fill="none" xmlns="http://www.w3.org/2000/svg">
<rect x="1" y="1" width="372" height="382" rx="19" fill="white" stroke="#6366F1" stroke-width="2"/>
<path d="M60.5682 264.299V275.935H59.2273V264.299H60.5682ZM63.0241 275.935V267.208H64.3651V275.935H63.0241ZM63.706 265.753C63.4446 265.753 63.2192 265.664 63.0298 265.486C62.8442 265.308 62.7514 265.094 62.7514 264.844C62.7514 264.594 62.8442 264.38 63.0298 264.202C63.2192 264.024 63.4446 263.935 63.706 263.935C63.9673 263.935 64.1908 264.024 64.3764 264.202C64.5658 264.38 64.6605 264.594 64.6605 264.844C64.6605 265.094 64.5658 265.308 64.3764 265.486C64.1908 265.664 63.9673 265.753 63.706 265.753ZM68.071 272.753L68.0483 271.094H68.321L72.1392 267.208H73.7983L69.7301 271.321H69.6165L68.071 272.753ZM66.821 275.935V264.299H68.1619V275.935H66.821ZM72.3665 275.935L68.9574 271.617L69.9119 270.685L74.071 275.935H72.3665ZM78.8239 276.117C77.983 276.117 77.2576 275.931 76.6477 275.56C76.0417 275.185 75.5739 274.662 75.2443 273.992C74.9186 273.318 74.7557 272.533 74.7557 271.639C74.7557 270.746 74.9186 269.958 75.2443 269.276C75.5739 268.59 76.0322 268.056 76.6193 267.674C77.2102 267.287 77.8996 267.094 78.6875 267.094C79.142 267.094 79.5909 267.17 80.0341 267.321C80.4773 267.473 80.8807 267.719 81.2443 268.06C81.608 268.397 81.8977 268.844 82.1136 269.401C82.3295 269.958 82.4375 270.643 82.4375 271.458V272.026H75.7102V270.867H81.0739C81.0739 270.374 80.9754 269.935 80.7784 269.549C80.5852 269.162 80.3087 268.857 79.9489 268.634C79.5928 268.41 79.1723 268.299 78.6875 268.299C78.1534 268.299 77.6913 268.431 77.3011 268.696C76.9148 268.958 76.6174 269.299 76.4091 269.719C76.2008 270.139 76.0966 270.59 76.0966 271.071V271.844C76.0966 272.503 76.2102 273.062 76.4375 273.52C76.6686 273.975 76.9886 274.321 77.3977 274.56C77.8068 274.795 78.2822 274.912 78.8239 274.912C79.1761 274.912 79.4943 274.863 79.7784 274.764C80.0663 274.662 80.3144 274.511 80.5227 274.31C80.7311 274.105 80.892 273.852 81.0057 273.549L82.3011 273.912C82.1648 274.352 81.9356 274.738 81.6136 275.071C81.2917 275.401 80.8939 275.658 80.4205 275.844C79.947 276.026 79.4148 276.117 78.8239 276.117ZM90.6591 269.162L89.4545 269.503C89.3788 269.302 89.267 269.107 89.1193 268.918C88.9754 268.725 88.7784 268.566 88.5284 268.441C88.2784 268.316 87.9583 268.253 87.5682 268.253C87.0341 268.253 86.589 268.376 86.233 268.622C85.8807 268.865 85.7045 269.174 85.7045 269.549C85.7045 269.882 85.8258 270.145 86.0682 270.338C86.3106 270.532 86.6894 270.693 87.2045 270.821L88.5 271.139C89.2803 271.329 89.8617 271.619 90.2443 272.009C90.6269 272.395 90.8182 272.893 90.8182 273.503C90.8182 274.003 90.6742 274.45 90.3864 274.844C90.1023 275.238 89.7045 275.549 89.1932 275.776C88.6818 276.003 88.0871 276.117 87.4091 276.117C86.5189 276.117 85.7822 275.924 85.1989 275.537C84.6155 275.151 84.2462 274.586 84.0909 273.844L85.3636 273.526C85.4848 273.996 85.714 274.348 86.0511 274.583C86.392 274.818 86.8371 274.935 87.3864 274.935C88.0114 274.935 88.5076 274.802 88.875 274.537C89.2462 274.268 89.4318 273.946 89.4318 273.571C89.4318 273.268 89.3258 273.014 89.1136 272.81C88.9015 272.602 88.5758 272.446 88.1364 272.344L86.6818 272.003C85.8826 271.814 85.2955 271.52 84.9205 271.122C84.5492 270.721 84.3636 270.219 84.3636 269.617C84.3636 269.124 84.5019 268.689 84.7784 268.31C85.0587 267.931 85.4394 267.634 85.9205 267.418C86.4053 267.202 86.9545 267.094 87.5682 267.094C88.4318 267.094 89.1098 267.283 89.6023 267.662C90.0985 268.041 90.4508 268.541 90.6591 269.162Z" fill="black"/>
<rect x="277.5" y="18.0807" width="74" height="23.9831" rx="9.5" stroke="#8C89B4" stroke-opacity="0.5"/>
<path d="M290.932 35.1326L287.812 27.8246V35.1326H286.972V26.5166H288.136L291.328 34.0286L294.544 26.5166H295.696V35.1326H294.868V27.8246L291.724 35.1326H290.932ZM300.108 35.2526C299.676 35.2526 299.276 35.1726 298.908 35.0126C298.54 34.8526 298.22 34.6246 297.948 34.3286C297.684 34.0326 297.476 33.6846 297.324 33.2846C297.18 32.8846 297.108 32.4446 297.108 31.9646C297.108 31.4926 297.18 31.0566 297.324 30.6566C297.476 30.2566 297.684 29.9126 297.948 29.6246C298.22 29.3286 298.54 29.1006 298.908 28.9406C299.276 28.7806 299.676 28.7006 300.108 28.7006C300.548 28.7006 300.952 28.7806 301.32 28.9406C301.688 29.1006 302.004 29.3286 302.268 29.6246C302.54 29.9126 302.748 30.2566 302.892 30.6566C303.044 31.0566 303.12 31.4926 303.12 31.9646C303.12 32.4446 303.044 32.8846 302.892 33.2846C302.748 33.6846 302.54 34.0326 302.268 34.3286C302.004 34.6246 301.688 34.8526 301.32 35.0126C300.952 35.1726 300.548 35.2526 300.108 35.2526ZM300.108 34.5326C300.524 34.5326 300.892 34.4286 301.212 34.2206C301.54 34.0046 301.796 33.7046 301.98 33.3206C302.172 32.9366 302.268 32.4846 302.268 31.9646C302.268 31.4446 302.172 30.9966 301.98 30.6206C301.796 30.2446 301.54 29.9526 301.212 29.7446C300.892 29.5366 300.524 29.4326 300.108 29.4326C299.7 29.4326 299.332 29.5366 299.004 29.7446C298.684 29.9526 298.428 30.2446 298.236 30.6206C298.052 30.9966 297.96 31.4446 297.96 31.9646C297.96 32.4846 298.052 32.9366 298.236 33.3206C298.428 33.7046 298.684 34.0046 299.004 34.2206C299.332 34.4286 299.7 34.5326 300.108 34.5326ZM305.318 31.4486V35.1326H304.478V28.8086H305.258V29.9966C305.466 29.6126 305.75 29.3006 306.11 29.0606C306.478 28.8126 306.89 28.6886 307.346 28.6886C308.002 28.6886 308.526 28.8926 308.918 29.3006C309.318 29.7086 309.518 30.2846 309.518 31.0286V35.1326H308.678V31.3166C308.678 30.7086 308.542 30.2406 308.27 29.9126C308.006 29.5846 307.614 29.4206 307.094 29.4206C306.766 29.4206 306.466 29.5086 306.194 29.6846C305.922 29.8526 305.706 30.0886 305.546 30.3926C305.394 30.6966 305.318 31.0486 305.318 31.4486ZM314.527 34.3286V35.0726C314.367 35.1446 314.215 35.1926 314.071 35.2166C313.927 35.2406 313.775 35.2526 313.615 35.2526C313.271 35.2526 312.959 35.1886 312.679 35.0606C312.399 34.9326 312.175 34.7286 312.007 34.4486C311.847 34.1686 311.767 33.8006 311.767 33.3446V29.5166H310.279V28.8086H311.767V26.9366H312.607V28.8086H314.587V29.5166H312.607V33.1646C312.607 33.6606 312.715 34.0046 312.931 34.1966C313.155 34.3886 313.439 34.4846 313.783 34.4846C313.919 34.4846 314.043 34.4726 314.155 34.4486C314.275 34.4246 314.399 34.3846 314.527 34.3286ZM316.697 31.4486V35.1326H315.857V26.5166H316.697V29.9726C316.889 29.5966 317.161 29.2886 317.513 29.0486C317.865 28.8086 318.269 28.6886 318.725 28.6886C319.381 28.6886 319.905 28.8926 320.297 29.3006C320.697 29.7086 320.897 30.2846 320.897 31.0286V35.1326H320.057V31.3166C320.057 30.7086 319.921 30.2406 319.649 29.9126C319.385 29.5846 318.993 29.4206 318.473 29.4206C318.145 29.4206 317.845 29.5086 317.573 29.6846C317.301 29.8526 317.085 30.0886 316.925 30.3926C316.773 30.6966 316.697 31.0486 316.697 31.4486Z" fill="#AEABD8"/>
<path d="M336 28.6843L340.333 32.3855L344 28.6843" stroke="#AEABD8"/>
<path d="M319 229.937C324.523 229.937 329.044 225.452 328.581 219.949C325.948 188.632 310.999 159.064 286.238 136.701C258.857 111.974 221.722 98.0819 183 98.0819C144.278 98.0819 107.143 111.974 79.7624 136.701C55.001 159.064 40.0523 188.632 37.4192 219.949C36.9565 225.452 41.4772 229.937 47 229.937H76.2317C81.7545 229.937 86.1669 225.442 86.8636 219.963C89.3443 200.457 99.0493 182.162 114.574 168.141C132.722 151.751 157.335 142.544 183 142.544C208.665 142.544 233.278 151.751 251.426 168.141C266.951 182.162 276.656 200.457 279.136 219.963C279.833 225.442 284.245 229.937 289.768 229.937H319Z" fill="#3A3A5A"/>
<path d="M224.889 113.757C226.712 108.309 223.584 102.419 217.954 101.279C199.292 97.4982 179.953 97.0594 161.041 100.023C138.626 103.535 117.43 111.73 99.1432 123.953C80.8568 136.176 65.9862 152.089 55.7178 170.424C47.1192 185.776 41.9469 202.471 40.453 219.559C39.9718 225.063 44.4814 229.563 50.0066 229.578L79.6464 229.656C85.1669 229.671 89.59 225.191 90.3067 219.718C91.6292 209.618 94.9053 199.779 100.014 190.658C106.791 178.558 116.605 168.055 128.675 159.988C140.744 151.92 154.733 146.512 169.527 144.194C181.193 142.366 193.104 142.499 204.666 144.561C209.888 145.492 215.2 142.703 216.883 137.674L224.889 113.757Z" fill="#6359E9"/>
<path d="M308.922 197.782C314.594 196.704 318.331 191.113 316.528 185.721C310.282 167.042 298.938 150.051 283.493 136.4C267.713 122.454 248.288 112.553 227.173 107.608C221.825 106.356 216.609 110.075 215.605 115.491L212.099 134.393C211.088 139.845 214.738 144.928 220.065 146.396C232.699 149.878 244.303 156.082 253.874 164.542C263.419 172.978 270.592 183.348 274.85 194.756C276.691 199.686 281.661 202.963 286.913 201.965L308.922 197.782Z" fill="#64CFF6"/>
<path d="M36.512 31.3968H44.528L45.248 33.5328H35.624L36.512 31.3968ZM45.728 37.8048L40.472 23.4528L35.144 37.8048H32.48L39.08 20.5728H41.984L48.536 37.8048H45.728ZM55.0085 38.0688C53.8405 38.0688 52.8085 37.7888 51.9125 37.2288C51.0325 36.6688 50.3365 35.8928 49.8245 34.9008C49.3285 33.8928 49.0805 32.7408 49.0805 31.4448C49.0805 30.1648 49.3365 29.0288 49.8485 28.0368C50.3605 27.0448 51.0645 26.2688 51.9605 25.7088C52.8565 25.1328 53.8725 24.8448 55.0085 24.8448C56.0645 24.8448 57.0005 25.0688 57.8165 25.5168C58.6485 25.9488 59.3285 26.5728 59.8565 27.3888C60.4005 28.1888 60.7445 29.1408 60.8885 30.2448H58.3445C58.2165 29.2208 57.8565 28.4208 57.2645 27.8448C56.6725 27.2688 55.9285 26.9808 55.0325 26.9808C54.3285 26.9808 53.7205 27.1728 53.2085 27.5568C52.6965 27.9248 52.2965 28.4368 52.0085 29.0928C51.7205 29.7488 51.5765 30.5328 51.5765 31.4448C51.5765 32.3408 51.7205 33.1248 52.0085 33.7968C52.2965 34.4688 52.6965 34.9888 53.2085 35.3568C53.7205 35.7248 54.3285 35.9088 55.0325 35.9088C55.9445 35.9088 56.6885 35.6208 57.2645 35.0448C57.8565 34.4688 58.2245 33.6688 58.3685 32.6448H60.8885C60.7605 33.7648 60.4325 34.7328 59.9045 35.5488C59.3765 36.3488 58.6965 36.9728 57.8645 37.4208C57.0325 37.8528 56.0805 38.0688 55.0085 38.0688ZM70.5044 35.4528V37.5888C70.1364 37.7648 69.7764 37.8848 69.4244 37.9488C69.0884 38.0128 68.7284 38.0448 68.3444 38.0448C67.5604 38.0448 66.8644 37.9008 66.2564 37.6128C65.6644 37.3248 65.2004 36.8768 64.8644 36.2688C64.5284 35.6608 64.3604 34.8928 64.3604 33.9648V27.1488H61.5524V25.0848H64.3604V21.3168H66.7844V25.0848H70.6244V27.1488H66.7844V33.4128C66.7844 34.2928 66.9764 34.9088 67.3604 35.2608C67.7604 35.6128 68.2804 35.7888 68.9204 35.7888C69.2084 35.7888 69.4804 35.7648 69.7364 35.7168C70.0084 35.6528 70.2644 35.5648 70.5044 35.4528ZM75.3618 37.8048H72.9378V25.0848H75.3618V37.8048ZM75.8898 22.1328C75.8898 22.5808 75.7218 22.9648 75.3858 23.2848C75.0658 23.5888 74.6498 23.7408 74.1378 23.7408C73.6098 23.7408 73.1778 23.5888 72.8418 23.2848C72.5218 22.9648 72.3618 22.5808 72.3618 22.1328C72.3618 21.6528 72.5218 21.2688 72.8418 20.9808C73.1778 20.6768 73.6098 20.5248 74.1378 20.5248C74.6498 20.5248 75.0658 20.6768 75.3858 20.9808C75.7218 21.2688 75.8898 21.6528 75.8898 22.1328ZM89.2869 25.0848L84.5109 37.8048H81.8709L77.0949 25.0848H79.7109L83.2389 35.0208L86.8149 25.0848H89.2869ZM93.4321 37.8048H91.0081V25.0848H93.4321V37.8048ZM93.9601 22.1328C93.9601 22.5808 93.7921 22.9648 93.4561 23.2848C93.1361 23.5888 92.7201 23.7408 92.2081 23.7408C91.6801 23.7408 91.2481 23.5888 90.9121 23.2848C90.5921 22.9648 90.4321 22.5808 90.4321 22.1328C90.4321 21.6528 90.5921 21.2688 90.9121 20.9808C91.2481 20.6768 91.6801 20.5248 92.2081 20.5248C92.7201 20.5248 93.1361 20.6768 93.4561 20.9808C93.7921 21.2688 93.9601 21.6528 93.9601 22.1328ZM103.973 35.4528V37.5888C103.605 37.7648 103.245 37.8848 102.893 37.9488C102.557 38.0128 102.197 38.0448 101.813 38.0448C101.029 38.0448 100.333 37.9008 99.7252 37.6128C99.1332 37.3248 98.6692 36.8768 98.3332 36.2688C97.9972 35.6608 97.8292 34.8928 97.8292 33.9648V27.1488H95.0212V25.0848H97.8292V21.3168H100.253V25.0848H104.093V27.1488H100.253V33.4128C100.253 34.2928 100.445 34.9088 100.829 35.2608C101.229 35.6128 101.749 35.7888 102.389 35.7888C102.677 35.7888 102.949 35.7648 103.205 35.7168C103.477 35.6528 103.733 35.5648 103.973 35.4528ZM116.967 25.0848L110.607 42.4368H107.967L109.791 37.6368L104.775 25.0848H107.391L111.087 34.7808L114.519 25.0848H116.967Z" fill="black"/>
<path d="M172.216 187.783L166.432 201.583H162.016L167.632 189.055H160.432V185.359H172.216V187.783ZM179.292 201.823C178.076 201.823 176.972 201.591 175.98 201.127C175.004 200.663 174.228 200.031 173.652 199.231C173.076 198.415 172.764 197.487 172.716 196.447H176.868C176.98 197.007 177.244 197.431 177.66 197.719C178.092 197.991 178.628 198.127 179.268 198.127C179.844 198.127 180.284 198.023 180.588 197.815C180.908 197.607 181.124 197.351 181.236 197.047C181.364 196.743 181.428 196.447 181.428 196.159C181.428 195.855 181.356 195.551 181.212 195.247C181.084 194.943 180.852 194.687 180.516 194.479C180.18 194.255 179.708 194.143 179.1 194.143C178.524 194.143 178.028 194.263 177.612 194.503C177.196 194.743 176.9 195.119 176.724 195.631L173.292 194.479L174.732 185.359H184.716V189.055H177.732L177.396 191.143C177.764 190.967 178.156 190.839 178.572 190.759C178.988 190.663 179.404 190.615 179.82 190.615C181.196 190.615 182.316 190.887 183.18 191.431C184.044 191.975 184.676 192.679 185.076 193.543C185.492 194.391 185.7 195.271 185.7 196.183C185.7 196.839 185.572 197.503 185.316 198.175C185.06 198.831 184.668 199.439 184.14 199.999C183.612 200.543 182.948 200.983 182.148 201.319C181.348 201.655 180.396 201.823 179.292 201.823ZM192.107 195.295C191.083 195.295 190.155 195.071 189.323 194.623C188.507 194.159 187.859 193.543 187.379 192.775C186.899 192.007 186.659 191.167 186.659 190.255C186.659 189.327 186.899 188.487 187.379 187.735C187.859 186.967 188.507 186.359 189.323 185.911C190.155 185.447 191.083 185.215 192.107 185.215C193.131 185.215 194.051 185.447 194.867 185.911C195.699 186.359 196.355 186.967 196.835 187.735C197.315 188.487 197.555 189.327 197.555 190.255C197.555 191.167 197.315 192.007 196.835 192.775C196.355 193.543 195.699 194.159 194.867 194.623C194.051 195.071 193.131 195.295 192.107 195.295ZM192.107 192.391C192.491 192.391 192.843 192.319 193.163 192.175C193.483 192.015 193.739 191.775 193.931 191.455C194.123 191.135 194.219 190.735 194.219 190.255C194.219 189.759 194.123 189.359 193.931 189.055C193.739 188.735 193.483 188.503 193.163 188.359C192.843 188.199 192.491 188.119 192.107 188.119C191.739 188.119 191.387 188.199 191.051 188.359C190.731 188.503 190.467 188.735 190.259 189.055C190.067 189.359 189.971 189.759 189.971 190.255C189.971 190.735 190.067 191.135 190.259 191.455C190.467 191.775 190.731 192.015 191.051 192.175C191.387 192.319 191.739 192.391 192.107 192.391ZM196.571 201.583H193.331L202.595 185.359H205.835L196.571 201.583ZM207.563 201.799C206.539 201.799 205.611 201.575 204.779 201.127C203.963 200.663 203.315 200.047 202.835 199.279C202.355 198.511 202.115 197.671 202.115 196.759C202.115 195.831 202.355 194.991 202.835 194.239C203.315 193.471 203.963 192.863 204.779 192.415C205.611 191.951 206.539 191.719 207.563 191.719C208.587 191.719 209.507 191.951 210.323 192.415C211.155 192.863 211.811 193.471 212.291 194.239C212.771 194.991 213.011 195.831 213.011 196.759C213.011 197.671 212.771 198.511 212.291 199.279C211.811 200.047 211.155 200.663 210.323 201.127C209.507 201.575 208.587 201.799 207.563 201.799ZM207.563 198.895C207.947 198.895 208.299 198.823 208.619 198.679C208.939 198.519 209.195 198.279 209.387 197.959C209.579 197.639 209.675 197.239 209.675 196.759C209.675 196.263 209.579 195.863 209.387 195.559C209.195 195.239 208.939 195.007 208.619 194.863C208.299 194.703 207.947 194.623 207.563 194.623C207.195 194.623 206.843 194.703 206.507 194.863C206.187 195.007 205.923 195.239 205.715 195.559C205.523 195.863 205.427 196.263 205.427 196.759C205.427 197.239 205.523 197.639 205.715 197.959C205.923 198.279 206.187 198.519 206.507 198.679C206.843 198.823 207.195 198.895 207.563 198.895Z" fill="black"/>
<ellipse cx="44" cy="269.263" rx="6" ry="5.55181" fill="#661EFF"/>
<ellipse cx="264" cy="269.263" rx="6" ry="5.55181" fill="#64CFF6"/>
<path d="M61.968 298.546C61.176 298.546 60.462 298.39 59.826 298.078C59.19 297.754 58.68 297.316 58.296 296.764C57.924 296.2 57.72 295.558 57.684 294.838H59.502C59.574 295.486 59.832 295.996 60.276 296.368C60.72 296.728 61.284 296.908 61.968 296.908C62.52 296.908 62.982 296.806 63.354 296.602C63.726 296.386 64.002 296.098 64.182 295.738C64.374 295.366 64.47 294.946 64.47 294.478C64.47 294.058 64.368 293.668 64.164 293.308C63.972 292.948 63.69 292.66 63.318 292.444C62.946 292.228 62.49 292.12 61.95 292.12C61.41 292.12 60.936 292.234 60.528 292.462C60.132 292.678 59.808 293.008 59.556 293.452L58.08 292.984L59.16 286.198H65.658V287.818H60.474L59.934 291.328C60.282 291.064 60.648 290.866 61.032 290.734C61.416 290.602 61.812 290.536 62.22 290.536C63.12 290.536 63.876 290.722 64.488 291.094C65.1 291.454 65.562 291.934 65.874 292.534C66.198 293.134 66.36 293.782 66.36 294.478C66.36 295.018 66.264 295.534 66.072 296.026C65.88 296.518 65.592 296.956 65.208 297.34C64.836 297.712 64.38 298.006 63.84 298.222C63.3 298.438 62.676 298.546 61.968 298.546ZM71.9524 298.546C71.1604 298.546 70.4464 298.39 69.8104 298.078C69.1744 297.754 68.6644 297.316 68.2804 296.764C67.9084 296.2 67.7044 295.558 67.6684 294.838H69.4864C69.5584 295.486 69.8164 295.996 70.2604 296.368C70.7044 296.728 71.2684 296.908 71.9524 296.908C72.5044 296.908 72.9664 296.806 73.3384 296.602C73.7104 296.386 73.9864 296.098 74.1664 295.738C74.3584 295.366 74.4544 294.946 74.4544 294.478C74.4544 294.058 74.3524 293.668 74.1484 293.308C73.9564 292.948 73.6744 292.66 73.3024 292.444C72.9304 292.228 72.4744 292.12 71.9344 292.12C71.3944 292.12 70.9204 292.234 70.5124 292.462C70.1164 292.678 69.7924 293.008 69.5404 293.452L68.0644 292.984L69.1444 286.198H75.6424V287.818H70.4584L69.9184 291.328C70.2664 291.064 70.6324 290.866 71.0164 290.734C71.4004 290.602 71.7964 290.536 72.2044 290.536C73.1044 290.536 73.8604 290.722 74.4724 291.094C75.0844 291.454 75.5464 291.934 75.8584 292.534C76.1824 293.134 76.3444 293.782 76.3444 294.478C76.3444 295.018 76.2484 295.534 76.0564 296.026C75.8644 296.518 75.5764 296.956 75.1924 297.34C74.8204 297.712 74.3644 298.006 73.8244 298.222C73.2844 298.438 72.6604 298.546 71.9524 298.546ZM81.2888 293.65C80.5568 293.65 79.9028 293.482 79.3268 293.146C78.7628 292.81 78.3188 292.354 77.9948 291.778C77.6708 291.202 77.5088 290.566 77.5088 289.87C77.5088 289.174 77.6708 288.544 77.9948 287.98C78.3188 287.404 78.7628 286.948 79.3268 286.612C79.9028 286.264 80.5568 286.09 81.2888 286.09C82.0328 286.09 82.6868 286.264 83.2508 286.612C83.8268 286.948 84.2768 287.404 84.6008 287.98C84.9248 288.544 85.0868 289.174 85.0868 289.87C85.0868 290.566 84.9248 291.202 84.6008 291.778C84.2768 292.354 83.8268 292.81 83.2508 293.146C82.6868 293.482 82.0328 293.65 81.2888 293.65ZM81.2888 292.336C81.7088 292.336 82.0868 292.24 82.4228 292.048C82.7588 291.856 83.0288 291.58 83.2328 291.22C83.4488 290.848 83.5568 290.398 83.5568 289.87C83.5568 289.33 83.4488 288.88 83.2328 288.52C83.0288 288.148 82.7588 287.872 82.4228 287.692C82.0868 287.5 81.7088 287.404 81.2888 287.404C80.8928 287.404 80.5208 287.5 80.1728 287.692C79.8248 287.872 79.5488 288.148 79.3447 288.52C79.1408 288.88 79.0388 289.33 79.0388 289.87C79.0388 290.398 79.1408 290.848 79.3447 291.22C79.5488 291.58 79.8248 291.856 80.1728 292.048C80.5208 292.24 80.8928 292.336 81.2888 292.336ZM83.8808 298.366H82.3868L89.2628 286.198H90.7568L83.8808 298.366ZM92.0528 298.51C91.3208 298.51 90.6668 298.342 90.0908 298.006C89.5268 297.67 89.0828 297.214 88.7588 296.638C88.4348 296.062 88.2728 295.426 88.2728 294.73C88.2728 294.034 88.4348 293.404 88.7588 292.84C89.0828 292.264 89.5268 291.808 90.0908 291.472C90.6668 291.124 91.3208 290.95 92.0528 290.95C92.7848 290.95 93.4328 291.124 93.9968 291.472C94.5728 291.808 95.0228 292.264 95.3468 292.84C95.6708 293.404 95.8328 294.034 95.8328 294.73C95.8328 295.426 95.6708 296.062 95.3468 296.638C95.0228 297.214 94.5728 297.67 93.9968 298.006C93.4328 298.342 92.7848 298.51 92.0528 298.51ZM92.0528 297.196C92.4608 297.196 92.8328 297.106 93.1688 296.926C93.5168 296.734 93.7928 296.452 93.9968 296.08C94.2008 295.708 94.3028 295.258 94.3028 294.73C94.3028 294.19 94.2008 293.74 93.9968 293.38C93.7928 293.02 93.5168 292.75 93.1688 292.57C92.8328 292.378 92.4608 292.282 92.0528 292.282C91.6448 292.282 91.2668 292.378 90.9188 292.57C90.5828 292.75 90.3068 293.02 90.0908 293.38C89.8868 293.74 89.7848 294.19 89.7848 294.73C89.7848 295.258 89.8868 295.708 90.0908 296.08C90.3068 296.452 90.5828 296.734 90.9188 296.926C91.2668 297.106 91.6448 297.196 92.0528 297.196Z" fill="black"/>
<path d="M289.802 296.746V298.366H281.936V297.322L285.734 293.218C286.214 292.69 286.598 292.234 286.886 291.85C287.186 291.454 287.402 291.088 287.534 290.752C287.666 290.416 287.732 290.068 287.732 289.708C287.732 289.3 287.642 288.94 287.462 288.628C287.294 288.316 287.054 288.076 286.742 287.908C286.43 287.74 286.064 287.656 285.644 287.656C285.188 287.656 284.792 287.746 284.456 287.926C284.132 288.106 283.874 288.364 283.682 288.7C283.49 289.036 283.394 289.432 283.394 289.888H281.612C281.612 289.132 281.786 288.466 282.134 287.89C282.494 287.302 282.98 286.846 283.592 286.522C284.204 286.186 284.912 286.018 285.716 286.018C286.472 286.018 287.144 286.168 287.732 286.468C288.332 286.768 288.8 287.182 289.136 287.71C289.472 288.226 289.64 288.82 289.64 289.492C289.64 289.948 289.568 290.386 289.424 290.806C289.28 291.214 289.028 291.664 288.668 292.156C288.308 292.648 287.792 293.254 287.12 293.974L284.672 296.746H289.802ZM291.48 292.3C291.48 290.284 291.864 288.736 292.632 287.656C293.412 286.564 294.522 286.018 295.962 286.018C297.402 286.018 298.512 286.564 299.292 287.656C300.072 288.736 300.462 290.284 300.462 292.3C300.462 294.316 300.072 295.864 299.292 296.944C298.524 298.012 297.414 298.546 295.962 298.546C294.51 298.546 293.4 298.012 292.632 296.944C291.864 295.864 291.48 294.316 291.48 292.3ZM293.352 292.3C293.352 293.8 293.574 294.946 294.018 295.738C294.462 296.518 295.11 296.908 295.962 296.908C296.814 296.908 297.462 296.518 297.906 295.738C298.362 294.958 298.59 293.812 298.59 292.3C298.59 290.776 298.362 289.624 297.906 288.844C297.462 288.052 296.814 287.656 295.962 287.656C295.122 287.656 294.474 288.052 294.018 288.844C293.574 289.624 293.352 290.776 293.352 292.3ZM305.658 293.65C304.926 293.65 304.272 293.482 303.696 293.146C303.132 292.81 302.688 292.354 302.364 291.778C302.04 291.202 301.878 290.566 301.878 289.87C301.878 289.174 302.04 288.544 302.364 287.98C302.688 287.404 303.132 286.948 303.696 286.612C304.272 286.264 304.926 286.09 305.658 286.09C306.402 286.09 307.056 286.264 307.62 286.612C308.196 286.948 308.646 287.404 308.97 287.98C309.294 288.544 309.456 289.174 309.456 289.87C309.456 290.566 309.294 291.202 308.97 291.778C308.646 292.354 308.196 292.81 307.62 293.146C307.056 293.482 306.402 293.65 305.658 293.65ZM305.658 292.336C306.078 292.336 306.456 292.24 306.792 292.048C307.128 291.856 307.398 291.58 307.602 291.22C307.818 290.848 307.926 290.398 307.926 289.87C307.926 289.33 307.818 288.88 307.602 288.52C307.398 288.148 307.128 287.872 306.792 287.692C306.456 287.5 306.078 287.404 305.658 287.404C305.262 287.404 304.89 287.5 304.542 287.692C304.194 287.872 303.918 288.148 303.714 288.52C303.51 288.88 303.408 289.33 303.408 289.87C303.408 290.398 303.51 290.848 303.714 291.22C303.918 291.58 304.194 291.856 304.542 292.048C304.89 292.24 305.262 292.336 305.658 292.336ZM308.25 298.366H306.756L313.632 286.198H315.126L308.25 298.366ZM316.422 298.51C315.69 298.51 315.036 298.342 314.46 298.006C313.896 297.67 313.452 297.214 313.128 296.638C312.804 296.062 312.642 295.426 312.642 294.73C312.642 294.034 312.804 293.404 313.128 292.84C313.452 292.264 313.896 291.808 314.46 291.472C315.036 291.124 315.69 290.95 316.422 290.95C317.154 290.95 317.802 291.124 318.366 291.472C318.942 291.808 319.392 292.264 319.716 292.84C320.04 293.404 320.202 294.034 320.202 294.73C320.202 295.426 320.04 296.062 319.716 296.638C319.392 297.214 318.942 297.67 318.366 298.006C317.802 298.342 317.154 298.51 316.422 298.51ZM316.422 297.196C316.83 297.196 317.202 297.106 317.538 296.926C317.886 296.734 318.162 296.452 318.366 296.08C318.57 295.708 318.672 295.258 318.672 294.73C318.672 294.19 318.57 293.74 318.366 293.38C318.162 293.02 317.886 292.75 317.538 292.57C317.202 292.378 316.83 292.282 316.422 292.282C316.014 292.282 315.636 292.378 315.288 292.57C314.952 292.75 314.676 293.02 314.46 293.38C314.256 293.74 314.154 294.19 314.154 294.73C314.154 295.258 314.256 295.708 314.46 296.08C314.676 296.452 314.952 296.734 315.288 296.926C315.636 297.106 316.014 297.196 316.422 297.196Z" fill="black"/>
</svg>
