<svg width="255" height="47" viewBox="0 0 255 47" fill="none" xmlns="http://www.w3.org/2000/svg">
<g clip-path="url(#clip0_47_625)">
<g clip-path="url(#clip1_47_625)">
<mask id="mask0_47_625" style="mask-type:luminance" maskUnits="userSpaceOnUse" x="0" y="-1" width="50" height="48">
<path d="M50 -0.900391H0V46.2807H50V-0.900391Z" fill="white"/>
</mask>
<g mask="url(#mask0_47_625)">
<path d="M30.4758 6.63014L9.47957 21.5134C8.66847 22.0883 8.66807 23.2948 9.47957 23.87L30.4758 38.7532C31.4284 39.4286 32.7554 38.747 32.7554 37.5748V7.80849C32.7554 6.63935 31.4314 5.95255 30.4758 6.63014Z" fill="#6366F1"/>
<path d="M36.9493 19.9902L45.6967 14.0715C46.0346 13.8428 46.035 13.3627 45.6972 13.1336L36.9554 7.20651C36.5588 6.93755 36.006 7.20854 36.0058 7.67501L36.0001 19.5208C35.9999 19.9861 36.5512 20.2597 36.9493 19.9902Z" fill="#6366F1"/>
<path d="M36.9494 37.9902L45.6967 32.0715C46.0346 31.8428 46.035 31.3627 45.6972 31.1336L36.9555 25.2065C36.5589 24.9376 36.0061 25.2085 36.0059 25.675L36.0002 37.5208C36 37.9861 36.5513 38.2597 36.9494 37.9902Z" fill="#6366F1"/>
<path d="M48.072 29.0302L39.3099 23.1379C38.9714 22.9102 38.9696 22.4301 39.3066 22.2L48.0274 16.2466C48.423 15.9765 48.9764 16.2458 48.978 16.7123L49.0194 28.558C49.021 29.0233 48.4707 29.2985 48.072 29.0302Z" fill="#FF8412"/>
</g>
</g>
<path d="M55.4 29.0098V14.7098H67.38C68.86 14.7098 70.0067 15.0831 70.82 15.8298C71.6467 16.5764 72.06 17.7098 72.06 19.2298C72.06 20.7498 71.6467 21.8831 70.82 22.6298C70.0067 23.3764 68.86 23.7498 67.38 23.7498H58.6V29.0098H55.4ZM67 17.3098H58.6V21.1298L67 21.1498C67.5867 21.1498 68.0333 21.0031 68.34 20.7098C68.66 20.4164 68.82 19.9231 68.82 19.2298C68.82 18.5231 68.66 18.0298 68.34 17.7498C68.0333 17.4564 67.5867 17.3098 67 17.3098ZM79.0323 29.1098C77.2457 29.1098 75.8523 28.6698 74.8523 27.7898C73.8523 26.8964 73.3523 25.5898 73.3523 23.8698C73.3523 22.1364 73.8523 20.8298 74.8523 19.9498C75.8523 19.0564 77.2457 18.6098 79.0323 18.6098H84.0323C85.2057 18.6098 86.099 18.8898 86.7123 19.4498C87.339 19.9964 87.6523 20.7831 87.6523 21.8098C87.6523 23.9031 86.4457 24.9498 84.0323 24.9498H76.4723C76.7523 26.1898 77.6057 26.8098 79.0323 26.8098H87.1323V29.1098H79.0323ZM79.0323 20.9098C77.659 20.9098 76.8123 21.4898 76.4923 22.6498H83.8923C84.159 22.6498 84.3657 22.5698 84.5123 22.4098C84.6723 22.2498 84.7523 22.0298 84.7523 21.7498C84.7523 21.1898 84.4657 20.9098 83.8923 20.9098H79.0323ZM94.7355 29.1098C92.9488 29.1098 91.5555 28.6698 90.5555 27.7898C89.5555 26.8964 89.0555 25.5898 89.0555 23.8698C89.0555 22.1364 89.5555 20.8298 90.5555 19.9498C91.5555 19.0564 92.9488 18.6098 94.7355 18.6098H98.4355C100.222 18.6098 101.615 19.0564 102.615 19.9498C103.615 20.8298 104.115 22.1364 104.115 23.8698C104.115 25.5898 103.615 26.8964 102.615 27.7898C101.615 28.6698 100.222 29.1098 98.4355 29.1098H94.7355ZM94.7355 26.8098H98.4355C99.3021 26.8098 99.9621 26.5698 100.415 26.0898C100.882 25.6098 101.115 24.8698 101.115 23.8698C101.115 22.8564 100.882 22.1098 100.415 21.6298C99.9621 21.1498 99.3021 20.9098 98.4355 20.9098H94.7355C93.8688 20.9098 93.2021 21.1498 92.7355 21.6298C92.2821 22.1098 92.0555 22.8564 92.0555 23.8698C92.0555 24.8698 92.2821 25.6098 92.7355 26.0898C93.2021 26.5698 93.8688 26.8098 94.7355 26.8098ZM105.92 33.5098V18.7098H113.32C115.107 18.7098 116.5 19.1498 117.5 20.0298C118.5 20.9098 119 22.1831 119 23.8498C119 25.5298 118.5 26.8098 117.5 27.6898C116.5 28.5698 115.107 29.0098 113.32 29.0098H108.82V33.5098H105.92ZM113.32 21.0098H108.82V26.7098H113.32C114.187 26.7098 114.847 26.4764 115.3 26.0098C115.767 25.5298 116 24.8098 116 23.8498C116 22.9031 115.767 22.1964 115.3 21.7298C114.847 21.2498 114.187 21.0098 113.32 21.0098ZM120.803 29.0098V14.7098H123.703V29.0098H120.803ZM131.181 29.1098C129.394 29.1098 128.001 28.6698 127.001 27.7898C126.001 26.8964 125.501 25.5898 125.501 23.8698C125.501 22.1364 126.001 20.8298 127.001 19.9498C128.001 19.0564 129.394 18.6098 131.181 18.6098H136.181C137.354 18.6098 138.247 18.8898 138.861 19.4498C139.487 19.9964 139.801 20.7831 139.801 21.8098C139.801 23.9031 138.594 24.9498 136.181 24.9498H128.621C128.901 26.1898 129.754 26.8098 131.181 26.8098H139.281V29.1098H131.181ZM131.181 20.9098C129.807 20.9098 128.961 21.4898 128.641 22.6498H136.041C136.307 22.6498 136.514 22.5698 136.661 22.4098C136.821 22.2498 136.901 22.0298 136.901 21.7498C136.901 21.1898 136.614 20.9098 136.041 20.9098H131.181ZM188.611 21.9498V14.7098H206.211V21.9498H202.971V17.3098H198.611V29.0098H195.411V17.3098H191.851V21.9498H188.611ZM210.945 29.0098C209.865 29.0098 209.039 28.7364 208.465 28.1898C207.892 27.6431 207.605 26.8631 207.605 25.8498C207.605 24.8498 207.892 24.0764 208.465 23.5298C209.039 22.9831 209.865 22.7098 210.945 22.7098H218.625V22.2298C218.625 21.4164 218.225 21.0098 217.425 21.0098H208.945V18.7098H218.185C219.399 18.7098 220.259 18.9898 220.765 19.5498C221.272 20.0964 221.525 20.8698 221.525 21.8698V29.0098H210.945ZM211.465 26.7098H218.625V25.0098H211.465C211.212 25.0098 211.012 25.0898 210.865 25.2498C210.732 25.3964 210.665 25.5964 210.665 25.8498C210.665 26.1031 210.732 26.3098 210.865 26.4698C211.012 26.6298 211.212 26.7098 211.465 26.7098ZM223.393 29.1098V26.8098H233.193C233.753 26.8098 234.033 26.4964 234.033 25.8698C234.033 25.2564 233.753 24.9498 233.193 24.9498H226.853C225.666 24.9498 224.766 24.6831 224.153 24.1498C223.539 23.6031 223.233 22.8231 223.233 21.8098C223.233 20.7831 223.539 19.9964 224.153 19.4498C224.779 18.8898 225.679 18.6098 226.853 18.6098H235.973V20.9098H226.993C226.419 20.9098 226.133 21.1898 226.133 21.7498C226.133 22.0298 226.213 22.2498 226.373 22.4098C226.533 22.5698 226.739 22.6498 226.993 22.6498H233.713C234.753 22.6498 235.546 22.9231 236.093 23.4698C236.653 24.0031 236.933 24.7831 236.933 25.8098C236.933 26.8498 236.653 27.6631 236.093 28.2498C235.533 28.8231 234.739 29.1098 233.713 29.1098H223.393ZM238.635 29.0098V14.7098H241.535V18.7098H248.455C249.628 18.7098 250.522 18.9898 251.135 19.5498C251.762 20.0964 252.075 20.8831 252.075 21.9098C252.075 23.5898 251.275 24.5898 249.675 24.9098L252.115 29.0098H248.855L246.495 25.0298H241.535V29.0098H238.635ZM248.315 20.9898H241.535V22.7498H248.315C248.582 22.7498 248.788 22.6698 248.935 22.5098C249.095 22.3498 249.175 22.1298 249.175 21.8498C249.175 21.2764 248.888 20.9898 248.315 20.9898Z" fill="#6366F1"/>
<path d="M141.904 29.0098V14.7098H153.884C155.364 14.7098 156.511 15.0831 157.324 15.8298C158.151 16.5764 158.564 17.7098 158.564 19.2298C158.564 20.7498 158.151 21.8831 157.324 22.6298C156.511 23.3764 155.364 23.7498 153.884 23.7498H145.104V29.0098H141.904ZM153.504 17.3098H145.104V21.1298L153.504 21.1498C154.091 21.1498 154.537 21.0031 154.844 20.7098C155.164 20.4164 155.324 19.9231 155.324 19.2298C155.324 18.5231 155.164 18.0298 154.844 17.7498C154.537 17.4564 154.091 17.3098 153.504 17.3098ZM165.536 29.1098C163.75 29.1098 162.356 28.6698 161.356 27.7898C160.356 26.8964 159.856 25.5898 159.856 23.8698C159.856 22.1364 160.356 20.8298 161.356 19.9498C162.356 19.0564 163.75 18.6098 165.536 18.6098H170.536C171.71 18.6098 172.603 18.8898 173.216 19.4498C173.843 19.9964 174.156 20.7831 174.156 21.8098C174.156 23.9031 172.95 24.9498 170.536 24.9498H162.976C163.256 26.1898 164.11 26.8098 165.536 26.8098H173.636V29.1098H165.536ZM165.536 20.9098C164.163 20.9098 163.316 21.4898 162.996 22.6498H170.396C170.663 22.6498 170.87 22.5698 171.016 22.4098C171.176 22.2498 171.256 22.0298 171.256 21.7498C171.256 21.1898 170.97 20.9098 170.396 20.9098H165.536ZM175.959 29.0098V18.7098H183.839C184.999 18.7098 185.853 19.0031 186.399 19.5898C186.946 20.1631 187.219 20.9231 187.219 21.8698V24.0098H184.279V22.2298C184.279 21.4298 183.879 21.0298 183.079 21.0298H178.899V29.0098H175.959Z" fill="#FF8412"/>
</g>
<defs>
<clipPath id="clip0_47_625">
<rect width="255" height="47" fill="white" transform="translate(0 0.00976562)"/>
</clipPath>
<clipPath id="clip1_47_625">
<rect width="120" height="47.19" fill="white" transform="translate(0 0.00976562)"/>
</clipPath>
</defs>
</svg>
