<svg width="24" height="25" viewBox="0 0 24 25" fill="none" xmlns="http://www.w3.org/2000/svg">
<g clip-path="url(#clip0_47_261)">
<path d="M12.4854 7.23133C9.57014 7.23133 7.04603 9.2561 6.41363 12.1019L4.34257 21.4217C4.32738 21.4901 4.31971 21.5599 4.31971 21.6299C4.31971 22.16 4.74948 22.5899 5.27961 22.5899H19.6912C19.7613 22.5899 19.8311 22.5822 19.8994 22.5669C20.4169 22.452 20.7432 21.9392 20.6283 21.4217L18.5572 12.1019C17.9248 9.2561 15.4007 7.23133 12.4854 7.23133ZM12.4854 5.31152C16.3005 5.31152 19.6037 7.96126 20.4312 11.6855L22.5023 21.0053C22.8473 22.5577 21.8685 24.096 20.3159 24.4411C20.1108 24.4866 19.9013 24.5096 19.6912 24.5096H5.27961C3.68919 24.5096 2.3999 23.2203 2.3999 21.6299C2.3999 21.4197 2.42289 21.2103 2.46848 21.0053L4.53953 11.6855C5.36713 7.96126 8.67033 5.31152 12.4854 5.31152Z" fill="#A9A9A9"/>
<path d="M14.4055 11.0709C14.9357 11.0709 15.3654 11.5007 15.3654 12.0308C15.3654 12.561 14.9357 12.9907 14.4055 12.9907H12.0057C11.7406 12.9907 11.5258 13.2056 11.5258 13.4707C11.5258 13.7358 11.7406 13.9507 12.0057 13.9507H12.9656C14.291 13.9507 15.3654 15.025 15.3654 16.3504C15.3654 17.6757 14.291 18.7502 12.9656 18.7502H10.5659C10.0357 18.7502 9.60596 18.3204 9.60596 17.7903C9.60596 17.2602 10.0357 16.8303 10.5659 16.8303H12.9656C13.2307 16.8303 13.4456 16.6155 13.4456 16.3504C13.4456 16.0854 13.2307 15.8704 12.9656 15.8704H12.0057C10.6804 15.8704 9.60596 14.7961 9.60596 13.4707C9.60596 12.1453 10.6804 11.0709 12.0057 11.0709H14.4055Z" fill="#A9A9A9"/>
<path d="M11.5259 10.111C11.5259 9.58089 11.9556 9.15112 12.4858 9.15112C13.016 9.15112 13.4457 9.58089 13.4457 10.111V12.0308C13.4457 12.5609 13.016 12.9908 12.4858 12.9908C11.9556 12.9908 11.5259 12.5609 11.5259 12.0308V10.111Z" fill="#A9A9A9"/>
<path d="M13.4457 19.7101C13.4457 20.2402 13.016 20.67 12.4858 20.67C11.9556 20.67 11.5259 20.2402 11.5259 19.7101V17.7903C11.5259 17.2602 11.9556 16.8304 12.4858 16.8304C13.016 16.8304 13.4457 17.2602 13.4457 17.7903V19.7101Z" fill="#A9A9A9"/>
<path d="M11.457 5.91498C11.6539 6.4072 11.4145 6.96584 10.9223 7.16273C10.43 7.35962 9.8714 7.1202 9.67451 6.62798L7.7547 1.82846C7.44272 1.04853 8.21221 0.272412 8.99479 0.577678C9.71359 0.858069 10.2493 0.992002 10.5658 0.992002C10.6445 0.992002 10.7098 0.975168 10.8524 0.914596C10.8902 0.898515 10.9347 0.878881 11.0389 0.83275C11.5354 0.615171 11.9276 0.51205 12.4856 0.51205C13.0422 0.51205 13.4406 0.615445 13.9388 0.830923C14.0651 0.886267 14.1156 0.908279 14.1603 0.926683C14.2834 0.977361 14.3426 0.992002 14.4054 0.992002C14.7033 0.992002 15.2439 0.856864 15.9833 0.575005C16.7649 0.277067 17.5271 1.05181 17.2164 1.82846L15.2967 6.62798C15.0998 7.1202 14.5412 7.35962 14.0489 7.16273C13.5567 6.96584 13.3173 6.4072 13.5141 5.91498L14.722 2.8953C14.6116 2.90628 14.5061 2.91182 14.4054 2.91182C14.055 2.91182 13.7648 2.83998 13.4294 2.70189C13.3631 2.67461 13.2905 2.64296 13.1765 2.59294C12.8987 2.47272 12.7413 2.43186 12.4856 2.43186C12.2324 2.43186 12.0837 2.47095 11.8095 2.59112C11.7153 2.63284 11.6557 2.65919 11.6032 2.68149C11.2437 2.83427 10.9429 2.91182 10.5658 2.91182C10.4644 2.91182 10.359 2.90655 10.2495 2.89608L11.457 5.91498Z" fill="#A9A9A9"/>
</g>
<defs>
<clipPath id="clip0_47_261">
<rect width="24" height="24" fill="white" transform="translate(0 0.509644)"/>
</clipPath>
</defs>
</svg>
