<svg width="23" height="23" viewBox="0 0 23 23" fill="none" xmlns="http://www.w3.org/2000/svg">
<g clip-path="url(#clip0_47_588)">
<path fill-rule="evenodd" clip-rule="evenodd" d="M16.9018 15.9242C18.3108 13.9684 19.2741 11.8188 19.2741 9.64294C19.2741 5.7542 16.1217 2.60173 12.2329 2.60173C8.34417 2.60173 5.1917 5.7542 5.1917 9.64294C5.1917 11.8188 6.15504 13.9684 7.56405 15.9242C8.96246 17.8652 10.6819 19.4507 11.9079 20.4548C12.109 20.6194 12.3568 20.6194 12.5579 20.4548C13.7839 19.4507 15.5033 17.8652 16.9018 15.9242ZM13.8327 22.011C16.4321 19.882 21.2859 15.1669 21.2859 9.64294C21.2859 4.64313 17.2328 0.589966 12.2329 0.589966C7.23309 0.589966 3.17993 4.64313 3.17993 9.64294C3.17993 15.1669 8.0337 19.882 10.6331 22.011C11.5757 22.7829 12.8902 22.7829 13.8327 22.011Z" fill="white"/>
<path fill-rule="evenodd" clip-rule="evenodd" d="M12.233 7.63128C11.1219 7.63128 10.2212 8.53197 10.2212 9.64304C10.2212 10.7541 11.1219 11.6548 12.233 11.6548C13.3441 11.6548 14.2448 10.7541 14.2448 9.64304C14.2448 8.53197 13.3441 7.63128 12.233 7.63128ZM8.20947 9.64304C8.20947 7.4209 10.0109 5.61951 12.233 5.61951C14.4551 5.61951 16.2566 7.4209 16.2566 9.64304C16.2566 11.8651 14.4551 13.6666 12.233 13.6666C10.0109 13.6666 8.20947 11.8651 8.20947 9.64304Z" fill="white"/>
</g>
<defs>
<clipPath id="clip0_47_588">
<rect width="22" height="22" fill="white" transform="translate(0.97998 0.589966)"/>
</clipPath>
</defs>
</svg>
