<svg width="23" height="23" viewBox="0 0 23 23" fill="none" xmlns="http://www.w3.org/2000/svg">
<g clip-path="url(#clip0_47_593)">
<path fill-rule="evenodd" clip-rule="evenodd" d="M3.81992 1.53324C5.20565 0.147515 7.49745 0.310387 8.67326 1.87816L10.6251 4.48056C11.5866 5.76262 11.4592 7.55664 10.3259 8.68984L8.88691 10.1288C9.02637 10.4919 9.48546 11.2884 10.8835 12.6864C12.2815 14.0844 13.0781 14.5436 13.4411 14.6831L14.8801 13.244C16.0134 12.1108 17.8073 11.9833 19.0894 12.9449L21.6918 14.8967C23.2595 16.0726 23.4225 18.3643 22.0367 19.7501C21.5862 20.2005 21.5099 20.2768 20.7581 21.0286C19.9919 21.7949 18.365 22.511 16.7177 22.5826C14.1401 22.6947 10.6388 21.5502 6.3293 17.2407C2.01981 12.9312 0.875239 9.42987 0.987316 6.8522C1.04966 5.41831 1.50554 3.84344 2.54734 2.81782C3.29316 2.06001 3.39016 1.96301 3.81992 1.53324ZM3.13215 6.94546C3.05447 8.73224 3.8075 11.6828 7.84737 15.7227C11.8872 19.7625 14.8377 20.5155 16.6245 20.4378C18.2924 20.3652 19.1873 19.5592 19.2401 19.5105L20.5186 18.232C20.9805 17.7701 20.9263 17.0061 20.4037 16.6142L17.8012 14.6624C17.3739 14.3418 16.7759 14.3844 16.3981 14.7621C15.8291 15.3313 15.4406 15.7254 14.6802 16.4831C13.1004 18.0569 10.3964 15.2354 9.36543 14.2046C8.41804 13.2571 5.53087 10.4672 7.08535 8.89428C7.08843 8.89119 7.50713 8.4725 8.80784 7.17177C9.18559 6.79404 9.22809 6.19603 8.90757 5.76868L6.95576 3.16629C6.56382 2.64369 5.79989 2.5894 5.33799 3.0513C4.91284 3.47644 4.43171 3.95757 4.0607 4.33116C3.29709 5.10005 3.17303 6.00556 3.13215 6.94546Z" fill="white"/>
</g>
<defs>
<clipPath id="clip0_47_593">
<rect width="22" height="22" fill="white" transform="translate(0.97998 0.589966)"/>
</clipPath>
</defs>
</svg>
