<svg width="24" height="25" viewBox="0 0 24 25" fill="none" xmlns="http://www.w3.org/2000/svg">
<g clip-path="url(#clip0_47_269)">
<path d="M11.5874 0.119629C6.52139 0.119629 2.3999 4.24111 2.3999 9.30713C2.3999 10.9287 2.82834 12.523 3.63885 13.9175C3.82781 14.2427 4.03903 14.5595 4.26674 14.8592L11.1882 24.1196H11.9865L18.9081 14.8592C19.1357 14.5595 19.3469 14.2427 19.5359 13.9176C20.3465 12.5229 20.7749 10.9287 20.7749 9.30713C20.7749 4.24111 16.6534 0.119629 11.5874 0.119629ZM11.5874 12.354C9.90735 12.354 8.54053 10.9872 8.54053 9.30713C8.54053 7.62708 9.90735 6.26026 11.5874 6.26026C13.2675 6.26026 14.6343 7.62708 14.6343 9.30713C14.6343 10.9872 13.2675 12.354 11.5874 12.354Z" fill="#A9A9A9"/>
</g>
<defs>
<clipPath id="clip0_47_269">
<rect width="24" height="24" fill="white" transform="translate(0 0.119629)"/>
</clipPath>
</defs>
</svg>
