<svg width="23" height="23" viewBox="0 0 23 23" fill="none" xmlns="http://www.w3.org/2000/svg">
<g clip-path="url(#clip0_47_596)">
<path fill-rule="evenodd" clip-rule="evenodd" d="M19.9799 4.78992H3.97998C3.4277 4.78992 2.97998 5.23764 2.97998 5.78991V17.79C2.97998 18.3423 3.4277 18.79 3.97998 18.79H19.9799C20.5323 18.79 20.98 18.3423 20.98 17.79V5.78991C20.98 5.23764 20.5323 4.78992 19.9799 4.78992ZM3.97998 2.78992C2.32314 2.78992 0.97998 4.13307 0.97998 5.78991V17.79C0.97998 19.4468 2.32314 20.7899 3.97998 20.7899H19.9799C21.6369 20.7899 22.98 19.4468 22.98 17.79V5.78991C22.98 4.13307 21.6369 2.78992 19.9799 2.78992H3.97998Z" fill="white"/>
<path fill-rule="evenodd" clip-rule="evenodd" d="M5.21178 7.14964C5.56536 6.72536 6.19591 6.66804 6.62019 7.0216L11.3398 10.9546C11.7107 11.2636 12.2493 11.2636 12.6203 10.9546L17.3398 7.0216C17.7641 6.66804 18.3947 6.72536 18.7483 7.14964C19.1018 7.57392 19.0445 8.20447 18.6202 8.55805L13.9006 12.4911C12.788 13.4183 11.172 13.4183 10.0594 12.4911L5.33982 8.55805C4.91554 8.20447 4.85822 7.57392 5.21178 7.14964Z" fill="white"/>
</g>
<defs>
<clipPath id="clip0_47_596">
<rect width="22" height="22" fill="white" transform="translate(0.97998 0.589966)"/>
</clipPath>
</defs>
</svg>
