<svg width="82" height="81" viewBox="0 0 82 81" fill="none" xmlns="http://www.w3.org/2000/svg">
<rect x="0.5" width="81" height="81" rx="20" fill="#FF754C"/>
<g clip-path="url(#clip0_62_159)">
<path d="M39.1302 38.1858C38.0969 39.1945 38.0969 40.8292 39.1302 41.8372C40.1626 42.8458 41.8382 42.8458 42.8706 41.8372C43.9038 40.8286 43.9038 39.1937 42.8706 38.1858C41.8374 37.178 40.1626 37.178 39.1302 38.1858ZM41 20C29.6779 20 20.5 28.9594 20.5 40.0119C20.5 51.0645 29.6779 60.0238 41 60.0238C52.3221 60.0238 61.5 51.0645 61.5 40.0119C61.5 28.9594 52.3221 20 41 20ZM51.4269 31.9466L45.9737 43.5947C45.7099 44.158 45.2472 44.6096 44.6701 44.8671L32.7388 50.1906C31.3625 50.8045 29.944 49.42 30.5731 48.0764L36.0271 36.4283C36.2909 35.865 36.7536 35.4133 37.3307 35.1558L49.2619 29.8325C50.6383 29.2192 52.0559 30.6031 51.4269 31.9466Z" fill="white"/>
</g>
<defs>
<clipPath id="clip0_62_159">
<rect width="41" height="41" fill="white" transform="translate(20.5 20)"/>
</clipPath>
</defs>
</svg>
