<svg width="82" height="81" viewBox="0 0 82 81" fill="none" xmlns="http://www.w3.org/2000/svg">
<rect x="0.830078" width="81" height="81" rx="20" fill="#BF58D9"/>
<g clip-path="url(#clip0_62_167)">
<path d="M39.4603 38.1858C38.427 39.1945 38.427 40.8292 39.4603 41.8372C40.4927 42.8458 42.1683 42.8458 43.2007 41.8372C44.2339 40.8286 44.2339 39.1937 43.2007 38.1858C42.1675 37.178 40.4927 37.178 39.4603 38.1858ZM41.3301 20C30.008 20 20.8301 28.9594 20.8301 40.0119C20.8301 51.0645 30.008 60.0238 41.3301 60.0238C52.6522 60.0238 61.8301 51.0645 61.8301 40.0119C61.8301 28.9594 52.6522 20 41.3301 20ZM51.757 31.9466L46.3038 43.5947C46.04 44.158 45.5773 44.6096 45.0002 44.8671L33.0689 50.1906C31.6926 50.8045 30.2741 49.42 30.9032 48.0764L36.3572 36.4283C36.6209 35.865 37.0837 35.4133 37.6607 35.1558L49.592 29.8325C50.9684 29.2192 52.3859 30.6031 51.757 31.9466Z" fill="white"/>
</g>
<defs>
<clipPath id="clip0_62_167">
<rect width="41" height="41" fill="white" transform="translate(20.8301 20)"/>
</clipPath>
</defs>
</svg>
