<svg width="19" height="18" viewBox="0 0 19 18" fill="none" xmlns="http://www.w3.org/2000/svg">
<g clip-path="url(#clip0_76_481)">
<path d="M18.0645 16.4593L15.5232 13.927C16.9009 12.2251 17.573 10.0594 17.4008 7.87657C17.2287 5.69373 16.2255 3.66015 14.5981 2.19517C12.9708 0.730194 10.8433 -0.0544843 8.65445 0.00294371C6.46558 0.0603717 4.38219 0.955527 2.8339 2.50382C1.2856 4.05211 0.39045 6.1355 0.333022 8.32437C0.275594 10.5132 1.06027 12.6407 2.52525 14.268C3.99023 15.8955 6.0238 16.8986 8.20665 17.0707C10.3895 17.2429 12.5552 16.5708 14.2571 15.1931L16.7894 17.7344C16.8729 17.8185 16.9722 17.8854 17.0816 17.9309C17.191 17.9765 17.3084 18 17.4269 18C17.5455 18 17.6628 17.9765 17.7722 17.9309C17.8817 17.8854 17.981 17.8185 18.0645 17.7344C18.1486 17.6509 18.2154 17.5516 18.261 17.4421C18.3066 17.3328 18.3301 17.2154 18.3301 17.0968C18.3301 16.9783 18.3066 16.8609 18.261 16.7515C18.2154 16.6421 18.1486 16.5428 18.0645 16.4593ZM2.16159 8.56621C2.16159 7.23422 2.55658 5.93214 3.29659 4.82462C4.03662 3.7171 5.08843 2.8539 6.31904 2.34416C7.54964 1.83444 8.90376 1.70106 10.2102 1.96092C11.5166 2.22078 12.7166 2.8622 13.6584 3.80406C14.6003 4.74592 15.2417 5.94594 15.5016 7.25233C15.7615 8.55874 15.6281 9.91287 15.1183 11.1435C14.6086 12.3741 13.7454 13.4259 12.6379 14.1659C11.5304 14.9059 10.2283 15.3009 8.89629 15.3009C7.11014 15.3009 5.39715 14.5914 4.13414 13.3283C2.87114 12.0654 2.16159 10.3524 2.16159 8.56621Z" fill="#646464"/>
</g>
<defs>
<clipPath id="clip0_76_481">
<rect width="18" height="18" fill="white" transform="translate(0.330078)"/>
</clipPath>
</defs>
</svg>
