<svg width="20" height="19" viewBox="0 0 20 19" fill="none" xmlns="http://www.w3.org/2000/svg">
<g clip-path="url(#clip0_820_28)">
<path d="M19.6104 17.4503L14.3515 12.4541C15.4891 11.1104 16.1082 9.45262 16.1082 7.70348C16.1082 5.67361 15.2762 3.76534 13.7651 2.32986C12.2543 0.894792 10.2458 0.10437 8.10914 0.10437C5.97245 0.10437 3.96373 0.894792 2.4527 2.33007C0.941887 3.76534 0.109863 5.67382 0.109863 7.70369C0.109863 9.73355 0.941887 11.6418 2.4527 13.0771C3.96351 14.5126 5.97245 15.303 8.10914 15.303C9.95035 15.303 11.6954 14.7149 13.1098 13.6341L18.3687 18.6301C18.54 18.7927 18.765 18.8743 18.9896 18.8743C19.2141 18.8743 19.4392 18.7927 19.6104 18.6299C19.9535 18.3043 19.9535 17.7758 19.6104 17.4503ZM3.69459 11.8973C2.51549 10.7772 1.86611 9.28787 1.86611 7.70369C1.86611 6.1195 2.51549 4.63022 3.69459 3.51007C4.87369 2.38992 6.44158 1.77281 8.10914 1.77281C9.7767 1.77281 11.3444 2.38971 12.5235 3.50986C13.7026 4.63001 14.352 6.1195 14.352 7.70348C14.352 9.28766 13.7026 10.7769 12.5235 11.8971C11.3444 13.0172 9.7767 13.6341 8.10914 13.6341C6.44158 13.6344 4.87369 13.0175 3.69459 11.8973Z" fill="#787486"/>
</g>
<defs>
<clipPath id="clip0_820_28">
<rect width="20" height="19" fill="white"/>
</clipPath>
</defs>
</svg>
