<svg width="25" height="24" viewBox="0 0 25 24" fill="none" xmlns="http://www.w3.org/2000/svg">
<path d="M12.0211 15C13.678 15 15.0211 13.6569 15.0211 12C15.0211 10.3431 13.678 9 12.0211 9C10.3643 9 9.02112 10.3431 9.02112 12C9.02112 13.6569 10.3643 15 12.0211 15Z" stroke="white" stroke-width="2" stroke-linecap="round" stroke-linejoin="round"/>
<path d="M18.7484 14.7273C18.6274 15.0015 18.5913 15.3056 18.6448 15.6005C18.6982 15.8954 18.8388 16.1676 19.0484 16.3818L19.1029 16.4364C19.272 16.6052 19.4061 16.8057 19.4976 17.0265C19.5891 17.2472 19.6362 17.4838 19.6362 17.7227C19.6362 17.9617 19.5891 18.1983 19.4976 18.419C19.4061 18.6397 19.272 18.8402 19.1029 19.0091C18.9341 19.1781 18.7336 19.3122 18.5128 19.4037C18.2921 19.4952 18.0555 19.5423 17.8166 19.5423C17.5776 19.5423 17.341 19.4952 17.1203 19.4037C16.8996 19.3122 16.6991 19.1781 16.5302 19.0091L16.4757 18.9545C16.2614 18.745 15.9893 18.6044 15.6944 18.5509C15.3995 18.4974 15.0953 18.5335 14.8211 18.6545C14.5522 18.7698 14.3229 18.9611 14.1614 19.205C13.9999 19.4489 13.9132 19.7347 13.912 20.0273V20.1818C13.912 20.664 13.7205 21.1265 13.3795 21.4675C13.0385 21.8084 12.5761 22 12.0938 22C11.6116 22 11.1492 21.8084 10.8082 21.4675C10.4672 21.1265 10.2757 20.664 10.2757 20.1818V20.1C10.2686 19.7991 10.1712 19.5073 9.99613 19.2625C9.82103 19.0176 9.57633 18.8312 9.29385 18.7273C9.01965 18.6063 8.71549 18.5702 8.42058 18.6236C8.12568 18.6771 7.85355 18.8177 7.6393 19.0273L7.58475 19.0818C7.41589 19.2509 7.21537 19.385 6.99465 19.4765C6.77392 19.568 6.53733 19.6151 6.29839 19.6151C6.05945 19.6151 5.82286 19.568 5.60214 19.4765C5.38141 19.385 5.18089 19.2509 5.01203 19.0818C4.84298 18.913 4.70887 18.7124 4.61737 18.4917C4.52587 18.271 4.47878 18.0344 4.47878 17.7955C4.47878 17.5565 4.52587 17.3199 4.61737 17.0992C4.70887 16.8785 4.84298 16.678 5.01203 16.5091L5.06657 16.4545C5.27615 16.2403 5.41674 15.9682 5.47021 15.6733C5.52368 15.3784 5.48759 15.0742 5.36657 14.8C5.25133 14.5311 5.05999 14.3018 4.81609 14.1403C4.57219 13.9788 4.28638 13.8921 3.99385 13.8909H3.8393C3.35709 13.8909 2.89463 13.6994 2.55365 13.3584C2.21268 13.0174 2.02112 12.5549 2.02112 12.0727C2.02112 11.5905 2.21268 11.1281 2.55365 10.7871C2.89463 10.4461 3.35709 10.2545 3.8393 10.2545H3.92112C4.22202 10.2475 4.51385 10.1501 4.75866 9.97501C5.00348 9.79991 5.18995 9.55521 5.29385 9.27273C5.41486 8.99853 5.45096 8.69437 5.39749 8.39947C5.34401 8.10456 5.20342 7.83244 4.99385 7.61818L4.9393 7.56364C4.77025 7.39478 4.63614 7.19425 4.54465 6.97353C4.45315 6.7528 4.40605 6.51621 4.40605 6.27727C4.40605 6.03834 4.45315 5.80174 4.54465 5.58102C4.63614 5.36029 4.77025 5.15977 4.9393 4.99091C5.10816 4.82186 5.30868 4.68775 5.52941 4.59626C5.75013 4.50476 5.98673 4.45766 6.22566 4.45766C6.4646 4.45766 6.7012 4.50476 6.92192 4.59626C7.14264 4.68775 7.34317 4.82186 7.51203 4.99091L7.56657 5.04545C7.78083 5.25503 8.05295 5.39562 8.34786 5.4491C8.64276 5.50257 8.94692 5.46647 9.22112 5.34545H9.29385C9.56273 5.23022 9.79204 5.03887 9.95357 4.79497C10.1151 4.55107 10.2018 4.26526 10.2029 3.97273V3.81818C10.2029 3.33597 10.3945 2.87351 10.7355 2.53253C11.0764 2.19156 11.5389 2 12.0211 2C12.5033 2 12.9658 2.19156 13.3068 2.53253C13.6477 2.87351 13.8393 3.33597 13.8393 3.81818V3.9C13.8405 4.19253 13.9271 4.47834 14.0887 4.72224C14.2502 4.96614 14.4795 5.15749 14.7484 5.27273C15.0226 5.39374 15.3267 5.42984 15.6217 5.37637C15.9166 5.3229 16.1887 5.18231 16.4029 4.97273L16.4575 4.91818C16.6263 4.74913 16.8269 4.61503 17.0476 4.52353C17.2683 4.43203 17.5049 4.38493 17.7438 4.38493C17.9828 4.38493 18.2194 4.43203 18.4401 4.52353C18.6608 4.61503 18.8613 4.74913 19.0302 4.91818C19.1993 5.08704 19.3334 5.28757 19.4249 5.50829C19.5164 5.72901 19.5635 5.96561 19.5635 6.20455C19.5635 6.44348 19.5164 6.68008 19.4249 6.9008C19.3334 7.12152 19.1993 7.32205 19.0302 7.49091L18.9757 7.54545C18.7661 7.75971 18.6255 8.03183 18.572 8.32674C18.5186 8.62164 18.5546 8.9258 18.6757 9.2V9.27273C18.7909 9.54161 18.9823 9.77093 19.2262 9.93245C19.4701 10.094 19.7559 10.1807 20.0484 10.1818H20.2029C20.6851 10.1818 21.1476 10.3734 21.4886 10.7144C21.8296 11.0553 22.0211 11.5178 22.0211 12C22.0211 12.4822 21.8296 12.9447 21.4886 13.2856C21.1476 13.6266 20.6851 13.8182 20.2029 13.8182H20.1211C19.8286 13.8193 19.5428 13.906 19.2989 14.0676C19.055 14.2291 18.8636 14.4584 18.7484 14.7273Z" stroke="white" stroke-width="2" stroke-linecap="round" stroke-linejoin="round"/>
</svg>
