<svg width="25" height="24" viewBox="0 0 25 24" fill="none" xmlns="http://www.w3.org/2000/svg">
<path d="M9.02112 11.5L11.0211 13.5L15.5211 8.99999M20.0211 12C20.0211 16.9084 14.6672 20.4784 12.7191 21.6149C12.4977 21.744 12.387 21.8086 12.2308 21.8421C12.1096 21.8681 11.9327 21.8681 11.8114 21.8421C11.6552 21.8086 11.5445 21.744 11.3231 21.6149C9.37508 20.4784 4.02112 16.9084 4.02112 12V7.21759C4.02112 6.41808 4.02112 6.01833 4.15188 5.6747C4.26739 5.37113 4.4551 5.10027 4.69878 4.88552C4.97461 4.64243 5.34892 4.50207 6.09752 4.22134L11.4593 2.21067C11.6672 2.13271 11.7712 2.09373 11.8781 2.07827C11.973 2.06457 12.0693 2.06457 12.1641 2.07827C12.2711 2.09373 12.375 2.13271 12.5829 2.21067L17.9447 4.22134C18.6933 4.50207 19.0676 4.64243 19.3435 4.88552C19.5871 5.10027 19.7748 5.37113 19.8904 5.6747C20.0211 6.01833 20.0211 6.41808 20.0211 7.21759V12Z" stroke="white" stroke-width="2" stroke-linecap="round" stroke-linejoin="round"/>
</svg>
