<svg width="18" height="19" viewBox="0 0 18 19" fill="none" xmlns="http://www.w3.org/2000/svg">
<g clip-path="url(#clip0_47_216)">
<path d="M17.9516 7.0132C17.813 6.58635 17.3986 6.29297 16.8151 6.20821L12.1866 5.53558L10.1168 1.3416C9.85581 0.812732 9.44874 0.509399 8.99999 0.509399C8.55125 0.509399 8.1442 0.812732 7.8832 1.3416L5.81342 5.53556L1.18498 6.20817C0.601315 6.29293 0.187063 6.58635 0.0483693 7.01312C-0.090289 7.43992 0.0724166 7.92076 0.494685 8.33242L3.84383 11.5969L3.05319 16.2067C2.94923 16.8131 3.12578 17.1757 3.29225 17.3731C3.48695 17.604 3.77098 17.7312 4.09203 17.7312C4.33475 17.7312 4.59326 17.6601 4.86021 17.5196L8.99999 15.3432L13.1397 17.5196C13.4068 17.6599 13.6652 17.7312 13.9081 17.7312C14.2292 17.7312 14.5132 17.604 14.7079 17.3731C14.8743 17.1757 15.051 16.8131 14.9469 16.2067L14.1562 11.5969L17.5053 8.33249C17.9276 7.92084 18.0903 7.43996 17.9516 7.0132Z" fill="#FF8412"/>
</g>
<defs>
<clipPath id="clip0_47_216">
<rect width="18" height="18" fill="white" transform="translate(0 0.509399)"/>
</clipPath>
</defs>
</svg>
