<svg width="19" height="19" viewBox="0 0 19 19" fill="none" xmlns="http://www.w3.org/2000/svg">
<g clip-path="url(#clip0_47_224)">
<path d="M18.0815 7.0132C17.9429 6.58635 17.5285 6.29297 16.9449 6.20821L12.3165 5.53558L10.2467 1.3416C9.98569 0.812732 9.57862 0.509399 9.12987 0.509399C8.68113 0.509399 8.27408 0.812732 8.01308 1.3416L5.9433 5.53556L1.31487 6.20817C0.731198 6.29293 0.316946 6.58635 0.178252 7.01312C0.0395939 7.43992 0.202299 7.92076 0.624568 8.33242L3.97371 11.5969L3.18307 16.2067C3.07911 16.8131 3.25566 17.1757 3.42214 17.3731C3.61683 17.604 3.90086 17.7312 4.22191 17.7312C4.46463 17.7312 4.72314 17.6601 4.99009 17.5196L9.12987 15.3432L13.2696 17.5196C13.5366 17.6599 13.7951 17.7312 14.0379 17.7312C14.3591 17.7312 14.6431 17.604 14.8378 17.3731C15.0042 17.1757 15.1809 16.8131 15.0768 16.2067L14.2861 11.5969L17.6352 8.33249C18.0575 7.92084 18.2202 7.43996 18.0815 7.0132Z" fill="#D8D8D8"/>
</g>
<defs>
<clipPath id="clip0_47_224">
<rect width="18" height="18" fill="white" transform="translate(0.129883 0.509399)"/>
</clipPath>
</defs>
</svg>
