<svg width="130" height="18" viewBox="0 0 130 18" fill="none" xmlns="http://www.w3.org/2000/svg">
<path d="M17.9516 6.5038C17.813 6.07695 17.3986 5.78357 16.8151 5.69881L12.1866 5.02618L10.1168 0.832196C9.85581 0.303332 9.44874 0 8.99999 0C8.55125 0 8.1442 0.303332 7.8832 0.832196L5.81341 5.02616L1.18498 5.69877C0.601315 5.78354 0.187063 6.07695 0.0483693 6.50372C-0.090289 6.93052 0.0724166 7.41136 0.494685 7.82302L3.84383 11.0875L3.05319 15.6973C2.94923 16.3037 3.12578 16.6663 3.29225 16.8637C3.48695 17.0946 3.77098 17.2218 4.09203 17.2218C4.33475 17.2218 4.59326 17.1507 4.86021 17.0102L8.99999 14.8338L13.1397 17.0102C13.4068 17.1505 13.6652 17.2218 13.9081 17.2218C14.2292 17.2218 14.5132 17.0946 14.7079 16.8637C14.8743 16.6663 15.051 16.3037 14.9469 15.6973L14.1562 11.0875L17.5053 7.82309C17.9276 7.41144 18.0903 6.93056 17.9516 6.5038Z" fill="#FE8D4D"/>
<path d="M45.9516 6.5038C45.813 6.07695 45.3986 5.78357 44.8151 5.69881L40.1866 5.02618L38.1168 0.832196C37.8558 0.303332 37.4487 0 37 0C36.5513 0 36.1442 0.303332 35.8832 0.832196L33.8134 5.02616L29.185 5.69877C28.6013 5.78354 28.1871 6.07695 28.0484 6.50372C27.9097 6.93052 28.0724 7.41136 28.4947 7.82302L31.8438 11.0875L31.0532 15.6973C30.9492 16.3037 31.1258 16.6663 31.2923 16.8637C31.487 17.0946 31.771 17.2218 32.092 17.2218C32.3348 17.2218 32.5933 17.1507 32.8602 17.0102L37 14.8338L41.1397 17.0102C41.4068 17.1505 41.6652 17.2218 41.9081 17.2218C42.2292 17.2218 42.5132 17.0946 42.7079 16.8637C42.8743 16.6663 43.051 16.3037 42.9469 15.6973L42.1562 11.0875L45.5053 7.82309C45.9276 7.41144 46.0903 6.93056 45.9516 6.5038Z" fill="#FE8D4D"/>
<path d="M73.9516 6.5038C73.813 6.07695 73.3986 5.78357 72.8151 5.69881L68.1866 5.02618L66.1168 0.832196C65.8558 0.303332 65.4487 0 65 0C64.5513 0 64.1442 0.303332 63.8832 0.832196L61.8134 5.02616L57.185 5.69877C56.6013 5.78354 56.1871 6.07695 56.0484 6.50372C55.9097 6.93052 56.0724 7.41136 56.4947 7.82302L59.8438 11.0875L59.0532 15.6973C58.9492 16.3037 59.1258 16.6663 59.2923 16.8637C59.487 17.0946 59.771 17.2218 60.092 17.2218C60.3348 17.2218 60.5933 17.1507 60.8602 17.0102L65 14.8338L69.1397 17.0102C69.4068 17.1505 69.6652 17.2218 69.9081 17.2218C70.2292 17.2218 70.5132 17.0946 70.7079 16.8637C70.8743 16.6663 71.051 16.3037 70.9469 15.6973L70.1562 11.0875L73.5053 7.82309C73.9276 7.41144 74.0903 6.93056 73.9516 6.5038Z" fill="#FE8D4D"/>
<path d="M101.952 6.5038C101.813 6.07695 101.399 5.78357 100.815 5.69881L96.1866 5.02618L94.1168 0.832196C93.8558 0.303332 93.4487 0 93 0C92.5513 0 92.1442 0.303332 91.8832 0.832196L89.8134 5.02616L85.185 5.69877C84.6013 5.78354 84.1871 6.07695 84.0484 6.50372C83.9097 6.93052 84.0724 7.41136 84.4947 7.82302L87.8438 11.0875L87.0532 15.6973C86.9492 16.3037 87.1258 16.6663 87.2923 16.8637C87.487 17.0946 87.771 17.2218 88.092 17.2218C88.3348 17.2218 88.5933 17.1507 88.8602 17.0102L93 14.8338L97.1397 17.0102C97.4068 17.1505 97.6652 17.2218 97.9081 17.2218C98.2292 17.2218 98.5132 17.0946 98.7079 16.8637C98.8743 16.6663 99.051 16.3037 98.9469 15.6973L98.1562 11.0875L101.505 7.82309C101.928 7.41144 102.09 6.93056 101.952 6.5038Z" fill="#FE8D4D"/>
<path d="M129.952 6.5038C129.813 6.07695 129.399 5.78357 128.815 5.69881L124.187 5.02619L122.117 0.832196C121.856 0.303332 121.449 0 121 0C120.551 0 120.144 0.303332 119.883 0.832196L117.813 5.02616L113.185 5.69877C112.601 5.78353 112.187 6.07695 112.048 6.50372C111.91 6.93052 112.072 7.41136 112.495 7.82302L115.844 11.0875L115.053 15.6973C114.949 16.3037 115.126 16.6663 115.292 16.8637C115.487 17.0946 115.771 17.2218 116.092 17.2218C116.335 17.2218 116.593 17.1507 116.86 17.0102L121 14.8338L125.14 17.0102C125.407 17.1505 125.665 17.2218 125.908 17.2218C126.229 17.2218 126.513 17.0946 126.708 16.8637C126.874 16.6663 127.051 16.3037 126.947 15.6973L126.156 11.0875L129.505 7.82309C129.928 7.41144 130.09 6.93056 129.952 6.5038Z" fill="#D6D6D6"/>
</svg>
