<svg width="668" height="382" viewBox="0 0 668 382" fill="none" xmlns="http://www.w3.org/2000/svg">
<rect width="668" height="382" rx="20" fill="#1D1D41"/>
<path d="M28.872 37.4H36.504L37.464 40.304H27.816L28.872 37.4ZM37.296 44L32.688 30.752L27.984 44H24.312L30.792 26.768H34.776L41.208 44H37.296ZM46.3553 37.016V44H43.0193V31.184H46.0913V33.008C46.5713 32.368 47.1313 31.864 47.7713 31.496C48.4273 31.128 49.1793 30.944 50.0273 30.944C51.3233 30.944 52.3713 31.36 53.1713 32.192C53.9713 33.008 54.3713 34.184 54.3713 35.72V44H51.0593V36.848C51.0593 35.888 50.8673 35.16 50.4833 34.664C50.1153 34.152 49.5553 33.896 48.8033 33.896C48.3553 33.896 47.9393 34.016 47.5553 34.256C47.1873 34.48 46.8913 34.824 46.6673 35.288C46.4593 35.736 46.3553 36.312 46.3553 37.016ZM64.8778 44V42.416C64.4618 43.008 63.9338 43.464 63.2938 43.784C62.6538 44.088 61.8938 44.24 61.0138 44.24C59.6858 44.24 58.6138 43.88 57.7978 43.16C56.9818 42.44 56.5738 41.48 56.5738 40.28C56.5738 39.032 57.0698 38.08 58.0618 37.424C59.0538 36.768 60.4778 36.44 62.3338 36.44C62.7018 36.44 63.0538 36.456 63.3898 36.488C63.7258 36.504 64.0858 36.536 64.4698 36.584V35.816C64.4698 35.096 64.2778 34.536 63.8938 34.136C63.5098 33.736 62.9658 33.536 62.2618 33.536C61.5418 33.536 60.9738 33.736 60.5578 34.136C60.1418 34.536 59.9018 35.096 59.8378 35.816H56.8378C56.9018 34.824 57.1658 33.968 57.6298 33.248C58.1098 32.512 58.7418 31.944 59.5258 31.544C60.3258 31.144 61.2378 30.944 62.2618 30.944C63.9418 30.944 65.2458 31.384 66.1738 32.264C67.1178 33.144 67.5898 34.368 67.5898 35.936V44H64.8778ZM59.7178 40.184C59.7178 40.712 59.8938 41.136 60.2458 41.456C60.6138 41.776 61.1098 41.936 61.7338 41.936C62.5818 41.936 63.2458 41.72 63.7258 41.288C64.2218 40.84 64.4698 40.248 64.4698 39.512V38.6C64.0858 38.536 63.7418 38.496 63.4378 38.48C63.1338 38.448 62.8378 38.432 62.5498 38.432C61.6218 38.432 60.9178 38.576 60.4378 38.864C59.9578 39.152 59.7178 39.592 59.7178 40.184ZM73.8246 44H70.4646V26.768H73.8246V44ZM88.3601 31.184L82.1201 48.632H78.4961L80.3201 43.856L75.2801 31.184H78.8801L82.0961 39.968L85.0241 31.184H88.3601ZM98.2607 40.76V43.664C97.8607 43.872 97.4527 44.016 97.0367 44.096C96.6367 44.192 96.1887 44.24 95.6927 44.24C94.8287 44.24 94.0687 44.08 93.4127 43.76C92.7727 43.424 92.2767 42.928 91.9247 42.272C91.5727 41.6 91.3967 40.792 91.3967 39.848V34.04H88.8047V31.184H91.3967V27.392H94.7087V31.184H98.3807V34.04H94.7087V39.08C94.7087 39.816 94.8687 40.352 95.1887 40.688C95.5247 41.008 95.9887 41.168 96.5807 41.168C96.9007 41.168 97.2047 41.136 97.4927 41.072C97.7807 40.992 98.0367 40.888 98.2607 40.76ZM103.754 44H100.418V31.184H103.754V44ZM104.282 28.208C104.282 28.768 104.074 29.24 103.658 29.624C103.258 29.992 102.722 30.176 102.05 30.176C101.394 30.176 100.858 29.992 100.442 29.624C100.042 29.24 99.8417 28.768 99.8417 28.208C99.8417 27.616 100.042 27.136 100.442 26.768C100.858 26.384 101.394 26.192 102.05 26.192C102.722 26.192 103.258 26.384 103.658 26.768C104.074 27.136 104.282 27.616 104.282 28.208ZM112.122 44.24C110.89 44.24 109.802 43.96 108.858 43.4C107.93 42.84 107.202 42.056 106.674 41.048C106.146 40.04 105.882 38.888 105.882 37.592C105.882 36.312 106.146 35.176 106.674 34.184C107.218 33.176 107.962 32.384 108.906 31.808C109.85 31.232 110.922 30.944 112.122 30.944C113.226 30.944 114.226 31.184 115.122 31.664C116.018 32.128 116.746 32.792 117.306 33.656C117.866 34.504 118.21 35.504 118.338 36.656H114.834C114.754 35.808 114.466 35.136 113.97 34.64C113.49 34.144 112.874 33.896 112.122 33.896C111.546 33.896 111.042 34.048 110.61 34.352C110.194 34.656 109.866 35.08 109.626 35.624C109.402 36.168 109.29 36.824 109.29 37.592C109.29 38.344 109.402 39 109.626 39.56C109.866 40.12 110.194 40.552 110.61 40.856C111.042 41.144 111.546 41.288 112.122 41.288C112.89 41.288 113.506 41.048 113.97 40.568C114.45 40.072 114.738 39.392 114.834 38.528H118.338C118.226 39.696 117.89 40.712 117.33 41.576C116.77 42.424 116.05 43.08 115.17 43.544C114.29 44.008 113.274 44.24 112.122 44.24ZM131.304 39.896C131.304 41.224 130.808 42.28 129.816 43.064C128.84 43.848 127.44 44.24 125.616 44.24C123.808 44.24 122.392 43.832 121.368 43.016C120.36 42.184 119.792 41.056 119.664 39.632H122.856C122.872 40.288 123.136 40.816 123.648 41.216C124.176 41.6 124.848 41.792 125.664 41.792C126.32 41.792 126.864 41.688 127.296 41.48C127.728 41.256 127.944 40.92 127.944 40.472C127.944 40.072 127.808 39.768 127.536 39.56C127.264 39.352 126.816 39.192 126.192 39.08L123.888 38.648C122.736 38.44 121.832 38.024 121.176 37.4C120.52 36.776 120.192 35.968 120.192 34.976C120.192 34.176 120.408 33.472 120.84 32.864C121.272 32.256 121.88 31.784 122.664 31.448C123.448 31.112 124.368 30.944 125.424 30.944C126.496 30.944 127.44 31.128 128.256 31.496C129.088 31.848 129.744 32.36 130.224 33.032C130.72 33.704 131.008 34.496 131.088 35.408H127.896C127.848 34.784 127.6 34.296 127.152 33.944C126.704 33.576 126.128 33.392 125.424 33.392C124.816 33.392 124.32 33.504 123.936 33.728C123.568 33.936 123.384 34.248 123.384 34.664C123.384 35.048 123.52 35.336 123.792 35.528C124.064 35.704 124.488 35.848 125.064 35.96L127.536 36.416C128.784 36.656 129.72 37.064 130.344 37.64C130.984 38.216 131.304 38.968 131.304 39.896Z" fill="white"/>
<rect x="569.5" y="27.5" width="74" height="26" rx="9.5" stroke="#AEABD8" stroke-opacity="0.5"/>
<path d="M578.696 45V44.4L581.192 41.652C581.68 41.116 582.076 40.672 582.38 40.32C582.692 39.968 582.924 39.648 583.076 39.36C583.228 39.072 583.304 38.76 583.304 38.424C583.304 37.888 583.148 37.476 582.836 37.188C582.524 36.9 582.108 36.756 581.588 36.756C581.052 36.756 580.6 36.908 580.232 37.212C579.872 37.516 579.628 37.94 579.5 38.484L578.624 38.292C578.728 37.804 578.916 37.384 579.188 37.032C579.46 36.68 579.8 36.408 580.208 36.216C580.616 36.016 581.072 35.916 581.576 35.916C582.112 35.916 582.58 36.024 582.98 36.24C583.38 36.456 583.692 36.752 583.916 37.128C584.148 37.504 584.264 37.936 584.264 38.424C584.264 38.76 584.192 39.084 584.048 39.396C583.912 39.708 583.704 40.044 583.424 40.404C583.144 40.764 582.784 41.184 582.344 41.664L580.076 44.16H584.504V45H578.696ZM589.599 45.144C588.895 45.144 588.275 44.952 587.739 44.568C587.211 44.176 586.799 43.636 586.503 42.948C586.207 42.252 586.059 41.444 586.059 40.524C586.059 39.604 586.207 38.8 586.503 38.112C586.799 37.416 587.211 36.876 587.739 36.492C588.267 36.108 588.883 35.916 589.587 35.916C590.291 35.916 590.907 36.108 591.435 36.492C591.963 36.876 592.375 37.416 592.671 38.112C592.967 38.8 593.115 39.604 593.115 40.524C593.115 41.444 592.967 42.252 592.671 42.948C592.383 43.644 591.975 44.184 591.447 44.568C590.919 44.952 590.303 45.144 589.599 45.144ZM589.599 44.244C590.111 44.244 590.559 44.088 590.943 43.776C591.327 43.464 591.627 43.032 591.843 42.48C592.059 41.92 592.167 41.268 592.167 40.524C592.167 39.78 592.059 39.132 591.843 38.58C591.627 38.02 591.327 37.588 590.943 37.284C590.559 36.972 590.107 36.816 589.587 36.816C589.075 36.816 588.627 36.972 588.243 37.284C587.859 37.588 587.559 38.02 587.343 38.58C587.127 39.132 587.019 39.78 587.019 40.524C587.019 41.26 587.127 41.908 587.343 42.468C587.559 43.028 587.859 43.464 588.243 43.776C588.635 44.088 589.087 44.244 589.599 44.244ZM594.68 45V44.4L597.176 41.652C597.664 41.116 598.06 40.672 598.364 40.32C598.676 39.968 598.908 39.648 599.06 39.36C599.212 39.072 599.288 38.76 599.288 38.424C599.288 37.888 599.132 37.476 598.82 37.188C598.508 36.9 598.092 36.756 597.572 36.756C597.036 36.756 596.584 36.908 596.216 37.212C595.856 37.516 595.612 37.94 595.484 38.484L594.608 38.292C594.712 37.804 594.9 37.384 595.172 37.032C595.444 36.68 595.784 36.408 596.192 36.216C596.6 36.016 597.056 35.916 597.56 35.916C598.096 35.916 598.564 36.024 598.964 36.24C599.364 36.456 599.676 36.752 599.9 37.128C600.132 37.504 600.248 37.936 600.248 38.424C600.248 38.76 600.176 39.084 600.032 39.396C599.896 39.708 599.688 40.044 599.408 40.404C599.128 40.764 598.768 41.184 598.328 41.664L596.06 44.16H600.488V45H594.68ZM605.584 45.144C604.88 45.144 604.26 44.952 603.724 44.568C603.196 44.176 602.784 43.636 602.488 42.948C602.192 42.252 602.044 41.444 602.044 40.524C602.044 39.604 602.192 38.8 602.488 38.112C602.784 37.416 603.196 36.876 603.724 36.492C604.252 36.108 604.868 35.916 605.572 35.916C606.276 35.916 606.892 36.108 607.42 36.492C607.948 36.876 608.36 37.416 608.656 38.112C608.952 38.8 609.1 39.604 609.1 40.524C609.1 41.444 608.952 42.252 608.656 42.948C608.368 43.644 607.96 44.184 607.432 44.568C606.904 44.952 606.288 45.144 605.584 45.144ZM605.584 44.244C606.096 44.244 606.544 44.088 606.928 43.776C607.312 43.464 607.612 43.032 607.828 42.48C608.044 41.92 608.152 41.268 608.152 40.524C608.152 39.78 608.044 39.132 607.828 38.58C607.612 38.02 607.312 37.588 606.928 37.284C606.544 36.972 606.092 36.816 605.572 36.816C605.06 36.816 604.612 36.972 604.228 37.284C603.844 37.588 603.544 38.02 603.328 38.58C603.112 39.132 603.004 39.78 603.004 40.524C603.004 41.26 603.112 41.908 603.328 42.468C603.544 43.028 603.844 43.464 604.228 43.776C604.62 44.088 605.072 44.244 605.584 44.244Z" fill="#8C89B4"/>
<path d="M325 34C325 37.3137 322.314 40 319 40C315.686 40 313 37.3137 313 34C313 30.6863 315.686 28 319 28C322.314 28 325 30.6863 325 34Z" fill="#6359E9"/>
<path d="M450 34C450 37.3137 447.314 40 444 40C440.686 40 438 37.3137 438 34C438 30.6863 440.686 28 444 28C447.314 28 450 30.6863 450 34Z" fill="#64CFF6"/>
<path d="M340.616 40H338.184V28.512H340.616V40ZM344.997 35.344V40H342.773V31.456H344.821V32.672C345.141 32.2453 345.515 31.9093 345.941 31.664C346.379 31.4187 346.88 31.296 347.445 31.296C348.309 31.296 349.008 31.5733 349.541 32.128C350.075 32.672 350.341 33.456 350.341 34.48V40H348.133V35.232C348.133 34.592 348.005 34.1067 347.749 33.776C347.504 33.4347 347.131 33.264 346.629 33.264C346.331 33.264 346.053 33.344 345.797 33.504C345.552 33.6533 345.355 33.8827 345.205 34.192C345.067 34.4907 344.997 34.8747 344.997 35.344ZM355.858 40.16C355.036 40.16 354.311 39.9733 353.682 39.6C353.063 39.2267 352.578 38.704 352.226 38.032C351.874 37.36 351.698 36.592 351.698 35.728C351.698 34.8747 351.874 34.1173 352.226 33.456C352.588 32.784 353.084 32.256 353.714 31.872C354.343 31.488 355.058 31.296 355.858 31.296C356.594 31.296 357.26 31.456 357.858 31.776C358.455 32.0853 358.94 32.528 359.314 33.104C359.687 33.6693 359.916 34.336 360.002 35.104H357.666C357.612 34.5387 357.42 34.0907 357.09 33.76C356.77 33.4293 356.359 33.264 355.858 33.264C355.474 33.264 355.138 33.3653 354.85 33.568C354.572 33.7707 354.354 34.0533 354.194 34.416C354.044 34.7787 353.97 35.216 353.97 35.728C353.97 36.2293 354.044 36.6667 354.194 37.04C354.354 37.4133 354.572 37.7013 354.85 37.904C355.138 38.096 355.474 38.192 355.858 38.192C356.37 38.192 356.78 38.032 357.09 37.712C357.41 37.3813 357.602 36.928 357.666 36.352H360.002C359.927 37.1307 359.703 37.808 359.33 38.384C358.956 38.9493 358.476 39.3867 357.89 39.696C357.303 40.0053 356.626 40.16 355.858 40.16ZM365.174 40.16C364.556 40.16 363.98 40.048 363.446 39.824C362.924 39.6 362.465 39.2853 362.07 38.88C361.686 38.4747 361.382 38.0053 361.158 37.472C360.945 36.928 360.838 36.3467 360.838 35.728C360.838 35.0987 360.945 34.5173 361.158 33.984C361.382 33.4507 361.686 32.9813 362.07 32.576C362.465 32.1707 362.924 31.856 363.446 31.632C363.98 31.408 364.556 31.296 365.174 31.296C365.793 31.296 366.364 31.408 366.886 31.632C367.42 31.856 367.878 32.1707 368.262 32.576C368.657 32.9813 368.961 33.4507 369.174 33.984C369.398 34.5173 369.51 35.0987 369.51 35.728C369.51 36.3467 369.398 36.928 369.174 37.472C368.961 38.0053 368.657 38.4747 368.262 38.88C367.878 39.2853 367.42 39.6 366.886 39.824C366.364 40.048 365.793 40.16 365.174 40.16ZM365.174 38.192C365.548 38.192 365.889 38.096 366.198 37.904C366.508 37.712 366.753 37.4347 366.934 37.072C367.126 36.6987 367.222 36.2507 367.222 35.728C367.222 35.1947 367.126 34.7467 366.934 34.384C366.753 34.0213 366.508 33.7493 366.198 33.568C365.889 33.376 365.548 33.28 365.174 33.28C364.812 33.28 364.47 33.376 364.15 33.568C363.841 33.7493 363.59 34.0213 363.398 34.384C363.217 34.7467 363.126 35.1947 363.126 35.728C363.126 36.2507 363.217 36.6987 363.398 37.072C363.59 37.4347 363.841 37.712 364.15 37.904C364.47 38.096 364.812 38.192 365.174 38.192ZM373.154 40H370.93V31.456H372.978V32.672C373.287 32.2347 373.65 31.8987 374.066 31.664C374.482 31.4187 374.972 31.296 375.538 31.296C376.124 31.296 376.631 31.4293 377.058 31.696C377.495 31.952 377.82 32.3253 378.034 32.816C378.375 32.3467 378.77 31.9787 379.218 31.712C379.666 31.4347 380.21 31.296 380.85 31.296C381.714 31.296 382.412 31.5733 382.946 32.128C383.479 32.672 383.746 33.456 383.746 34.48V40H381.538V35.184C381.538 34.576 381.41 34.1067 381.154 33.776C380.908 33.4347 380.54 33.264 380.05 33.264C379.762 33.264 379.495 33.344 379.25 33.504C379.004 33.6533 378.807 33.872 378.658 34.16C378.519 34.448 378.45 34.8053 378.45 35.232V40H376.242V35.184C376.242 34.576 376.114 34.1067 375.858 33.776C375.612 33.4347 375.244 33.264 374.754 33.264C374.455 33.264 374.183 33.344 373.938 33.504C373.692 33.6533 373.5 33.872 373.362 34.16C373.223 34.448 373.154 34.8053 373.154 35.232V40ZM389.36 40.144C388.507 40.144 387.755 39.9627 387.104 39.6C386.464 39.2267 385.968 38.704 385.616 38.032C385.264 37.36 385.088 36.5813 385.088 35.696C385.088 34.8427 385.27 34.0853 385.632 33.424C385.995 32.7627 386.496 32.2453 387.136 31.872C387.776 31.488 388.507 31.296 389.328 31.296C390 31.296 390.608 31.424 391.152 31.68C391.707 31.9253 392.171 32.2773 392.544 32.736C392.918 33.1947 393.184 33.728 393.344 34.336C393.504 34.9333 393.531 35.5787 393.424 36.272H386.4V34.864H391.072C391.051 34.2667 390.875 33.7973 390.544 33.456C390.224 33.104 389.803 32.928 389.28 32.928C388.864 32.928 388.512 33.0347 388.224 33.248C387.936 33.4613 387.712 33.776 387.552 34.192C387.403 34.5973 387.328 35.0987 387.328 35.696C387.328 36.2827 387.403 36.7787 387.552 37.184C387.702 37.5893 387.926 37.8987 388.224 38.112C388.523 38.3253 388.886 38.432 389.312 38.432C389.803 38.432 390.208 38.3147 390.528 38.08C390.848 37.8453 391.072 37.52 391.2 37.104H393.408C393.163 38.064 392.688 38.8107 391.984 39.344C391.28 39.8773 390.406 40.144 389.36 40.144Z" fill="white"/>
<path d="M470.384 40.24C469.552 40.24 468.779 40.0907 468.064 39.792C467.36 39.4933 466.741 39.0773 466.208 38.544C465.675 38 465.259 37.3653 464.96 36.64C464.661 35.904 464.512 35.104 464.512 34.24C464.512 33.376 464.661 32.5813 464.96 31.856C465.259 31.1307 465.675 30.5013 466.208 29.968C466.741 29.4347 467.36 29.0187 468.064 28.72C468.779 28.4213 469.552 28.272 470.384 28.272C471.216 28.272 471.989 28.4213 472.704 28.72C473.419 29.0187 474.043 29.4347 474.576 29.968C475.12 30.5013 475.541 31.1307 475.84 31.856C476.139 32.5813 476.288 33.376 476.288 34.24C476.288 35.104 476.139 35.904 475.84 36.64C475.541 37.3653 475.12 38 474.576 38.544C474.043 39.0773 473.419 39.4933 472.704 39.792C471.989 40.0907 471.216 40.24 470.384 40.24ZM470.384 38.064C470.907 38.064 471.376 37.968 471.792 37.776C472.219 37.5733 472.576 37.296 472.864 36.944C473.163 36.592 473.387 36.1867 473.536 35.728C473.696 35.2587 473.776 34.7627 473.776 34.24C473.776 33.7173 473.696 33.2267 473.536 32.768C473.387 32.3093 473.163 31.9093 472.864 31.568C472.576 31.216 472.219 30.944 471.792 30.752C471.376 30.5493 470.907 30.448 470.384 30.448C469.861 30.448 469.392 30.5493 468.976 30.752C468.56 30.944 468.203 31.216 467.904 31.568C467.616 31.9093 467.392 32.3093 467.232 32.768C467.083 33.2267 467.008 33.7173 467.008 34.24C467.008 34.7627 467.083 35.2587 467.232 35.728C467.392 36.1867 467.616 36.592 467.904 36.944C468.203 37.296 468.56 37.5733 468.976 37.776C469.392 37.968 469.861 38.064 470.384 38.064ZM482.973 36.4V31.456H485.181V40H483.149V38.88C482.925 39.2533 482.589 39.5627 482.141 39.808C481.693 40.0427 481.197 40.16 480.653 40.16C480.088 40.16 479.581 40.0427 479.133 39.808C478.685 39.5733 478.333 39.216 478.077 38.736C477.821 38.2453 477.693 37.632 477.693 36.896V31.456H479.917V36.464C479.917 37.0613 480.051 37.4987 480.317 37.776C480.595 38.0533 480.957 38.192 481.405 38.192C481.672 38.192 481.923 38.1227 482.157 37.984C482.403 37.8453 482.6 37.6427 482.749 37.376C482.899 37.0987 482.973 36.7733 482.973 36.4ZM492.492 37.84V39.776C492.225 39.9147 491.953 40.0107 491.676 40.064C491.409 40.128 491.11 40.16 490.78 40.16C490.204 40.16 489.697 40.0533 489.26 39.84C488.833 39.616 488.502 39.2853 488.268 38.848C488.033 38.4 487.916 37.8613 487.916 37.232V33.36H486.188V31.456H487.916V28.928H490.124V31.456H492.572V33.36H490.124V36.72C490.124 37.2107 490.23 37.568 490.444 37.792C490.668 38.0053 490.977 38.112 491.372 38.112C491.585 38.112 491.788 38.0907 491.98 38.048C492.172 37.9947 492.342 37.9253 492.492 37.84ZM497.342 40.16C496.521 40.16 495.795 39.9733 495.166 39.6C494.547 39.2267 494.062 38.704 493.71 38.032C493.358 37.36 493.182 36.592 493.182 35.728C493.182 34.8747 493.358 34.1173 493.71 33.456C494.073 32.784 494.569 32.256 495.198 31.872C495.827 31.488 496.542 31.296 497.342 31.296C498.078 31.296 498.745 31.456 499.342 31.776C499.939 32.0853 500.425 32.528 500.798 33.104C501.171 33.6693 501.401 34.336 501.486 35.104H499.15C499.097 34.5387 498.905 34.0907 498.574 33.76C498.254 33.4293 497.843 33.264 497.342 33.264C496.958 33.264 496.622 33.3653 496.334 33.568C496.057 33.7707 495.838 34.0533 495.678 34.416C495.529 34.7787 495.454 35.216 495.454 35.728C495.454 36.2293 495.529 36.6667 495.678 37.04C495.838 37.4133 496.057 37.7013 496.334 37.904C496.622 38.096 496.958 38.192 497.342 38.192C497.854 38.192 498.265 38.032 498.574 37.712C498.894 37.3813 499.086 36.928 499.15 36.352H501.486C501.411 37.1307 501.187 37.808 500.814 38.384C500.441 38.9493 499.961 39.3867 499.374 39.696C498.787 40.0053 498.11 40.16 497.342 40.16ZM506.659 40.16C506.04 40.16 505.464 40.048 504.931 39.824C504.408 39.6 503.949 39.2853 503.555 38.88C503.171 38.4747 502.867 38.0053 502.643 37.472C502.429 36.928 502.323 36.3467 502.323 35.728C502.323 35.0987 502.429 34.5173 502.643 33.984C502.867 33.4507 503.171 32.9813 503.555 32.576C503.949 32.1707 504.408 31.856 504.931 31.632C505.464 31.408 506.04 31.296 506.659 31.296C507.277 31.296 507.848 31.408 508.371 31.632C508.904 31.856 509.363 32.1707 509.747 32.576C510.141 32.9813 510.445 33.4507 510.659 33.984C510.883 34.5173 510.995 35.0987 510.995 35.728C510.995 36.3467 510.883 36.928 510.659 37.472C510.445 38.0053 510.141 38.4747 509.747 38.88C509.363 39.2853 508.904 39.6 508.371 39.824C507.848 40.048 507.277 40.16 506.659 40.16ZM506.659 38.192C507.032 38.192 507.373 38.096 507.683 37.904C507.992 37.712 508.237 37.4347 508.419 37.072C508.611 36.6987 508.707 36.2507 508.707 35.728C508.707 35.1947 508.611 34.7467 508.419 34.384C508.237 34.0213 507.992 33.7493 507.683 33.568C507.373 33.376 507.032 33.28 506.659 33.28C506.296 33.28 505.955 33.376 505.635 33.568C505.325 33.7493 505.075 34.0213 504.883 34.384C504.701 34.7467 504.611 35.1947 504.611 35.728C504.611 36.2507 504.701 36.6987 504.883 37.072C505.075 37.4347 505.325 37.712 505.635 37.904C505.955 38.096 506.296 38.192 506.659 38.192ZM514.638 40H512.414V31.456H514.462V32.672C514.771 32.2347 515.134 31.8987 515.55 31.664C515.966 31.4187 516.457 31.296 517.022 31.296C517.609 31.296 518.115 31.4293 518.542 31.696C518.979 31.952 519.305 32.3253 519.518 32.816C519.859 32.3467 520.254 31.9787 520.702 31.712C521.15 31.4347 521.694 31.296 522.334 31.296C523.198 31.296 523.897 31.5733 524.43 32.128C524.963 32.672 525.23 33.456 525.23 34.48V40H523.022V35.184C523.022 34.576 522.894 34.1067 522.638 33.776C522.393 33.4347 522.025 33.264 521.534 33.264C521.246 33.264 520.979 33.344 520.734 33.504C520.489 33.6533 520.291 33.872 520.142 34.16C520.003 34.448 519.934 34.8053 519.934 35.232V40H517.726V35.184C517.726 34.576 517.598 34.1067 517.342 33.776C517.097 33.4347 516.729 33.264 516.238 33.264C515.939 33.264 515.667 33.344 515.422 33.504C515.177 33.6533 514.985 33.872 514.846 34.16C514.707 34.448 514.638 34.8053 514.638 35.232V40ZM530.845 40.144C529.991 40.144 529.239 39.9627 528.589 39.6C527.949 39.2267 527.453 38.704 527.101 38.032C526.749 37.36 526.573 36.5813 526.573 35.696C526.573 34.8427 526.754 34.0853 527.117 33.424C527.479 32.7627 527.981 32.2453 528.621 31.872C529.261 31.488 529.991 31.296 530.813 31.296C531.485 31.296 532.093 31.424 532.637 31.68C533.191 31.9253 533.655 32.2773 534.029 32.736C534.402 33.1947 534.669 33.728 534.829 34.336C534.989 34.9333 535.015 35.5787 534.909 36.272H527.885V34.864H532.557C532.535 34.2667 532.359 33.7973 532.029 33.456C531.709 33.104 531.287 32.928 530.765 32.928C530.349 32.928 529.997 33.0347 529.709 33.248C529.421 33.4613 529.197 33.776 529.037 34.192C528.887 34.5973 528.813 35.0987 528.813 35.696C528.813 36.2827 528.887 36.7787 529.037 37.184C529.186 37.5893 529.41 37.8987 529.709 38.112C530.007 38.3253 530.37 38.432 530.797 38.432C531.287 38.432 531.693 38.3147 532.013 38.08C532.333 37.8453 532.557 37.52 532.685 37.104H534.893C534.647 38.064 534.173 38.8107 533.469 39.344C532.765 39.8773 531.89 40.144 530.845 40.144Z" fill="white"/>
<path d="M628 39L632.333 43L636 39" stroke="#8C89B4"/>
<line x1="56" y1="151.5" x2="644" y2="151.5" stroke="#8C89B4" stroke-opacity="0.5" stroke-dasharray="4 4"/>
<line x1="56" y1="95.5" x2="644" y2="95.5" stroke="#8C89B4" stroke-opacity="0.5" stroke-dasharray="4 4"/>
<line x1="56" y1="206.5" x2="644" y2="206.5" stroke="#8C89B4" stroke-opacity="0.5" stroke-dasharray="4 4"/>
<line x1="56" y1="263.5" x2="644" y2="263.5" stroke="#8C89B4" stroke-opacity="0.5" stroke-dasharray="4 4"/>
<line x1="56" y1="319.5" x2="644" y2="319.5" stroke="#8C89B4" stroke-opacity="0.5" stroke-dasharray="4 4"/>
<path d="M27.204 99.12C26.716 99.12 26.272 99.02 25.872 98.82C25.48 98.612 25.164 98.332 24.924 97.98C24.692 97.62 24.568 97.208 24.552 96.744H25.368C25.408 97.24 25.596 97.636 25.932 97.932C26.268 98.228 26.692 98.376 27.204 98.376C27.612 98.376 27.96 98.296 28.248 98.136C28.544 97.976 28.768 97.752 28.92 97.464C29.072 97.176 29.148 96.844 29.148 96.468C29.148 96.124 29.068 95.816 28.908 95.544C28.748 95.264 28.524 95.044 28.236 94.884C27.948 94.716 27.612 94.632 27.228 94.632C26.836 94.632 26.492 94.716 26.196 94.884C25.9 95.044 25.652 95.28 25.452 95.592L24.804 95.4L25.512 90.888H29.544V91.62H26.112L25.668 94.548C25.916 94.324 26.176 94.164 26.448 94.068C26.728 93.964 27.024 93.912 27.336 93.912C27.888 93.912 28.364 94.028 28.764 94.26C29.164 94.484 29.468 94.792 29.676 95.184C29.892 95.568 30 95.992 30 96.456C30 96.832 29.936 97.184 29.808 97.512C29.68 97.832 29.492 98.116 29.244 98.364C29.004 98.604 28.712 98.792 28.368 98.928C28.024 99.056 27.636 99.12 27.204 99.12ZM31.1042 94.956C31.1042 93.612 31.3522 92.58 31.8482 91.86C32.3442 91.132 33.0562 90.768 33.9842 90.768C34.9042 90.768 35.6122 91.132 36.1082 91.86C36.6122 92.58 36.8642 93.612 36.8642 94.956C36.8642 96.3 36.6162 97.332 36.1202 98.052C35.6322 98.764 34.9202 99.12 33.9842 99.12C33.0482 99.12 32.3322 98.764 31.8362 98.052C31.3482 97.332 31.1042 96.3 31.1042 94.956ZM31.9682 94.956C31.9682 96.068 32.1362 96.916 32.4722 97.5C32.8162 98.084 33.3202 98.376 33.9842 98.376C34.6402 98.376 35.1402 98.088 35.4842 97.512C35.8282 96.936 36.0002 96.084 36.0002 94.956C36.0002 93.82 35.8282 92.964 35.4842 92.388C35.1402 91.804 34.6402 91.512 33.9842 91.512C33.3282 91.512 32.8282 91.804 32.4842 92.388C32.1402 92.972 31.9682 93.828 31.9682 94.956ZM39.3486 99H38.4486V90.384H39.3486V94.536L43.4286 90.384H44.4726L40.2726 94.68L44.5926 99H43.4286L39.3486 94.956V99Z" fill="#8C89B4"/>
<path d="M30.216 153.068H29.124V155H28.296V153.068H24.348V152.504L28.536 146.888H29.124V152.336H30.216V153.068ZM25.32 152.336H28.296V148.256L25.32 152.336ZM31.3386 150.956C31.3386 149.612 31.5866 148.58 32.0826 147.86C32.5786 147.132 33.2906 146.768 34.2186 146.768C35.1386 146.768 35.8466 147.132 36.3426 147.86C36.8466 148.58 37.0986 149.612 37.0986 150.956C37.0986 152.3 36.8506 153.332 36.3546 154.052C35.8666 154.764 35.1546 155.12 34.2186 155.12C33.2826 155.12 32.5666 154.764 32.0706 154.052C31.5826 153.332 31.3386 152.3 31.3386 150.956ZM32.2026 150.956C32.2026 152.068 32.3706 152.916 32.7066 153.5C33.0506 154.084 33.5546 154.376 34.2186 154.376C34.8746 154.376 35.3746 154.088 35.7186 153.512C36.0626 152.936 36.2346 152.084 36.2346 150.956C36.2346 149.82 36.0626 148.964 35.7186 148.388C35.3746 147.804 34.8746 147.512 34.2186 147.512C33.5626 147.512 33.0626 147.804 32.7186 148.388C32.3746 148.972 32.2026 149.828 32.2026 150.956ZM39.5829 155H38.6829V146.384H39.5829V150.536L43.6629 146.384H44.7069L40.5069 150.68L44.8269 155H43.6629L39.5829 150.956V155Z" fill="#8C89B4"/>
<path d="M27.408 211.108C26.872 211.108 26.396 211.012 25.98 210.82C25.572 210.62 25.252 210.344 25.02 209.992C24.796 209.64 24.676 209.232 24.66 208.768H25.476C25.5 209.264 25.684 209.664 26.028 209.968C26.38 210.272 26.84 210.424 27.408 210.424C27.992 210.424 28.448 210.276 28.776 209.98C29.112 209.684 29.28 209.28 29.28 208.768C29.28 208.288 29.096 207.904 28.728 207.616C28.36 207.32 27.864 207.172 27.24 207.172H26.436V206.476H27.216C27.552 206.476 27.844 206.412 28.092 206.284C28.348 206.148 28.548 205.964 28.692 205.732C28.836 205.5 28.908 205.232 28.908 204.928C28.908 204.496 28.76 204.144 28.464 203.872C28.176 203.592 27.8 203.452 27.336 203.452C26.864 203.452 26.476 203.592 26.172 203.872C25.876 204.152 25.716 204.524 25.692 204.988H24.888C24.904 204.564 25.02 204.184 25.236 203.848C25.452 203.512 25.744 203.248 26.112 203.056C26.488 202.864 26.904 202.768 27.36 202.768C27.84 202.768 28.26 202.86 28.62 203.044C28.98 203.22 29.26 203.468 29.46 203.788C29.668 204.1 29.772 204.468 29.772 204.892C29.772 205.308 29.648 205.68 29.4 206.008C29.16 206.328 28.82 206.584 28.38 206.776C28.94 206.912 29.372 207.152 29.676 207.496C29.988 207.84 30.144 208.26 30.144 208.756C30.144 209.22 30.028 209.628 29.796 209.98C29.564 210.332 29.244 210.608 28.836 210.808C28.428 211.008 27.952 211.108 27.408 211.108ZM31.4792 206.956C31.4792 205.612 31.7272 204.58 32.2232 203.86C32.7192 203.132 33.4312 202.768 34.3592 202.768C35.2792 202.768 35.9872 203.132 36.4832 203.86C36.9872 204.58 37.2392 205.612 37.2392 206.956C37.2392 208.3 36.9912 209.332 36.4952 210.052C36.0072 210.764 35.2952 211.12 34.3592 211.12C33.4232 211.12 32.7072 210.764 32.2112 210.052C31.7232 209.332 31.4792 208.3 31.4792 206.956ZM32.3432 206.956C32.3432 208.068 32.5112 208.916 32.8472 209.5C33.1912 210.084 33.6952 210.376 34.3592 210.376C35.0152 210.376 35.5152 210.088 35.8592 209.512C36.2032 208.936 36.3752 208.084 36.3752 206.956C36.3752 205.82 36.2032 204.964 35.8592 204.388C35.5152 203.804 35.0152 203.512 34.3592 203.512C33.7032 203.512 33.2032 203.804 32.8592 204.388C32.5152 204.972 32.3432 205.828 32.3432 206.956ZM39.7236 211H38.8236V202.384H39.7236V206.536L43.8036 202.384H44.8476L40.6476 206.68L44.9676 211H43.8036L39.7236 206.956V211Z" fill="#8C89B4"/>
<path d="M29.556 267.268V268H24.66V267.52L27.252 264.592C27.588 264.224 27.852 263.9 28.044 263.62C28.236 263.34 28.376 263.08 28.464 262.84C28.552 262.6 28.596 262.352 28.596 262.096C28.596 261.792 28.528 261.52 28.392 261.28C28.256 261.04 28.064 260.852 27.816 260.716C27.576 260.58 27.296 260.512 26.976 260.512C26.648 260.512 26.356 260.584 26.1 260.728C25.852 260.864 25.656 261.06 25.512 261.316C25.368 261.564 25.296 261.86 25.296 262.204H24.48C24.48 261.724 24.588 261.304 24.804 260.944C25.02 260.576 25.316 260.288 25.692 260.08C26.076 259.872 26.516 259.768 27.012 259.768C27.484 259.768 27.904 259.868 28.272 260.068C28.648 260.26 28.94 260.524 29.148 260.86C29.364 261.196 29.472 261.584 29.472 262.024C29.472 262.312 29.424 262.592 29.328 262.864C29.24 263.136 29.08 263.436 28.848 263.764C28.616 264.092 28.292 264.488 27.876 264.952L25.896 267.268H29.556ZM30.7409 263.956C30.7409 262.612 30.9889 261.58 31.4849 260.86C31.9809 260.132 32.6929 259.768 33.6209 259.768C34.5409 259.768 35.2489 260.132 35.7449 260.86C36.2489 261.58 36.5009 262.612 36.5009 263.956C36.5009 265.3 36.2529 266.332 35.7569 267.052C35.2689 267.764 34.5569 268.12 33.6209 268.12C32.6849 268.12 31.9689 267.764 31.4729 267.052C30.9849 266.332 30.7409 265.3 30.7409 263.956ZM31.6049 263.956C31.6049 265.068 31.7729 265.916 32.1089 266.5C32.4529 267.084 32.9569 267.376 33.6209 267.376C34.2769 267.376 34.7769 267.088 35.1209 266.512C35.4649 265.936 35.6369 265.084 35.6369 263.956C35.6369 262.82 35.4649 261.964 35.1209 261.388C34.7769 260.804 34.2769 260.512 33.6209 260.512C32.9649 260.512 32.4649 260.804 32.1209 261.388C31.7769 261.972 31.6049 262.828 31.6049 263.956ZM38.9853 268H38.0853V259.384H38.9853V263.536L43.0653 259.384H44.1093L39.9093 263.68L44.2293 268H43.0653L38.9853 263.956V268Z" fill="#8C89B4"/>
<path d="M26.64 324H25.812V316.608H24.216V315.888H26.64V324ZM28.28 319.956C28.28 318.612 28.528 317.58 29.024 316.86C29.52 316.132 30.232 315.768 31.16 315.768C32.08 315.768 32.788 316.132 33.284 316.86C33.788 317.58 34.04 318.612 34.04 319.956C34.04 321.3 33.792 322.332 33.296 323.052C32.808 323.764 32.096 324.12 31.16 324.12C30.224 324.12 29.508 323.764 29.012 323.052C28.524 322.332 28.28 321.3 28.28 319.956ZM29.144 319.956C29.144 321.068 29.312 321.916 29.648 322.5C29.992 323.084 30.496 323.376 31.16 323.376C31.816 323.376 32.316 323.088 32.66 322.512C33.004 321.936 33.176 321.084 33.176 319.956C33.176 318.82 33.004 317.964 32.66 317.388C32.316 316.804 31.816 316.512 31.16 316.512C30.504 316.512 30.004 316.804 29.66 317.388C29.316 317.972 29.144 318.828 29.144 319.956ZM36.5243 324H35.6243V315.384H36.5243V319.536L40.6043 315.384H41.6483L37.4483 319.68L41.7683 324H40.6043L36.5243 319.956V324Z" fill="#8C89B4"/>
<path d="M94.988 335.384V341.144C94.988 341.8 94.868 342.356 94.628 342.812C94.396 343.26 94.064 343.6 93.632 343.832C93.2 344.064 92.688 344.18 92.096 344.18C91.536 344.18 91.044 344.068 90.62 343.844C90.204 343.62 89.876 343.304 89.636 342.896C89.396 342.488 89.26 342.008 89.228 341.456H90.128C90.152 341.864 90.248 342.212 90.416 342.5C90.584 342.788 90.812 343.008 91.1 343.16C91.396 343.304 91.728 343.376 92.096 343.376C92.496 343.376 92.844 343.3 93.14 343.148C93.436 342.988 93.668 342.748 93.836 342.428C94.004 342.108 94.088 341.704 94.088 341.216V335.384H94.988ZM100.702 344V342.848C100.518 343.24 100.242 343.552 99.8743 343.784C99.5063 344.008 99.0743 344.12 98.5783 344.12C97.9223 344.12 97.3983 343.952 97.0063 343.616C96.6143 343.272 96.4183 342.816 96.4183 342.248C96.4183 341.632 96.6623 341.168 97.1503 340.856C97.6383 340.536 98.3623 340.376 99.3223 340.376C99.5143 340.376 99.7023 340.38 99.8863 340.388C100.07 340.396 100.314 340.416 100.618 340.448V339.908C100.618 339.38 100.482 338.968 100.21 338.672C99.9463 338.376 99.5743 338.228 99.0943 338.228C98.5823 338.228 98.1743 338.38 97.8703 338.684C97.5663 338.98 97.4103 339.384 97.4023 339.896H96.6343C96.6423 339.424 96.7503 339.016 96.9583 338.672C97.1663 338.32 97.4503 338.048 97.8103 337.856C98.1783 337.656 98.6023 337.556 99.0823 337.556C99.8263 337.556 100.402 337.76 100.81 338.168C101.218 338.576 101.422 339.148 101.422 339.884V344H100.702ZM97.2223 342.224C97.2223 342.608 97.3583 342.92 97.6303 343.16C97.9023 343.392 98.2583 343.508 98.6983 343.508C99.2903 343.508 99.7583 343.332 100.102 342.98C100.446 342.62 100.618 342.144 100.618 341.552V340.988C100.346 340.964 100.11 340.948 99.9103 340.94C99.7183 340.932 99.5343 340.928 99.3583 340.928C98.6463 340.928 98.1103 341.036 97.7503 341.252C97.3983 341.46 97.2223 341.784 97.2223 342.224ZM104.029 340.316V344H103.189V337.676H103.969V338.864C104.177 338.48 104.461 338.168 104.821 337.928C105.189 337.68 105.601 337.556 106.057 337.556C106.713 337.556 107.237 337.76 107.629 338.168C108.029 338.576 108.229 339.152 108.229 339.896V344H107.389V340.184C107.389 339.576 107.253 339.108 106.981 338.78C106.717 338.452 106.325 338.288 105.805 338.288C105.477 338.288 105.177 338.376 104.905 338.552C104.633 338.72 104.417 338.956 104.257 339.26C104.105 339.564 104.029 339.916 104.029 340.316Z" fill="#8C89B4"/>
<path d="M168.872 344H167.972V335.384H172.916V336.164H168.872V339.524H172.352V340.304H168.872V344ZM176.537 344.12C175.945 344.12 175.425 343.984 174.977 343.712C174.537 343.432 174.193 343.04 173.945 342.536C173.705 342.032 173.585 341.448 173.585 340.784C173.585 340.168 173.709 339.62 173.957 339.14C174.213 338.652 174.557 338.268 174.989 337.988C175.429 337.7 175.929 337.556 176.489 337.556C176.937 337.556 177.341 337.644 177.701 337.82C178.069 337.988 178.377 338.228 178.625 338.54C178.881 338.852 179.069 339.22 179.189 339.644C179.317 340.06 179.361 340.524 179.321 341.036H174.041V340.46H178.445C178.413 339.748 178.221 339.196 177.869 338.804C177.525 338.404 177.061 338.204 176.477 338.204C176.069 338.204 175.709 338.312 175.397 338.528C175.093 338.736 174.853 339.032 174.677 339.416C174.501 339.8 174.413 340.256 174.413 340.784C174.413 341.328 174.497 341.804 174.665 342.212C174.833 342.612 175.073 342.92 175.385 343.136C175.705 343.352 176.085 343.46 176.525 343.46C177.053 343.46 177.489 343.32 177.833 343.04C178.185 342.752 178.413 342.36 178.517 341.864H179.345C179.201 342.56 178.877 343.112 178.373 343.52C177.877 343.92 177.265 344.12 176.537 344.12ZM186.505 340.832C186.505 341.48 186.389 342.052 186.157 342.548C185.933 343.044 185.613 343.432 185.197 343.712C184.781 343.984 184.289 344.12 183.721 344.12C183.241 344.12 182.805 343.992 182.413 343.736C182.021 343.48 181.713 343.124 181.489 342.668V344H180.709V335.384H181.549V339.008C181.757 338.544 182.049 338.188 182.425 337.94C182.809 337.684 183.241 337.556 183.721 337.556C184.289 337.556 184.777 337.696 185.185 337.976C185.601 338.248 185.925 338.632 186.157 339.128C186.389 339.616 186.505 340.184 186.505 340.832ZM185.653 340.832C185.653 340.032 185.461 339.408 185.077 338.96C184.701 338.512 184.205 338.288 183.589 338.288C183.197 338.288 182.845 338.388 182.533 338.588C182.221 338.788 181.977 339.076 181.801 339.452C181.625 339.828 181.537 340.28 181.537 340.808C181.537 341.336 181.621 341.796 181.789 342.188C181.965 342.572 182.209 342.868 182.521 343.076C182.833 343.284 183.189 343.388 183.589 343.388C184.205 343.388 184.701 343.164 185.077 342.716C185.461 342.268 185.653 341.64 185.653 340.832Z" fill="#8C89B4"/>
<path d="M250.932 344L247.812 336.692V344H246.972V335.384H248.136L251.328 342.896L254.544 335.384H255.696V344H254.868V336.692L251.724 344H250.932ZM261.464 344V342.848C261.28 343.24 261.004 343.552 260.636 343.784C260.268 344.008 259.836 344.12 259.34 344.12C258.684 344.12 258.16 343.952 257.768 343.616C257.376 343.272 257.18 342.816 257.18 342.248C257.18 341.632 257.424 341.168 257.912 340.856C258.4 340.536 259.124 340.376 260.084 340.376C260.276 340.376 260.464 340.38 260.648 340.388C260.832 340.396 261.076 340.416 261.38 340.448V339.908C261.38 339.38 261.244 338.968 260.972 338.672C260.708 338.376 260.336 338.228 259.856 338.228C259.344 338.228 258.936 338.38 258.632 338.684C258.328 338.98 258.172 339.384 258.164 339.896H257.396C257.404 339.424 257.512 339.016 257.72 338.672C257.928 338.32 258.212 338.048 258.572 337.856C258.94 337.656 259.364 337.556 259.844 337.556C260.588 337.556 261.164 337.76 261.572 338.168C261.98 338.576 262.184 339.148 262.184 339.884V344H261.464ZM257.984 342.224C257.984 342.608 258.12 342.92 258.392 343.16C258.664 343.392 259.02 343.508 259.46 343.508C260.052 343.508 260.52 343.332 260.864 342.98C261.208 342.62 261.38 342.144 261.38 341.552V340.988C261.108 340.964 260.872 340.948 260.672 340.94C260.48 340.932 260.296 340.928 260.12 340.928C259.408 340.928 258.872 341.036 258.512 341.252C258.16 341.46 257.984 341.784 257.984 342.224ZM264.791 340.616V344H263.951V337.676H264.731V339.116C264.955 338.652 265.283 338.28 265.715 338C266.147 337.72 266.623 337.58 267.143 337.58V338.456C266.703 338.44 266.303 338.516 265.943 338.684C265.591 338.852 265.311 339.1 265.103 339.428C264.895 339.756 264.791 340.152 264.791 340.616Z" fill="#8C89B4"/>
<path d="M323.1 340.88H327.264L327.516 341.612H322.74L323.1 340.88ZM328.044 344L325.14 336.344L322.212 344H321.324L324.672 335.384H325.656L328.992 344H328.044ZM336.017 340.832C336.017 341.48 335.901 342.052 335.669 342.548C335.445 343.044 335.125 343.432 334.709 343.712C334.301 343.984 333.813 344.12 333.245 344.12C332.773 344.12 332.345 343.996 331.961 343.748C331.577 343.5 331.277 343.152 331.061 342.704V346.316H330.221V337.676H331.001V339.044C331.217 338.572 331.525 338.208 331.925 337.952C332.325 337.688 332.765 337.556 333.245 337.556C333.805 337.556 334.293 337.696 334.709 337.976C335.125 338.248 335.445 338.632 335.669 339.128C335.901 339.616 336.017 340.184 336.017 340.832ZM335.165 340.832C335.165 340.032 334.973 339.408 334.589 338.96C334.213 338.512 333.717 338.288 333.101 338.288C332.717 338.288 332.369 338.388 332.057 338.588C331.745 338.788 331.497 339.076 331.313 339.452C331.137 339.828 331.049 340.288 331.049 340.832C331.049 341.352 331.137 341.804 331.313 342.188C331.489 342.572 331.733 342.868 332.045 343.076C332.357 343.284 332.709 343.388 333.101 343.388C333.717 343.388 334.213 343.164 334.589 342.716C334.973 342.268 335.165 341.64 335.165 340.832ZM338.209 344H337.369V337.676H338.209V344ZM338.461 336.212C338.461 336.396 338.397 336.548 338.269 336.668C338.149 336.788 337.985 336.848 337.777 336.848C337.585 336.848 337.425 336.788 337.297 336.668C337.169 336.548 337.105 336.396 337.105 336.212C337.105 336.028 337.169 335.88 337.297 335.768C337.425 335.648 337.585 335.588 337.777 335.588C337.985 335.588 338.149 335.648 338.269 335.768C338.397 335.88 338.461 336.028 338.461 336.212Z" fill="#8C89B4"/>
<path d="M477.988 335.384V341.144C477.988 341.8 477.868 342.356 477.628 342.812C477.396 343.26 477.064 343.6 476.632 343.832C476.2 344.064 475.688 344.18 475.096 344.18C474.536 344.18 474.044 344.068 473.62 343.844C473.204 343.62 472.876 343.304 472.636 342.896C472.396 342.488 472.26 342.008 472.228 341.456H473.128C473.152 341.864 473.248 342.212 473.416 342.5C473.584 342.788 473.812 343.008 474.1 343.16C474.396 343.304 474.728 343.376 475.096 343.376C475.496 343.376 475.844 343.3 476.14 343.148C476.436 342.988 476.668 342.748 476.836 342.428C477.004 342.108 477.088 341.704 477.088 341.216V335.384H477.988ZM483.858 341.456V337.676H484.686V344H483.906V342.86C483.746 343.228 483.486 343.532 483.126 343.772C482.766 344.004 482.354 344.12 481.89 344.12C481.466 344.12 481.09 344.04 480.762 343.88C480.442 343.712 480.194 343.456 480.018 343.112C479.842 342.76 479.754 342.32 479.754 341.792V337.676H480.594V341.612C480.594 342.252 480.738 342.712 481.026 342.992C481.314 343.264 481.678 343.4 482.118 343.4C482.454 343.4 482.75 343.316 483.006 343.148C483.27 342.98 483.478 342.748 483.63 342.452C483.782 342.156 483.858 341.824 483.858 341.456ZM487.346 340.316V344H486.506V337.676H487.286V338.864C487.494 338.48 487.778 338.168 488.138 337.928C488.506 337.68 488.918 337.556 489.374 337.556C490.03 337.556 490.554 337.76 490.946 338.168C491.346 338.576 491.546 339.152 491.546 339.896V344H490.706V340.184C490.706 339.576 490.57 339.108 490.298 338.78C490.034 338.452 489.642 338.288 489.122 338.288C488.794 338.288 488.494 338.376 488.222 338.552C487.95 338.72 487.734 338.956 487.574 339.26C487.422 339.564 487.346 339.916 487.346 340.316Z" fill="#8C89B4"/>
<path d="M399.932 344L396.812 336.692V344H395.972V335.384H397.136L400.328 342.896L403.544 335.384H404.696V344H403.868V336.692L400.724 344H399.932ZM410.464 344V342.848C410.28 343.24 410.004 343.552 409.636 343.784C409.268 344.008 408.836 344.12 408.34 344.12C407.684 344.12 407.16 343.952 406.768 343.616C406.376 343.272 406.18 342.816 406.18 342.248C406.18 341.632 406.424 341.168 406.912 340.856C407.4 340.536 408.124 340.376 409.084 340.376C409.276 340.376 409.464 340.38 409.648 340.388C409.832 340.396 410.076 340.416 410.38 340.448V339.908C410.38 339.38 410.244 338.968 409.972 338.672C409.708 338.376 409.336 338.228 408.856 338.228C408.344 338.228 407.936 338.38 407.632 338.684C407.328 338.98 407.172 339.384 407.164 339.896H406.396C406.404 339.424 406.512 339.016 406.72 338.672C406.928 338.32 407.212 338.048 407.572 337.856C407.94 337.656 408.364 337.556 408.844 337.556C409.588 337.556 410.164 337.76 410.572 338.168C410.98 338.576 411.184 339.148 411.184 339.884V344H410.464ZM406.984 342.224C406.984 342.608 407.12 342.92 407.392 343.16C407.664 343.392 408.02 343.508 408.46 343.508C409.052 343.508 409.52 343.332 409.864 342.98C410.208 342.62 410.38 342.144 410.38 341.552V340.988C410.108 340.964 409.872 340.948 409.672 340.94C409.48 340.932 409.296 340.928 409.12 340.928C408.408 340.928 407.872 341.036 407.512 341.252C407.16 341.46 406.984 341.784 406.984 342.224ZM417.636 337.676L414.396 346.316H413.496L414.42 343.916L411.912 337.676H412.812L414.852 342.908L416.784 337.676H417.636Z" fill="#8C89B4"/>
<path d="M554.988 335.384V341.144C554.988 341.8 554.868 342.356 554.628 342.812C554.396 343.26 554.064 343.6 553.632 343.832C553.2 344.064 552.688 344.18 552.096 344.18C551.536 344.18 551.044 344.068 550.62 343.844C550.204 343.62 549.876 343.304 549.636 342.896C549.396 342.488 549.26 342.008 549.228 341.456H550.128C550.152 341.864 550.248 342.212 550.416 342.5C550.584 342.788 550.812 343.008 551.1 343.16C551.396 343.304 551.728 343.376 552.096 343.376C552.496 343.376 552.844 343.3 553.14 343.148C553.436 342.988 553.668 342.748 553.836 342.428C554.004 342.108 554.088 341.704 554.088 341.216V335.384H554.988ZM560.858 341.456V337.676H561.686V344H560.906V342.86C560.746 343.228 560.486 343.532 560.126 343.772C559.766 344.004 559.354 344.12 558.89 344.12C558.466 344.12 558.09 344.04 557.762 343.88C557.442 343.712 557.194 343.456 557.018 343.112C556.842 342.76 556.754 342.32 556.754 341.792V337.676H557.594V341.612C557.594 342.252 557.738 342.712 558.026 342.992C558.314 343.264 558.678 343.4 559.118 343.4C559.454 343.4 559.75 343.316 560.006 343.148C560.27 342.98 560.478 342.748 560.63 342.452C560.782 342.156 560.858 341.824 560.858 341.456ZM564.346 344H563.506V335.384H564.346V344Z" fill="#8C89B4"/>
<path d="M623.1 340.88H627.264L627.516 341.612H622.74L623.1 340.88ZM628.044 344L625.14 336.344L622.212 344H621.324L624.672 335.384H625.656L628.992 344H628.044ZM634.03 341.456V337.676H634.858V344H634.078V342.86C633.918 343.228 633.658 343.532 633.298 343.772C632.938 344.004 632.526 344.12 632.062 344.12C631.638 344.12 631.262 344.04 630.934 343.88C630.614 343.712 630.366 343.456 630.19 343.112C630.014 342.76 629.926 342.32 629.926 341.792V337.676H630.766V341.612C630.766 342.252 630.91 342.712 631.198 342.992C631.486 343.264 631.85 343.4 632.29 343.4C632.626 343.4 632.922 343.316 633.178 343.148C633.442 342.98 633.65 342.748 633.802 342.452C633.954 342.156 634.03 341.824 634.03 341.456ZM639.066 346.448C638.538 346.448 638.074 346.356 637.674 346.172C637.274 345.996 636.962 345.736 636.738 345.392C636.522 345.056 636.402 344.656 636.378 344.192H637.182C637.222 344.704 637.402 345.096 637.722 345.368C638.042 345.64 638.486 345.776 639.054 345.776C639.686 345.776 640.162 345.612 640.482 345.284C640.802 344.964 640.962 344.496 640.962 343.88V342.548C640.77 342.988 640.49 343.332 640.122 343.58C639.762 343.828 639.346 343.952 638.874 343.952C638.346 343.952 637.882 343.82 637.482 343.556C637.082 343.292 636.77 342.92 636.546 342.44C636.322 341.952 636.21 341.388 636.21 340.748C636.21 340.108 636.318 339.548 636.534 339.068C636.758 338.588 637.07 338.216 637.47 337.952C637.87 337.688 638.334 337.556 638.862 337.556C639.342 337.556 639.766 337.684 640.134 337.94C640.51 338.196 640.802 338.556 641.01 339.02V337.676H641.79V343.856C641.79 344.68 641.55 345.316 641.07 345.764C640.598 346.22 639.93 346.448 639.066 346.448ZM637.05 340.748C637.05 341.524 637.222 342.132 637.566 342.572C637.918 343.012 638.394 343.232 638.994 343.232C639.394 343.232 639.738 343.132 640.026 342.932C640.322 342.732 640.554 342.452 640.722 342.092C640.89 341.724 640.974 341.296 640.974 340.808C640.974 340.04 640.794 339.428 640.434 338.972C640.082 338.508 639.602 338.276 638.994 338.276C638.394 338.276 637.918 338.496 637.566 338.936C637.222 339.376 637.05 339.98 637.05 340.748Z" fill="#8C89B4"/>
<path d="M89 230.5C89 228.567 90.567 227 92.5 227C94.433 227 96 228.567 96 230.5V320H89V230.5Z" fill="#64CFF6"/>
<path d="M319 230.5C319 228.567 320.567 227 322.5 227C324.433 227 326 228.567 326 230.5V320H319V230.5Z" fill="#64CFF6"/>
<path d="M103 174.5C103 172.567 104.567 171 106.5 171C108.433 171 110 172.567 110 174.5V320H103V174.5Z" fill="#6359E9"/>
<path d="M334 174.5C334 172.567 335.567 171 337.5 171C339.433 171 341 172.567 341 174.5V320H334V174.5Z" fill="#6359E9"/>
<path d="M167 188.5C167 186.567 168.567 185 170.5 185C172.433 185 174 186.567 174 188.5V320H167V188.5Z" fill="#64CFF6"/>
<path d="M394 188.5C394 186.567 395.567 185 397.5 185C399.433 185 401 186.567 401 188.5V320H394V188.5Z" fill="#64CFF6"/>
<path d="M246 253.5C246 251.567 247.567 250 249.5 250C251.433 250 253 251.567 253 253.5V320H246V253.5Z" fill="#64CFF6"/>
<path d="M472 223.5C472 221.567 473.567 220 475.5 220C477.433 220 479 221.567 479 223.5V320H472V223.5Z" fill="#64CFF6"/>
<path d="M546 223.5C546 221.567 547.567 220 549.5 220C551.433 220 553 221.567 553 223.5V320H546V223.5Z" fill="#64CFF6"/>
<path d="M621 223.5C621 221.567 622.567 220 624.5 220C626.433 220 628 221.567 628 223.5V320H621V223.5Z" fill="#64CFF6"/>
<path d="M181 229.5C181 227.567 182.567 226 184.5 226C186.433 226 188 227.567 188 229.5V320H181V229.5Z" fill="#6359E9"/>
<path d="M408 148.5C408 146.567 409.567 145 411.5 145C413.433 145 415 146.567 415 148.5V320H408V148.5Z" fill="#5A51D4"/>
<path d="M486 252.5C486 250.567 487.567 249 489.5 249C491.433 249 493 250.567 493 252.5V320H486V252.5Z" fill="#6359E9"/>
<path d="M635 252.5C635 250.567 636.567 249 638.5 249C640.433 249 642 250.567 642 252.5V320H635V252.5Z" fill="#6359E9"/>
<path d="M560 252.5C560 250.567 561.567 249 563.5 249C565.433 249 567 250.567 567 252.5V320H560V252.5Z" fill="#6359E9"/>
<path d="M260 212.5C260 210.567 261.567 209 263.5 209C265.433 209 267 210.567 267 212.5V320H260V212.5Z" fill="#6359E9"/>
<g filter="url(#filter0_d_814_87)">
<path d="M415 162.895C415 158.535 418.535 155 422.895 155H521.105C525.465 155 529 158.535 529 162.895V202.105C529 206.465 525.465 210 521.105 210H415V162.895Z" fill="#464687"/>
</g>
<path d="M437.351 170.273H438.663V176.46C438.663 177.02 438.553 177.499 438.331 177.896C438.112 178.294 437.804 178.598 437.406 178.808C437.009 179.016 436.543 179.119 436.009 179.119C435.517 179.119 435.075 179.03 434.683 178.851C434.294 178.672 433.986 178.412 433.759 178.071C433.534 177.727 433.422 177.31 433.422 176.818H434.73C434.73 177.06 434.786 177.268 434.896 177.445C435.01 177.621 435.165 177.759 435.361 177.858C435.56 177.955 435.787 178.003 436.043 178.003C436.321 178.003 436.557 177.945 436.75 177.828C436.946 177.709 437.095 177.534 437.197 177.304C437.3 177.074 437.351 176.793 437.351 176.46V170.273ZM444.624 176.286V172.455H445.902V179H444.65V177.866H444.581C444.431 178.216 444.189 178.507 443.857 178.74C443.527 178.97 443.117 179.085 442.625 179.085C442.205 179.085 441.833 178.993 441.509 178.808C441.188 178.621 440.935 178.344 440.75 177.977C440.569 177.611 440.478 177.158 440.478 176.618V172.455H441.752V176.464C441.752 176.911 441.875 177.266 442.123 177.53C442.37 177.794 442.691 177.926 443.086 177.926C443.324 177.926 443.561 177.866 443.797 177.747C444.036 177.628 444.233 177.447 444.39 177.206C444.549 176.964 444.627 176.658 444.624 176.286ZM448.888 170.273V179H447.614V170.273H448.888ZM451.408 181.455C451.218 181.455 451.044 181.439 450.888 181.408C450.732 181.379 450.615 181.348 450.539 181.314L450.846 180.27C451.078 180.332 451.286 180.359 451.468 180.351C451.65 180.342 451.81 180.274 451.949 180.146C452.091 180.018 452.216 179.81 452.324 179.52L452.482 179.085L450.087 172.455H451.451L453.108 177.534H453.176L454.834 172.455H456.202L453.505 179.874C453.38 180.214 453.221 180.503 453.027 180.739C452.834 180.977 452.604 181.156 452.337 181.276C452.07 181.395 451.76 181.455 451.408 181.455ZM460.558 179V178.045L463.511 174.986C463.827 174.653 464.087 174.362 464.291 174.112C464.499 173.859 464.653 173.619 464.756 173.392C464.858 173.165 464.909 172.923 464.909 172.668C464.909 172.378 464.841 172.128 464.705 171.918C464.568 171.705 464.382 171.541 464.146 171.428C463.911 171.311 463.645 171.253 463.349 171.253C463.037 171.253 462.764 171.317 462.531 171.445C462.298 171.572 462.119 171.753 461.994 171.986C461.869 172.219 461.807 172.491 461.807 172.804H460.55C460.55 172.273 460.672 171.808 460.916 171.411C461.161 171.013 461.496 170.705 461.922 170.486C462.348 170.264 462.832 170.153 463.375 170.153C463.923 170.153 464.406 170.263 464.824 170.482C465.244 170.697 465.572 170.993 465.808 171.368C466.044 171.74 466.162 172.161 466.162 172.629C466.162 172.953 466.101 173.27 465.979 173.58C465.859 173.889 465.651 174.234 465.352 174.615C465.054 174.993 464.639 175.452 464.108 175.991L462.374 177.807V177.871H466.303V179H460.558ZM470.956 179.145C470.283 179.142 469.707 178.964 469.23 178.612C468.753 178.26 468.388 177.747 468.135 177.074C467.882 176.401 467.756 175.589 467.756 174.641C467.756 173.695 467.882 172.886 468.135 172.216C468.391 171.545 468.757 171.034 469.234 170.682C469.714 170.33 470.288 170.153 470.956 170.153C471.624 170.153 472.196 170.331 472.673 170.686C473.151 171.038 473.516 171.55 473.768 172.22C474.024 172.888 474.152 173.695 474.152 174.641C474.152 175.592 474.026 176.405 473.773 177.078C473.52 177.749 473.155 178.261 472.678 178.616C472.2 178.969 471.626 179.145 470.956 179.145ZM470.956 178.007C471.547 178.007 472.009 177.719 472.341 177.142C472.676 176.565 472.844 175.732 472.844 174.641C472.844 173.916 472.767 173.304 472.614 172.804C472.463 172.301 472.246 171.92 471.962 171.662C471.68 171.401 471.345 171.27 470.956 171.27C470.368 171.27 469.906 171.56 469.571 172.139C469.236 172.719 469.067 173.553 469.064 174.641C469.064 175.368 469.139 175.983 469.29 176.486C469.443 176.986 469.661 177.365 469.942 177.624C470.223 177.879 470.561 178.007 470.956 178.007ZM475.664 179V178.045L478.617 174.986C478.932 174.653 479.192 174.362 479.397 174.112C479.604 173.859 479.759 173.619 479.861 173.392C479.963 173.165 480.015 172.923 480.015 172.668C480.015 172.378 479.946 172.128 479.81 171.918C479.674 171.705 479.488 171.541 479.252 171.428C479.016 171.311 478.75 171.253 478.455 171.253C478.142 171.253 477.87 171.317 477.637 171.445C477.404 171.572 477.225 171.753 477.1 171.986C476.975 172.219 476.912 172.491 476.912 172.804H475.655C475.655 172.273 475.777 171.808 476.022 171.411C476.266 171.013 476.601 170.705 477.027 170.486C477.453 170.264 477.938 170.153 478.48 170.153C479.029 170.153 479.512 170.263 479.929 170.482C480.35 170.697 480.678 170.993 480.914 171.368C481.15 171.74 481.267 172.161 481.267 172.629C481.267 172.953 481.206 173.27 481.084 173.58C480.965 173.889 480.756 174.234 480.458 174.615C480.159 174.993 479.745 175.452 479.213 175.991L477.479 177.807V177.871H481.408V179H475.664ZM486.061 179.145C485.388 179.142 484.813 178.964 484.336 178.612C483.858 178.26 483.493 177.747 483.24 177.074C482.988 176.401 482.861 175.589 482.861 174.641C482.861 173.695 482.988 172.886 483.24 172.216C483.496 171.545 483.863 171.034 484.34 170.682C484.82 170.33 485.394 170.153 486.061 170.153C486.729 170.153 487.301 170.331 487.779 170.686C488.256 171.038 488.621 171.55 488.874 172.22C489.13 172.888 489.257 173.695 489.257 174.641C489.257 175.592 489.131 176.405 488.878 177.078C488.625 177.749 488.26 178.261 487.783 178.616C487.306 178.969 486.732 179.145 486.061 179.145ZM486.061 178.007C486.652 178.007 487.114 177.719 487.446 177.142C487.782 176.565 487.949 175.732 487.949 174.641C487.949 173.916 487.873 173.304 487.719 172.804C487.569 172.301 487.351 171.92 487.067 171.662C486.786 171.401 486.451 171.27 486.061 171.27C485.473 171.27 485.012 171.56 484.676 172.139C484.341 172.719 484.172 173.553 484.169 174.641C484.169 175.368 484.245 175.983 484.395 176.486C484.549 176.986 484.766 177.365 485.047 177.624C485.328 177.879 485.667 178.007 486.061 178.007ZM436.533 200.091V189.182H437.232V200.091H436.533ZM438.719 192.565C438.673 192.162 438.486 191.849 438.156 191.628C437.827 191.403 437.412 191.291 436.912 191.291C436.554 191.291 436.244 191.348 435.983 191.462C435.722 191.572 435.518 191.726 435.374 191.922C435.232 192.115 435.161 192.335 435.161 192.582C435.161 192.79 435.209 192.969 435.305 193.119C435.405 193.27 435.534 193.396 435.693 193.499C435.855 193.598 436.028 193.682 436.213 193.75C436.398 193.815 436.575 193.869 436.746 193.912L437.598 194.134C437.876 194.202 438.162 194.294 438.455 194.411C438.747 194.527 439.018 194.68 439.268 194.871C439.518 195.061 439.72 195.297 439.874 195.578C440.03 195.859 440.108 196.196 440.108 196.588C440.108 197.082 439.98 197.521 439.724 197.905C439.472 198.288 439.104 198.591 438.621 198.812C438.141 199.034 437.56 199.145 436.878 199.145C436.224 199.145 435.659 199.041 435.182 198.834C434.705 198.626 434.331 198.332 434.061 197.952C433.791 197.568 433.642 197.114 433.614 196.588H434.935C434.96 196.903 435.063 197.166 435.241 197.376C435.423 197.584 435.655 197.739 435.936 197.841C436.22 197.94 436.531 197.99 436.869 197.99C437.241 197.99 437.572 197.932 437.862 197.815C438.155 197.696 438.385 197.531 438.553 197.321C438.72 197.108 438.804 196.859 438.804 196.575C438.804 196.317 438.73 196.105 438.582 195.94C438.438 195.776 438.24 195.639 437.99 195.531C437.743 195.423 437.463 195.328 437.151 195.246L436.119 194.964C435.42 194.774 434.866 194.494 434.457 194.125C434.051 193.756 433.848 193.267 433.848 192.659C433.848 192.156 433.984 191.717 434.257 191.342C434.53 190.967 434.899 190.676 435.365 190.469C435.831 190.259 436.357 190.153 436.942 190.153C437.533 190.153 438.054 190.257 438.506 190.464C438.96 190.672 439.318 190.957 439.58 191.321C439.841 191.682 439.977 192.097 439.989 192.565H438.719ZM444.443 199.119C443.909 199.119 443.429 199.017 443.002 198.812C442.579 198.605 442.241 198.321 441.988 197.96C441.735 197.599 441.6 197.188 441.583 196.724H442.862C442.893 197.099 443.059 197.408 443.36 197.649C443.662 197.891 444.022 198.011 444.443 198.011C444.778 198.011 445.075 197.935 445.333 197.781C445.595 197.625 445.799 197.411 445.947 197.138C446.098 196.865 446.173 196.554 446.173 196.205C446.173 195.849 446.096 195.533 445.943 195.254C445.789 194.976 445.578 194.757 445.308 194.598C445.041 194.439 444.734 194.358 444.387 194.355C444.123 194.355 443.858 194.401 443.591 194.491C443.324 194.582 443.108 194.702 442.943 194.849L441.737 194.67L442.227 190.273H447.025V191.402H443.322L443.045 193.844H443.096C443.267 193.679 443.493 193.541 443.774 193.43C444.058 193.32 444.362 193.264 444.686 193.264C445.217 193.264 445.69 193.391 446.105 193.643C446.522 193.896 446.85 194.241 447.089 194.679C447.331 195.114 447.45 195.614 447.447 196.179C447.45 196.744 447.322 197.249 447.064 197.692C446.808 198.135 446.453 198.484 445.998 198.74C445.547 198.993 445.028 199.119 444.443 199.119ZM452.05 199.119C451.661 199.114 451.278 199.043 450.9 198.906C450.525 198.77 450.184 198.543 449.877 198.224C449.57 197.906 449.325 197.479 449.14 196.942C448.958 196.405 448.867 195.734 448.867 194.93C448.867 194.169 448.942 193.493 449.093 192.902C449.246 192.311 449.467 191.812 449.754 191.406C450.04 190.997 450.387 190.686 450.793 190.473C451.2 190.26 451.656 190.153 452.161 190.153C452.681 190.153 453.143 190.256 453.546 190.46C453.95 190.665 454.276 190.947 454.526 191.308C454.779 191.669 454.94 192.08 455.008 192.54H453.708C453.62 192.176 453.445 191.879 453.184 191.649C452.923 191.419 452.582 191.304 452.161 191.304C451.522 191.304 451.023 191.582 450.665 192.139C450.31 192.696 450.131 193.47 450.129 194.462H450.192C450.343 194.214 450.528 194.004 450.746 193.831C450.968 193.655 451.215 193.52 451.488 193.426C451.763 193.33 452.053 193.281 452.357 193.281C452.863 193.281 453.32 193.405 453.729 193.652C454.141 193.896 454.469 194.234 454.714 194.666C454.958 195.098 455.08 195.592 455.08 196.149C455.08 196.706 454.954 197.21 454.701 197.662C454.451 198.114 454.099 198.472 453.644 198.736C453.19 198.997 452.658 199.125 452.05 199.119ZM452.046 198.011C452.381 198.011 452.681 197.929 452.945 197.764C453.21 197.599 453.418 197.378 453.572 197.099C453.725 196.821 453.802 196.51 453.802 196.166C453.802 195.831 453.727 195.526 453.576 195.25C453.428 194.974 453.224 194.756 452.962 194.594C452.704 194.432 452.408 194.351 452.076 194.351C451.823 194.351 451.589 194.399 451.373 194.496C451.16 194.592 450.972 194.726 450.81 194.896C450.648 195.067 450.521 195.263 450.427 195.484C450.336 195.703 450.29 195.935 450.29 196.179C450.29 196.506 450.366 196.808 450.516 197.087C450.67 197.365 450.879 197.589 451.143 197.76C451.41 197.928 451.711 198.011 452.046 198.011ZM457.091 199.081C456.858 199.081 456.657 198.999 456.49 198.834C456.322 198.666 456.238 198.464 456.238 198.229C456.238 197.996 456.322 197.797 456.49 197.632C456.657 197.464 456.858 197.381 457.091 197.381C457.324 197.381 457.524 197.464 457.691 197.632C457.859 197.797 457.943 197.996 457.943 198.229C457.943 198.385 457.903 198.528 457.824 198.659C457.747 198.787 457.645 198.889 457.517 198.966C457.389 199.043 457.247 199.081 457.091 199.081ZM459.449 197.295V196.23L463.221 190.273H464.06V191.841H463.527L460.83 196.111V196.179H465.999V197.295H459.449ZM463.587 199V196.972L463.596 196.486V190.273H464.844V199H463.587ZM470.365 199.119C469.831 199.119 469.35 199.017 468.924 198.812C468.501 198.605 468.163 198.321 467.91 197.96C467.657 197.599 467.522 197.188 467.505 196.724H468.784C468.815 197.099 468.981 197.408 469.282 197.649C469.583 197.891 469.944 198.011 470.365 198.011C470.7 198.011 470.997 197.935 471.255 197.781C471.517 197.625 471.721 197.411 471.869 197.138C472.02 196.865 472.095 196.554 472.095 196.205C472.095 195.849 472.018 195.533 471.865 195.254C471.711 194.976 471.5 194.757 471.23 194.598C470.963 194.439 470.656 194.358 470.309 194.355C470.045 194.355 469.779 194.401 469.512 194.491C469.245 194.582 469.029 194.702 468.865 194.849L467.659 194.67L468.149 190.273H472.947V191.402H469.244L468.967 193.844H469.018C469.189 193.679 469.414 193.541 469.696 193.43C469.98 193.32 470.284 193.264 470.608 193.264C471.139 193.264 471.612 193.391 472.027 193.643C472.444 193.896 472.772 194.241 473.011 194.679C473.252 195.114 473.372 195.614 473.369 196.179C473.372 196.744 473.244 197.249 472.985 197.692C472.73 198.135 472.375 198.484 471.92 198.74C471.468 198.993 470.95 199.119 470.365 199.119ZM477.972 199.119C477.583 199.114 477.2 199.043 476.822 198.906C476.447 198.77 476.106 198.543 475.799 198.224C475.492 197.906 475.246 197.479 475.062 196.942C474.88 196.405 474.789 195.734 474.789 194.93C474.789 194.169 474.864 193.493 475.015 192.902C475.168 192.311 475.388 191.812 475.675 191.406C475.962 190.997 476.309 190.686 476.715 190.473C477.121 190.26 477.577 190.153 478.083 190.153C478.603 190.153 479.065 190.256 479.468 190.46C479.871 190.665 480.198 190.947 480.448 191.308C480.701 191.669 480.862 192.08 480.93 192.54H479.63C479.542 192.176 479.367 191.879 479.106 191.649C478.844 191.419 478.504 191.304 478.083 191.304C477.444 191.304 476.945 191.582 476.587 192.139C476.232 192.696 476.053 193.47 476.05 194.462H476.114C476.265 194.214 476.45 194.004 476.668 193.831C476.89 193.655 477.137 193.52 477.41 193.426C477.685 193.33 477.975 193.281 478.279 193.281C478.785 193.281 479.242 193.405 479.651 193.652C480.063 193.896 480.391 194.234 480.636 194.666C480.88 195.098 481.002 195.592 481.002 196.149C481.002 196.706 480.876 197.21 480.623 197.662C480.373 198.114 480.021 198.472 479.566 198.736C479.112 198.997 478.58 199.125 477.972 199.119ZM477.968 198.011C478.303 198.011 478.603 197.929 478.867 197.764C479.131 197.599 479.34 197.378 479.494 197.099C479.647 196.821 479.724 196.51 479.724 196.166C479.724 195.831 479.648 195.526 479.498 195.25C479.35 194.974 479.146 194.756 478.884 194.594C478.626 194.432 478.33 194.351 477.998 194.351C477.745 194.351 477.511 194.399 477.295 194.496C477.082 194.592 476.894 194.726 476.732 194.896C476.57 195.067 476.442 195.263 476.349 195.484C476.258 195.703 476.212 195.935 476.212 196.179C476.212 196.506 476.288 196.808 476.438 197.087C476.592 197.365 476.8 197.589 477.065 197.76C477.332 197.928 477.633 198.011 477.968 198.011ZM483.012 199.081C482.779 199.081 482.579 198.999 482.412 198.834C482.244 198.666 482.16 198.464 482.16 198.229C482.16 197.996 482.244 197.797 482.412 197.632C482.579 197.464 482.779 197.381 483.012 197.381C483.245 197.381 483.446 197.464 483.613 197.632C483.781 197.797 483.865 197.996 483.865 198.229C483.865 198.385 483.825 198.528 483.745 198.659C483.669 198.787 483.566 198.889 483.439 198.966C483.311 199.043 483.169 199.081 483.012 199.081ZM488.351 190.153C488.74 190.156 489.124 190.227 489.501 190.366C489.879 190.506 490.22 190.733 490.524 191.048C490.831 191.364 491.075 191.79 491.257 192.327C491.442 192.861 491.536 193.526 491.538 194.321C491.538 195.085 491.462 195.766 491.308 196.362C491.155 196.956 490.935 197.457 490.648 197.866C490.364 198.276 490.018 198.587 489.612 198.8C489.206 199.013 488.749 199.119 488.24 199.119C487.72 199.119 487.259 199.017 486.855 198.812C486.452 198.608 486.124 198.325 485.871 197.964C485.618 197.601 485.46 197.183 485.398 196.712H486.697C486.783 197.087 486.956 197.391 487.217 197.624C487.482 197.854 487.822 197.969 488.24 197.969C488.879 197.969 489.378 197.69 489.736 197.134C490.094 196.574 490.274 195.793 490.277 194.79H490.209C490.061 195.034 489.876 195.244 489.655 195.42C489.436 195.597 489.19 195.733 488.918 195.83C488.645 195.926 488.354 195.974 488.044 195.974C487.541 195.974 487.084 195.851 486.672 195.604C486.26 195.357 485.932 195.017 485.688 194.585C485.443 194.153 485.321 193.661 485.321 193.107C485.321 192.555 485.446 192.055 485.696 191.607C485.949 191.158 486.301 190.803 486.753 190.541C487.207 190.277 487.74 190.148 488.351 190.153ZM488.355 191.261C488.023 191.261 487.723 191.344 487.456 191.509C487.192 191.67 486.983 191.891 486.83 192.169C486.676 192.445 486.599 192.751 486.599 193.089C486.599 193.428 486.673 193.734 486.821 194.01C486.972 194.283 487.176 194.5 487.435 194.662C487.696 194.821 487.994 194.901 488.33 194.901C488.58 194.901 488.813 194.852 489.028 194.756C489.244 194.659 489.433 194.526 489.595 194.355C489.757 194.182 489.884 193.986 489.974 193.767C490.065 193.548 490.111 193.318 490.111 193.077C490.111 192.756 490.034 192.457 489.881 192.182C489.73 191.906 489.523 191.685 489.259 191.517C488.994 191.347 488.693 191.261 488.355 191.261Z" fill="white"/>
<defs>
<filter id="filter0_d_814_87" x="375.526" y="142.368" width="192.947" height="133.947" filterUnits="userSpaceOnUse" color-interpolation-filters="sRGB">
<feFlood flood-opacity="0" result="BackgroundImageFix"/>
<feColorMatrix in="SourceAlpha" type="matrix" values="0 0 0 0 0 0 0 0 0 0 0 0 0 0 0 0 0 0 127 0" result="hardAlpha"/>
<feOffset dy="26.8421"/>
<feGaussianBlur stdDeviation="19.7368"/>
<feComposite in2="hardAlpha" operator="out"/>
<feColorMatrix type="matrix" values="0 0 0 0 0 0 0 0 0 0 0 0 0 0 0 0 0 0 0.17 0"/>
<feBlend mode="normal" in2="BackgroundImageFix" result="effect1_dropShadow_814_87"/>
<feBlend mode="normal" in="SourceGraphic" in2="effect1_dropShadow_814_87" result="shape"/>
</filter>
</defs>
</svg>
