<svg width="21" height="21" viewBox="0 0 21 21" fill="none" xmlns="http://www.w3.org/2000/svg">
<g clip-path="url(#clip0_47_45)">
<path d="M10.6899 0.509766C5.16713 0.509766 0.689941 4.98696 0.689941 10.5098C0.689941 16.0326 5.16713 20.5098 10.6899 20.5098C16.2131 20.5098 20.6899 16.0326 20.6899 10.5098C20.6899 4.98696 16.2131 0.509766 10.6899 0.509766ZM10.6899 18.5098C6.27873 18.5098 2.68994 14.921 2.68994 10.5098C2.68994 6.09856 6.27873 2.50977 10.6899 2.50977C15.1011 2.50977 18.6899 6.09856 18.6899 10.5098C18.6899 14.921 15.1011 18.5098 10.6899 18.5098Z" fill="#9F7AEA"/>
<path d="M14.3271 9.80969L9.47752 7.00969C8.81072 6.62489 8.26514 6.93969 8.26514 7.70969V13.3097C8.26514 14.0797 8.81072 14.3949 9.47752 14.0097L14.3271 11.2097C14.9939 10.8249 14.9939 10.1945 14.3271 9.80969Z" fill="#9F7AEA"/>
</g>
<defs>
<clipPath id="clip0_47_45">
<rect width="20" height="20" fill="white" transform="translate(0.689941 0.509766)"/>
</clipPath>
</defs>
</svg>
